<mxfile host="app.diagrams.net" agent="Mozilla/5.0 (Windows NT 10.0; Win64; x64) AppleWebKit/537.36 (KHTML, like Gecko) Chrome/131.0.0.0 Safari/537.36" version="24.7.16">
  <diagram name="第 1 页" id="eD8guzpDk4oatOVmUbff">
    <mxGraphModel dx="968" dy="534" grid="1" gridSize="10" guides="1" tooltips="1" connect="1" arrows="1" fold="1" page="1" pageScale="1" pageWidth="827" pageHeight="1169" math="0" shadow="0">
      <root>
        <mxCell id="0" />
        <mxCell id="1" parent="0" />
        <mxCell id="MyQ0sjZ2pPT9WS6P9HhL-38" value="" style="verticalLabelPosition=bottom;verticalAlign=top;html=1;shape=mxgraph.basic.rect;fillColor2=none;strokeWidth=1;size=20;indent=5;dashed=1;" parent="1" vertex="1">
          <mxGeometry x="70" y="70" width="440" height="500" as="geometry" />
        </mxCell>
        <mxCell id="MyQ0sjZ2pPT9WS6P9HhL-1" value="" style="rounded=1;whiteSpace=wrap;html=1;" parent="1" vertex="1">
          <mxGeometry x="120" y="370" width="370" height="180" as="geometry" />
        </mxCell>
        <mxCell id="MyQ0sjZ2pPT9WS6P9HhL-2" value="" style="rounded=1;whiteSpace=wrap;html=1;" parent="1" vertex="1">
          <mxGeometry x="120" y="140" width="370" height="170" as="geometry" />
        </mxCell>
        <mxCell id="MyQ0sjZ2pPT9WS6P9HhL-4" value="Nova&lt;div&gt;&lt;br&gt;&lt;/div&gt;&lt;div&gt;&lt;br&gt;&lt;/div&gt;&lt;div&gt;&lt;br&gt;&lt;/div&gt;&lt;div&gt;&lt;br&gt;&lt;/div&gt;&lt;div&gt;&lt;br&gt;&lt;/div&gt;&lt;div&gt;&lt;br&gt;&lt;/div&gt;" style="rounded=1;whiteSpace=wrap;html=1;" parent="1" vertex="1">
          <mxGeometry x="630" y="148.5" width="80" height="151.5" as="geometry" />
        </mxCell>
        <mxCell id="MyQ0sjZ2pPT9WS6P9HhL-8" value="" style="endArrow=classic;html=1;rounded=0;" parent="1" edge="1">
          <mxGeometry width="50" height="50" relative="1" as="geometry">
            <mxPoint x="180" y="370" as="sourcePoint" />
            <mxPoint x="180" y="309" as="targetPoint" />
          </mxGeometry>
        </mxCell>
        <mxCell id="MyQ0sjZ2pPT9WS6P9HhL-15" value="sftp" style="edgeLabel;html=1;align=center;verticalAlign=middle;resizable=0;points=[];" parent="MyQ0sjZ2pPT9WS6P9HhL-8" vertex="1" connectable="0">
          <mxGeometry x="0.095" y="-3" relative="1" as="geometry">
            <mxPoint as="offset" />
          </mxGeometry>
        </mxCell>
        <mxCell id="MyQ0sjZ2pPT9WS6P9HhL-32" value="Text" style="edgeLabel;html=1;align=center;verticalAlign=middle;resizable=0;points=[];" parent="MyQ0sjZ2pPT9WS6P9HhL-8" vertex="1" connectable="0">
          <mxGeometry x="0.0929" y="-6" relative="1" as="geometry">
            <mxPoint as="offset" />
          </mxGeometry>
        </mxCell>
        <mxCell id="MyQ0sjZ2pPT9WS6P9HhL-35" value="3. 模型上传" style="edgeLabel;html=1;align=center;verticalAlign=middle;resizable=0;points=[];" parent="MyQ0sjZ2pPT9WS6P9HhL-8" vertex="1" connectable="0">
          <mxGeometry x="0.1671" y="-5" relative="1" as="geometry">
            <mxPoint as="offset" />
          </mxGeometry>
        </mxCell>
        <mxCell id="MyQ0sjZ2pPT9WS6P9HhL-10" value="" style="sketch=0;outlineConnect=0;fontColor=#232F3E;gradientColor=none;fillColor=#01A88D;strokeColor=none;dashed=0;verticalLabelPosition=bottom;verticalAlign=top;align=center;html=1;fontSize=12;fontStyle=0;aspect=fixed;shape=mxgraph.aws4.transfer_for_ftps_resource;" parent="1" vertex="1">
          <mxGeometry x="140" y="206" width="76" height="78" as="geometry" />
        </mxCell>
        <mxCell id="MyQ0sjZ2pPT9WS6P9HhL-17" value="" style="fillColor=#c0f5a9;dashed=0;outlineConnect=0;strokeWidth=2;html=1;align=center;fontSize=8;verticalLabelPosition=bottom;verticalAlign=top;shape=mxgraph.eip.polling_consumer;" parent="1" vertex="1">
          <mxGeometry x="250" y="210" width="96" height="70" as="geometry" />
        </mxCell>
        <mxCell id="MyQ0sjZ2pPT9WS6P9HhL-18" value="" style="endArrow=classic;html=1;rounded=0;entryX=0;entryY=0.5;entryDx=0;entryDy=0;entryPerimeter=0;" parent="1" source="MyQ0sjZ2pPT9WS6P9HhL-10" target="MyQ0sjZ2pPT9WS6P9HhL-17" edge="1">
          <mxGeometry width="50" height="50" relative="1" as="geometry">
            <mxPoint x="380" y="370" as="sourcePoint" />
            <mxPoint x="430" y="320" as="targetPoint" />
          </mxGeometry>
        </mxCell>
        <mxCell id="MyQ0sjZ2pPT9WS6P9HhL-20" value="" style="endArrow=classic;html=1;rounded=0;exitX=1;exitY=0.5;exitDx=0;exitDy=0;exitPerimeter=0;entryX=-0.08;entryY=0.561;entryDx=0;entryDy=0;entryPerimeter=0;" parent="1" source="MyQ0sjZ2pPT9WS6P9HhL-17" target="MyQ0sjZ2pPT9WS6P9HhL-21" edge="1">
          <mxGeometry width="50" height="50" relative="1" as="geometry">
            <mxPoint x="380" y="370" as="sourcePoint" />
            <mxPoint x="370" y="249.3648648648649" as="targetPoint" />
          </mxGeometry>
        </mxCell>
        <mxCell id="MyQ0sjZ2pPT9WS6P9HhL-21" value="" style="image;sketch=0;aspect=fixed;html=1;points=[];align=center;fontSize=12;image=img/lib/mscae/Docker.svg;" parent="1" vertex="1">
          <mxGeometry x="390" y="213.5" width="70.73" height="58" as="geometry" />
        </mxCell>
        <mxCell id="MyQ0sjZ2pPT9WS6P9HhL-22" value="" style="sketch=0;pointerEvents=1;shadow=0;dashed=0;html=1;strokeColor=none;fillColor=#505050;labelPosition=center;verticalLabelPosition=bottom;verticalAlign=top;outlineConnect=0;align=center;shape=mxgraph.office.services.registrar_service;" parent="1" vertex="1">
          <mxGeometry x="640" y="206" width="56" height="52" as="geometry" />
        </mxCell>
        <mxCell id="MyQ0sjZ2pPT9WS6P9HhL-23" value="" style="endArrow=classic;html=1;rounded=0;exitX=1;exitY=0.5;exitDx=0;exitDy=0;entryX=0;entryY=0.5;entryDx=0;entryDy=0;" parent="1" source="MyQ0sjZ2pPT9WS6P9HhL-2" target="MyQ0sjZ2pPT9WS6P9HhL-4" edge="1">
          <mxGeometry width="50" height="50" relative="1" as="geometry">
            <mxPoint x="380" y="370" as="sourcePoint" />
            <mxPoint x="430" y="320" as="targetPoint" />
          </mxGeometry>
        </mxCell>
        <mxCell id="MyQ0sjZ2pPT9WS6P9HhL-33" value="&lt;span style=&quot;font-size: 12px; text-wrap-mode: wrap; background-color: rgb(251, 251, 251);&quot;&gt;6.注册推理URL到Nova&lt;/span&gt;" style="edgeLabel;html=1;align=center;verticalAlign=middle;resizable=0;points=[];" parent="MyQ0sjZ2pPT9WS6P9HhL-23" vertex="1" connectable="0">
          <mxGeometry x="0.1143" y="2" relative="1" as="geometry">
            <mxPoint as="offset" />
          </mxGeometry>
        </mxCell>
        <mxCell id="MyQ0sjZ2pPT9WS6P9HhL-25" value="基础准备(用户自行准备)：&lt;div&gt;- Base LLM&lt;/div&gt;&lt;div&gt;&lt;span style=&quot;background-color: initial;&quot;&gt;- Lora 镜像&amp;nbsp;&lt;/span&gt;&lt;/div&gt;&lt;div&gt;&lt;span style=&quot;background-color: initial;&quot;&gt;- 微调Data Set&lt;/span&gt;&lt;/div&gt;&lt;div&gt;&lt;span style=&quot;background-color: initial;&quot;&gt;&lt;br&gt;&lt;/span&gt;&lt;/div&gt;&lt;div&gt;&lt;span style=&quot;background-color: initial;&quot;&gt;执行脚本（手动执行）：&lt;/span&gt;&lt;/div&gt;&lt;div&gt;&lt;span style=&quot;background-color: initial;&quot;&gt;- Lora&lt;/span&gt;&lt;/div&gt;&lt;div&gt;&lt;span style=&quot;background-color: initial;&quot;&gt;- Model Merge&lt;/span&gt;&lt;/div&gt;&lt;div&gt;&lt;span style=&quot;background-color: initial;&quot;&gt;- Model upload&lt;/span&gt;&lt;/div&gt;" style="text;html=1;align=left;verticalAlign=middle;whiteSpace=wrap;rounded=0;" parent="1" vertex="1">
          <mxGeometry x="333.13" y="390" width="156.87" height="140" as="geometry" />
        </mxCell>
        <mxCell id="MyQ0sjZ2pPT9WS6P9HhL-26" value="" style="sketch=0;html=1;aspect=fixed;strokeColor=none;shadow=0;fillColor=#3B8DF1;verticalAlign=top;labelPosition=center;verticalLabelPosition=bottom;shape=mxgraph.gcp2.play_start" parent="1" vertex="1">
          <mxGeometry x="620" y="400" width="100" height="100" as="geometry" />
        </mxCell>
        <mxCell id="MyQ0sjZ2pPT9WS6P9HhL-28" value="" style="endArrow=classic;html=1;rounded=0;exitX=0;exitY=0.53;exitDx=0;exitDy=0;exitPerimeter=0;entryX=0.995;entryY=0.457;entryDx=0;entryDy=0;entryPerimeter=0;" parent="1" source="MyQ0sjZ2pPT9WS6P9HhL-26" target="MyQ0sjZ2pPT9WS6P9HhL-1" edge="1">
          <mxGeometry width="50" height="50" relative="1" as="geometry">
            <mxPoint x="350" y="470" as="sourcePoint" />
            <mxPoint x="380" y="493" as="targetPoint" />
          </mxGeometry>
        </mxCell>
        <mxCell id="MyQ0sjZ2pPT9WS6P9HhL-29" value="1. 页面跳转" style="text;html=1;align=center;verticalAlign=middle;resizable=0;points=[];autosize=1;strokeColor=none;fillColor=none;" parent="1" vertex="1">
          <mxGeometry x="515" y="420" width="80" height="30" as="geometry" />
        </mxCell>
        <mxCell id="MyQ0sjZ2pPT9WS6P9HhL-30" value="4. 模型发现(自动)&amp;nbsp; &amp;nbsp; &amp;nbsp; &amp;nbsp; &amp;nbsp; &amp;nbsp; &amp;nbsp; &amp;nbsp; &amp;nbsp;5. 启动推理镜像(自动)&amp;nbsp;" style="text;html=1;align=center;verticalAlign=middle;whiteSpace=wrap;rounded=0;" parent="1" vertex="1">
          <mxGeometry x="190" y="170" width="330" height="30" as="geometry" />
        </mxCell>
        <mxCell id="MyQ0sjZ2pPT9WS6P9HhL-31" value="2. Lora Fine-Tuning" style="text;html=1;align=center;verticalAlign=middle;whiteSpace=wrap;rounded=0;" parent="1" vertex="1">
          <mxGeometry x="200" y="370" width="170" height="20" as="geometry" />
        </mxCell>
        <mxCell id="MyQ0sjZ2pPT9WS6P9HhL-34" value="" style="shape=image;verticalLabelPosition=bottom;labelBackgroundColor=default;verticalAlign=top;aspect=fixed;imageAspect=0;image=data:image/png,iVBORw0KGgoAAAANSUhEUgAAAYwAAADnCAYAAAANfWFnAAAAAXNSR0IArs4c6QAAAARnQU1BAACxjwv8YQUAAAAJcEhZcwAAFiUAABYlAUlSJPAAAP+lSURBVHhe7J1neFTl2oUnPSFAqKJiAQGlhvQ+vSaZSSOEXkREVCyI2FBsSEsghSR0EOzYRUU6oSWh996xIL3n5/rWs5NIxCEkCufg+ebHuvaUPbvNzLrf9batsqT1xM1kTe0JWw1lTe0BC2W+Y9Sdx9ONx1UzWVK6wZTcDcZayJTUDebbJFNSBoyOrjWWgdLXSunQ29NhqKFkXR0/UxvVbvtdoKO0t01p3H4q91Mz6RKpBH6mhtImpEJDqWshTXwqtDWUJj4FGtvtk9qWDLX19inOmoQ4y+1TLBXDfdw+ORBLxdVQsRYHYsyUqWaKNtkRbbx9ijImIspQc0UaEhCpv6b/eWBY7kBgyPq1USUIrgfDn0XDrZBzMNxIFZ9zYt5VJUZeKWdQqE4uYFSv/4/AEGOvqa6HQqXEjJ3JudHfKnEf10GhOinH4wLGjfWfAIYlpTbq/icg3Ey3GxjlEOgBY1LPGqoHDEwZhiRC4XpVMf2/qioUqldV2Pyh60xcUWIlMGoHDRcwqtf/N2DE/sWEbyxZV4GMyBksaMaVUoxZRKN2tq1bI+6rChBuJhcwbqL/FDCsNdadBwznYLixyoFxvaqa/nUGrajq+9VLwPPn9PJXE1dgQelELmDcUC5gVK9bCowKUPwFGGLSFZ+/9eK+roNCdXIB4yZyAaN61R4YVRPGfx8YroRRvVzAqF4uYFQvFzBug1zAcAHj74vG7gQMN5ILGLdWLmBULxcwboNcwHAB4++Lxu4EDDeSCxi3Vi5gVC8XMG6DXMBwAePvi8buBAw3kgsYt1YuYFQvFzBug1zAcAHj74vG7gQMN5ILGLdWLmBULxcwboNcwHAB4++Lxu4EDDeSCxi3Vi5gVC8XMG6DXMBwAePvi8buBAw3kgsYt1YuYFQvFzBug1zAcAHj74vG7gQMN5ILGLdWLmBULxcwboP+fwGjcuCeCxi3RjR2J2C4kcqBUXNo/CeAoVaMvcLc4yskj/94vcr7Fa9rbOX7UT5f8ZlySPAY/rQuTZ3P48TgaXZqmp6GS5FighXvq62icgAo61aRPJf1lO1yPeX5H+85M+FK0TT/pEpgVOzHBYx/rDsCGAKJqrrjgEEIKEDgUoBwM91+YPzdqUFcwPjnorE7AcONpAAj8a9gqCqBRFXdTmBoafg6GrEiK59b06BRJI9ToKVRawkDWe/aMQkc7IgzJ0BNU9IZU2Aw0cwTaGrxdn7WAX08rz2loznrLAlcn8acmIHYhB6IsndHpCOD58Xfhonv00Si4xMRE5+k7FdnIQxo4mLUcfycbE9tsdPEE2juidyWg8eWxNfKwRHL56IYkdWumHCM8vkUKpUmS3E9MehycxZo3EHAkH3L+SnLmytGIFAbKcZec10Phep024FhpWxUfFovZekUFlUMWszcmcnfStUOGCKBRnd+rkLJIhr4DeQMCtWp1sBwso3q9GdQuIDxz0STdwKGG6oSGDz38mWFqsKiiqGL+TuDQnWqKTBkPT1BYCMUEsypsBkyYNL3gJ7S6fmbMKTCSDM1JiTxO0zhb6crTClUGk3cFovo2GDERlqQEJyO5IguiE3SEwZR0JuNsDseg8M+EIk09URtKH8XSYjo+TIiMt7Gw31HouXAl2Hs+jzSY1LgCAxDp+QoBCcnwmTsATv3q9EnItgYj1hCxEBI6LU6hKvDaVIxMMabYTElKqCKNadBbbdD7bARRmZE20yINsdzPb5n6IE4Qx/EGXsTboQV4RNDMAmE7iRgxJgJOTOBWUNVQqCmiuL6kTWUrFsbaLiAUQvJ58ph0b0cDhUG/k8N/fYC43pQVKqq6V9n0Iqqvl+9XMC4iQiIP86/Ehz/BWCIJL1oCAOTLQ3x2q6wxjGBanvSZDOUEnpkogMRyTTQlFRYmAjspq4wS2qwmaExmxGn6w218Rma9VMIdVgRGh+DaIsZ5oTH+L0PgIaAtHC9oP7PoflrH+KhF79DkxFfo/6bH+GRoVOgtj4NQ3sdOuriEKRhionqD5MlHVHxDnSWqi5JxQndmELsCFVrEGbQMiVYmWyYNMxdCK5uSnVYTEIiIhJs3L8FodYERBAYMdruUGt6QavtBQ2PO5bbjLEzpTCJ3FnAEAgQBjdTxXrRNGln5u1MYv7OwFCdXMC4if4+MCrTxTVg/HNDdwHjZnIBo3rVBhhxNPTQ1FREc2nQdYFJ2w1aY3dExHdFIGHRISkRHVMcCHekwaJPhz2KINH3RGwqYdDneYT2eg+tBhfg/qeyuH5vhOriEa5jiVndg8bdDYFJaYhM6I37ns+Be2Ex6uXsgW/eLrgVrINP1hLc32s8gjplIKSjBVFt06HuNIAASEdYWjoC0/shrM9zTCYvICzlKQRbuX1jF4TrkxHGfUTZuiDO0QuxpgxEEh7BCSkItDsQmOBAqJlmrCWA4nit1TxXYzJieT7RDiYMppaqsLgTgFEJhJupHBjOzduZXMC4DXIBQ1TV9K8zaEVV369eLmDcRHdUwkhBrD0J4QlJCOHzCEcPRCb3QFhyF3Swx6NDvBkhVhu0ljQYmUCi9X3QottQtH52LDq8OQv3vj0f/pkrUO/d7xCY+gbUoT2he8QO9cNMJjFMCQnJ6KjvgSZDcqCath4ehYfhPuUwVNMJjSmluOuJQgSF9IG2tRG2lg7Y2/eCXZeKmC690XrQMDR7NQuNXivA3c/kolOv0UwXL0AX2QdRYQ4Em5IRxN90jKE3YoyESUJ3BPL3EehIRqjNjlgakk4dDwOlo1nFJtDgHNLO4gJGdXIB4yZyAUNU1fSvM2hFVd+vXi5g3ER3CDBkPWnDSLAlIYql77bJLJ2npiM6JYMl9xSavQVhFiP0RhscBh6roSvaJg1AwAvj0WDsx7grbwnqTN0Ot2kH4Je5EZ0enwtT2POwN7LD1NQITZCZKSAJHc390PTZQnhO2QTv/EPwoNwm74JP/iY0f3IGgiP7IaZ1DMwtNXC0T0JCXAoiuw3Cg8PGIiBzHnyyF8Jn3EI0ffMbPPzoJIRpn0VcB0Il2IZorQMGJh6DqQ/UNmlQ74oIAjAqIZ4gMDFZGAgLEzRmm1IlFZ1Y3uPqTquScgHjBnIB4+ZyAaN6uYBRvWoDDCOBkcJ0oXYkEgYJCKbZ6vialSYaY7VAYzHDTqNKN6czZXRBy4wBaDCyEP7ZP8C3sBTus49CNeUEU8YhtBm5GjrzeCQHpCGhgRam9lqozckITnkWzV/6GHUKd6FOzmF4ZR+AR+4uBGRvR8unP0KQ5gkEtY1EzEPhMHa0QqvLQGD/4bj3zZlolLsKvpN3MJHsgWrOVtR96yu0coyEoXVX2O7TwdxBhwRtKhLMGbCausBkToHeaue5WRCXqEdsoo7JwoBYG4EhcDCnERYuYFQnFzBuIhcwRFVN/zqDVlT1/erlAsZNdAcBQ5eYAnOaAxpHPM3CBm2cHbaYZCSq+brBATNL5VZHMmyONKXraqCjBzo8nYV73/oGvpmlcMs9AM8JxwmMo2hYsBvtBn0AfYfHkXC3EYZW0YhQJyGkzxg8+O5y+E//GV55v8It5xjc8w6j3qRjePDFRQhMeAOd2lsQ0iIOkZ24vuNJtBiahQZZ36FJ3jb45xNKM36B6tvjTBtL8ED6aDhadEdSYzWMrSIQrzHCboyHXZOAxLhEWLU26JkuYhx6RKToEJ5iYoJKRByBotV1g9oiYzlcwLiRXMC4iVzAEFU1/esMWlHV96uXCxg30R0CDJE6MZmmaoMmIREWQxo0pt40sQE01QFI0PRi6Z3X3JKMUIcD4fEyDoLH2+U1tB72CbwnEBjjd8E98yBBcARe7x9Ek3d/QGDKSNhbJsHYJBpB7e0ERhbuH1MEr+kH4Za3F27Zu+CRtxveUw7h3jeWoXPKaES3tiO2aRzC26Whbb9RaPzeZ/CZvIZQ2QefiQSGQGPeEdQduwDt7O8g/YEeSLxHh7D2EdCqo2HSM22obTDHJUOvJRDMdkTYLQhNNiI0yYTIBDvUxgzodD15bqkuYFQjFzBuIhcwRFVN/zqDVlT1/erlAsZNdAcBQ8Y5BNosUNvSmCKeQnC/19Hy8ffQpvc7MJmGwRY1ANHRaXjYlIBgsw0WfTLiDU/gkWenw6NwHVSZW6HK3g3VtP1Qzd4P74LVuO+FqbAFPwZ9Qxs6PdgVQX2zcc+4xXCbuhmq3BJ4ZK+BZ14x3KZsQeO3f0Jg13HQtUqBrqEWIR17ofmLc1CncDXcp22Fb/YBeI3dr4DJY/pWNH7xUwSpX0T6gxkwt7KgU7gaYdpYGp0ZEZYMRMQ/jrDEJxCS2A8h8SkItVoQbjbSaBMIjK4EYi+orS5gVCcXMG4iFzBEVU3/OoNWVPX96uUCxk10pwCD60p9fpCOpfGkxxH+1Djc8+5H8Bv3DeqP+ByBvafyT/46wkL6ol1oIsKirDCpHUopvcXQPKjeL4Vq6haoJm/jcieX+6CashH1x3zN1PI2IgKfRbuQV9HumVm4e+JSeE1ZB7f8FYTFInjnLYF7zhoEvPk9WvbLRmBoX3R+OA2t9UPhn7kEHrN2wzd3LxqO2Y+6o3YRGusRkL0CzQbloW3Io7C2TIatLRNPZCJCaVwdk/vgkd4v46FBE/DQwIl4pPtIdGZKioxORFyoFppoM+JMqYhJ7Ik4mwsY1ekOBEavCmBQ/2JgiFzA+KtcwLiJbjcwKqV8PoXbSal4XPW98tclWURY+6DjgNdx/6gPWLIvoulvgUfOFjR6dyUeHDgLHbTDENkmCYZWelg6m6HRp6HFc5ks8a+Gau4W+BRspslvhvukI/zsLgJhKZq9ORf3DZ6NewbMQ5NRi1A/ZxN88/bCvWAD3KcUw2uyjMPYhXpjNqPRiB/RZFAu7n00B82Gfg7Pwp3wKjyKeuMOom7mPnjlMWkUrEXLzB/QIf1tdG6RDP39VljbJ8AQm4aweMKi36to/tIMNBrzE5q89SMefGIGgg3PQ9veDvNDUdAHqRFN4w9L64bYhJQKUBAM16sqMCrnZOLrzs3+VujvAKPm0Lj9wKCcgOFG+tsJ4w9VQqKqqhoy5czkb6VuBgwlSdxA5kpYUGLezuTcuG8s+YwzODhT7bfvDBaiqqZ/nUErqvp+9fp/Bwxluo/aSD7zZymgqNAf5l4hZ1C4kQQEehqRQRmNLVC4Bp/y+aL4ulXmjuI+bV34mW6ITBmAli+MQ538BfCYup2mf5hp4RBUM3aizqjFuL93IaJChsD4gAP6lkZERXdBqwFjUG/8Ini9vwn1cjeg4Tsb4JlDYBQQCpNL4Pb+cnhPXgO/CZvgkb8NXrmH4DPxZ7gV7OZ2t8F9+i7UmXgMdXKOw7tgD9zyuG7+BgRMOQSvacfgl3WEyeIAUwhTy/s74D+nGJ1HfQW1+SVoGlqgucsATQcx28fQqedbePCF2Wg8fin8pu1AnUlb0HTED2iXPgaxQb1gvU8DU5tYxKptCEtJJzDKk1W5pAFcAJKswCG6KiQsNEVKMfW/GP0tkuznZlODCCT+pAqjrqmuA0J1Kp8aRIBUM/3jhCETC95cNOJKOTHoqrrdwJCJDeU4nKWb8v0TDBUpojxJdFcmE3Qm5wZde7mAUb3uPGBQNKHKlFCdFCDcRM5AUFPpbEmw6yxw6OJhNQk80gkGXgdLKkwGByz6RMoBo6krtNZ+iErojUCHGc2fHwG/nNVwn0DTz9oLVXYxVLnL4J5FI3+nFE2H/YSHrW8i8MFUtGk9AA9Zx+DBoV+iSU4J/PM3wXPiRrhN2AbP7F3wnbQLPlO2w3PyZsJiM7wn7YZ33h54TNoBt8L1BNJaqKaugXthCbWBr22BKn87398Pv4LDqDt9J3xzCJX3dkGVeQjuU48igCALfPkL6DTDYQqgWQXY0CmwDx7oMRb1Ry5HvcwdCJjAfefsYELZDE9u3zf7K7ToPwZxHfrA2tAA20MmGNUyo24XQkPA0RUaew9opZrKmkEDS0K4NgER+nhEWROUsRwimbBQuuTeHlWkGWeief9pokExaTF0ypnZO1Pl3FA1l4AggfupmaK4rjMw3Eh/AUbV6iVnqjTlmlYD3XnAcGbCt1YuYFSvOw0YWidguJEEGM6M/lZJk5BMQMQzYdhhNKcSDLwG0p1UZnaVifcS42mSdui5rtHSQwGHLl6HTgOHosmbP8JzzB5CYjc8c0tp9ivhNnmLMjK7zqQ9uPv5z9DaPhKtdKPQptt0PPTaAjTOWwefqVuZLKTxm0li4i74Ze+BF43bLXcj3HPXM4HsQL28HfDN2wKvSXxt0jqoJpVSXOZugiqHqWbiXrhlHYJH9j74zCiBRwGhMn4jVBOYPqYcQJ1pm9HyzXmISBsJfWA/RHd+FB1TX8M9Iz6CZ/5OeE0+Dv/cg/AknNwIK/eppfAZPx8temYitt0AmO6ywPywEUatnVCV68R0RXBo4rtymUHjTqeZJVE0ajHxeBquzYoIi0V5XrW941bq+mqwSpUDo1ySeqpWATkDQ3WSz1StRqpeAiXncHCmcmCInAPiev1tYNRUdyIwbmWacCYXMKrXnZkwaqbKhOHM7P+pZLsx9hR0Tk1GSHIq4cBrYOF3Yi4fQxGWnICQ9HhEpCdAm5QIK03JoUtEmsUMXfpgPPTUdPiMYspg6d6ncCs8p2yB20wCZPYR+BXuQ8PMNbj3za/Q+tnP0erVBbh7YgnqTN8Kj5k7yxu9adZeMlfUhJ2EDkEwgdDJLkH9vE0ImLQF/tIWkcvkkbNT6VrrRrgoYjJwm0DAZPH1nM3c51JCahk/K+M8tkE1bQf3sQ4NJnyHNs8XIqTXewjqn4VH3vgYzaauhNesnfCYth8+BXt5zPsIjB2ExSo0HzAXgbGvIbZVd+gftkIXZSQgrNDzWuhp1BoasdpIg6aiRWLW0t5j5/VMTGLp3IYwnYnmbXdq9rdCNQPGNUO/M4HhHA7O5ALGbZALGNXLBQznUoCRkIKgRAKD1ymav191ai/E8TuPciQjnOki0m6BmjImWGBl6TnBZIbDZuF16oFHer0O37fnsdS/huliK9yYClQFu+BO+Y3bCp+sjfBjorh7Qgma5q1Hnalb4DGdhj6d601lyX7yfnjn7YPvRAJjAoGRvQ5uTBIeU9ZRG+A+eTO3tR1u+QRE/h6miF3wKtwG78kb4D21GD7TVjFdLCccfkKdKSsQQND4SEP5lP1Ke4pHQSnqj1mGu15fjMbvFKNu4QF4ffwb3GbshmoKAVe4HfULdsI7fz3qvvEdItWZiGkzGKEPp8AUHA+T0QStwwidxQad3gatzgqNxoxYrQXRBhuimcpieZ3USWm8nimIoqFFqJkwaNrX96q6VXIB4zpAXC8XMG4uFzCqlwsY1Sg+FbEmLm1doU3uCU2X3ojh7zqS1yJK7oZnTYWBS5M1GQaWnPUsRZvMTBg0rpC0gWj2Sg7qZv4IH5b03XMIgfzd8JTR1qNp6oSGG1NEHZbgfadJtc9WqCZvIVQIjYLdhAFL+QKMbAJjIoExaQNUhRSNXpUv1VAbCaFtTA2EUC5BMGkvwURwFO5kMtgGr2lb4DltHV9fzm2sRf2sHfCXQYE5BxRwqQo3MaGUIiCzFHUnbIaXgGSWDOrbDo/cTfDm/vwmlSBg1Pd44NF8RAQ+A/V9XRDb2gp1tJXna+Z5m6A2WBGnZeIgLPRqQkRrQpzRwnRBE7TToO1JiLHRzPVMIFrCgubtAoZzuYDxl/27gOECRnUiCO4gYEhvKLMpnemhKyzx/F7t3RCXSGAk9kGE43HEpAyBOu05po6nEJ0wAJHGDMRqrNBraJw8vsDHhuOB1z5QTNlr0j54TN4Nb+k2O5HAoIGrJu6jcdO8CQ0V04Eqj8DIIQRydtG098I7Zw+8s5kisgmM/I0ECpc0czcCROQpRj9hK0XgSBLJJpRy9hMkBwmUI9we4TBhHTwzN6HOuL2oN+YgfDIJhlzZH4FRuA4BhELd7GJ4ER6qSdz+xG3woepml/IYv8eDT+YhUvMsOrdPRuyDBhhb6xCstiKGZigN/pGmZBoXYaBJgD7WAoOawCQw1AlMYIkJCLUxWdBoNQbpKNBFmQ9LjN2Z4f9TuYBxHSCulwsYN5cLGNXLBYwbKQUaHouRv1lrYjriaY6W6ERoNOkIczyJDgNG4ZFhU/HIy3PQ/qlCdOg2GoGm5xAZkQp9mBHWaBOM2h7o3CcTzd5ZAa/Je+E2naV/lvo9PtgCtxl7aNw07xyat1RXMR1Iu4WKsJC2CA8RQeBGKKgmruc6TBUFmwgFJomJe+E1cTt8+brfxLWoM7GIyyImidUETCnf38xt7OS2uL3C7fCUarDcA0wSB5h29hI8fH0WATOLaYJJxJ3bdSsgkCTdTDoI38kH0XBSKZq+NhvhtufgeDAeUa0jEdM2EnGBerRnUuhs7o1o2yAEpgxCZ0c/mlc6NNEJMESbYdBaoGPCiCQ0giw2hOgSoNV3gdXUHRpLigsYN5ALGH/ZvwsYLmBUJ4LgTgGG0mDLfaR353VKVerp42KtCDX3QLter+H+V+ei6cTlaERjbTJmOe4a9iXu65ePTo4XEUEzjdMkQxeUhuCUd3HPyEUEBg2cpXq3SUVQfbAe7tN3wHMCE8F4GvaEHfBmAvHNl2qovfBUgLGDpr+VsCAwsjfQyKU6is+ZHtxyDzKB8PN5TC55RfBWRnsv5OPF8MwtgnsO00IOP5e3nXAgGJhivHJ2Ml1sgVfWJnjkMJ0UboHHZIIrn6kih0ASTSIwCo/DY/ZRBOQXE4o50Ab1QkLTKCS2iEBMpBHtErqireMJtOs2Em0fy0LrwWPQtver6Bz/BCLCUxEXZIE+ygSDNRGxiYkIscUjRB8PtT4VFlM3FzCqkQsYf9m/CxguYFQnguAOShhqHo8mtSti5R7aVis60wQf6ToQ9z+TiUbjF6DOdBrxnOPwmraPJf518H9nAe4b/iFaPTkOj3Qbis66wWjbIwvN3l0Kb5lWPJemPH4Z3KcWw3fSJviPJSxGr4dn5lb4ExT18/dxuQfeTB3Su0qVK4AQ0dgJC3dpn5i0n5I2C8JAIDKpmFpFraxYllDyevl4DFUhE0W+JJetcMsshfv4Eu6vFH5MLn4TCJBMppFxTBeZUt0lUDsG1exD8M9dheCMiYjq3B8xLS1I6pjEZDUAzZ58Ba0HTUCLFz/hef2AZm/NwwPPTkHbLiPRObwPItoRDoFGGGlg2kQ7IgiNUBphjD4ZBmM61BZXldSN5ALGX/bvAoYLGNWJILiD2jBk2wYZYxDvQGhiAjqkp6HVoGdx74hCBExgyX7yAbjN+JU6QtHkZ26Cz8wdqMdSfqO3PsY9NNLmI75A0+z18J26j+liJ9yy1sGX4AiYsB4NxqyD51iaOEv93rnb4Ze7jbAgHCQdTKIkURRuJyx2wKtwN+pSTQiRRtlb4D9xO5PJrvKBgVn7qQNMI1LFtVdpTPcmLHz4OVXhYaimHKKkeqp8u155OxCQewgBE4/BP/MYPMZznQlUnowuZ4LJ3wGfMUW464nZaOV4Fx2NLyGQQGj9VDaajfwIDccu4OdLUb9wK/yYchq//SNaD5iKwNjnEfZwCqJbG6CLskBLwErDd5iV5mlKhtbchcbuAsaN5ALGX/bvAoYLGNWJILiT2jC4D6O9Bwwy9YclETG8tsEDXkCr12ag/sS18Jh8EKqpx6GavBdeBRvgJ91dZ/8C9ykH4T2xBH45y1E3bw3887fS8AmXqQTLtIPwoiH75a5DnZw1cKfxuuVthHveJngwpbhNKIUqW3pCMSWIwdOUVZN2wDd/DwIK9tGkdyg3T/IqIBzyj8In/xjuosm3n7wdmumrkPb+1xj00Qy88lkm3p43EiM/HobX5z2HV74eiiHfvIrHvxyLvp/OQLe5P8I0tRTtCI/6E/cQNPsIjL08rl0IyNyE+u+uge9bi1Dv1W/RaPhXCBjxLRq8txj1c0rhTSh6zWSqmnoA7tP3En4b0Pr5bxFkHoXwh3sh8j690tYRq7MgiqANi7cjxpYKnbXrbU4Y1HWw+H8FDMV0byKBQG3kzOhvlZwBQ4FEpSogUVX/G8CgkV+na6Z/nUErqvp+9fr/BgzpXSQgqKluKzAEXvyeDTwmi9GBRJaQzelPI2RIJhqP+oYldaaDybto9ttRZ8I61M9cB4+8YzT8o5Q0LO+A2/StcJe2AZqxagbhMvdXlvald1TFtB6TCYQC6R5L2EwgQLJWwm3iar62jjDawnXKq6bqZm5D4/Es0WeVwjezBP7jSlF37EY0HbcR7fm5xMKv8crcHHz61RBsW5SIM0WhKFvxIC796IWrizxwaVV9HCu5B1vWBKFoeRK++ek55H05GkM+zEf87FnoNPMr3D+lCPfkbEKz0ZvQ8F2mHz6WMRnuU7fxHLbAc9IeeE05Ao85Rwk+AquA5/S+tHfsRusXFyHEOg7h7foh7EELIjsaERNrRZyVJm2jcScmQ51YPrOtkgRulyoBcb0qYSGimSvzNlHOoFCdajM3lCInYLiR/i4wIiqkEgO+mZwZ962UM+hUpxslCgUQ/9iga6/bDgyauDOj/7MqQSFy9v6N9W8Hho7HVXNVwKLKJH/VqbaTCYqun4zwRpLtqxNoNIl6hDriEcZrb7b1gMOawd9ydzw8aAgavjEJftlL4c+Sv2/BUcJCbmokvZ92UtLzaTslsBDJ8100WYKEiUFpYyBo3LKPERQH4JW1Af4TVxI8S+GVvRxukwmM97md97m97PVo/HoRHn76O7ToPwXtMsYgNOlNHtcoPJI8ES175iDsmTcwJLMPvpoXhd+K7kFZqT8urfXCkcUqnFhUj/C4C5eLffFbaQAOld6P37Y+jJ9LWuHAsvuxY+WD+GlhOt7+bCqCpq5FQNYW+I7eCI+xW+CduRF1JxJOlJ9MNZL7G1PTfi4l/VCf/YwGBFqbgR8hMOI5BHfqhuCwVATF8LvUdodD3xPxxhTEJVoRkmRS5pVS5nVyNjHgP5bMF1UOhz8lClGVkv8fk/xxGWmqDTT4GTF3Grszw/+n+jvAiKDCK6RyZuD/aV0PgZrKGSyuN+87EhhMDDWVpAtnJn8r9b8AjD+O7yaqBEalYd9Msp4zKFSnmm5bARdLwxq9FeG2JATxN6129ILF2hUmSzICU7qhVf9huH/odDR/ewXqZdPYJx8hCAQW0lAtyYDAqJTy/Drl7WTJfT/c8/fAk3DxK9xG8FybI6pO5io0HfEd7h0wBa26jEVgwquIihuEqNieCDV2IzB6IyjtcQSlPo2wpMfh6JGBV4bp8M3U1thPSJzdoMJv671wZk0DAqMxylZ54FypJ05srIMz23xxuaQOX/dF2ToVThU/iGImk8nfPIYhn42Fdvb38M1hWhp7XBlk6MPE452/sbw7b9ZuHh9hkb8a9d9ZhtaPf0wjfRu6R3pA246mHZmECG26Aox4NaVLQazNgiCHDpGWeBq5M7O/BZLt0tj/AgxnsFAM928C4zbJBYxq0sUfBn2dwd9q1Q4Y10BQMzk3+Vup/4/AcGrgTnQ7gaFJkOnL02BWZ0BjykBEcldEJ6UjLqErYixdEcKkEZLQF6GpzyNwYC7uefsHeMp4Bql+UgBxE8k6k7bCfUop3KcRENP3wnPmL3Cfehye2TtQ763FaDlwGkItLyM6sDvCgxyIiEqAOdiKqGgL2iZY0bYnjaJvEgzp6dBo+yAi/FFodT0w+AkDZua1xqZF9XF6WwDKNjYiGBpSnri41h2n1nnheAnBwdcuLbsXZevrECQ+OLnKF1fXuGPX6s7IXfgKoucsRcOcvfDJ2g9PGY0+ZTUT1HKCYie88jag4Ztf4aGksYgKfxaJ7Xsh7SErHO10MESaoTYlI1bPax6XDKM+GWpzPCKsJkRzeduAIaKx1xQYfzth3Ca5gOECxj+WCxg31m0FRjyBEd8FZlsvnnsaNElmvq6lERoV0wiLT0Ss1QiDxQhtWi90eu5dNB3/BTxlPINUPzmDxJ8k62yiFsMzb40y2Z/HtF+Utg+/lxagQ2omTCGPwdGC+2gRDFNQJCwmK6GVjGBHIjpbDQg2qBGlMzAFOaA19kacsT+PqSd/ywlI7RaLl4d3QOnCZjhTfB+uLm2BsmU+hIYKF5e749fFnjhZVA+XNzB97CZISt1wfqEbylZL2vDD9qJm+OnbNnj2kzfQduZ2NMk+CN+8jVDNXAXVpzvQ4q0F/H7fQ2RwL6jb2WDroIcjKBbmqGjEGrU8TgdC45MQymPTm1NhNnKptyFWzNGZ0d8q0dhdwPgvygWM6uTc5G+lXMC4sW43MPS2LrCZe8JiS4U+3gSdLg6aOD3iNDQ+Szz0hjjY4sJgNpgQ1esJtHqtED4TZFzEzipguLHccrfCK3sdvAq2wLtwJwLGrcM9gz/FI8YRiG6XBst9MbDdH4TYDhGItDoQ8tjTaPP8O2j7zGgE9X0V4ea+iA4yIbZ9OOLCtDSRFIQk9kFwfE+EsVSfkKjDG68FYv6HbXF4WQtcWeuLsuUqXP1JhXOExrlVXji/2hu/r3XD2WIVLlGn+fjMShUuFKlwtkSF4pUdMfabl6GfvAxNJmyHz7i1uOeNjxGT+CZSWvSGqZ0V2kANtGGxTBMxNLEYhBCs4akOBDkomrg+Pg3x5mRYdYmIo+m6gOFcLmD8C4FRCYKaypnJ30q5gHFj3faEYUuHlaV2rX0gwro+huCUfgi190dE4gBEpz4Ktb07tHJva2svBPd7ES1fn05glBAGNQBG7ja45+2C36RjylQc/hPW4IGnZyE0dggMzfQwNgmEplUowqIsaGfvh/ufHIkm78xGw/HLcG9mKdqOXEZoFCBMzeNpG4mIDsEIijCig6E7Ohr7IULTk3CTLqw2DB4WgU8/boX9KxrhwgpvlC1RoYxwuMy0ceYHFY7/6I6TxW64sF2F30rccHq5B66u9MbVbQTMFhWOMW289/lr0OYtRavnixCtfRa2u21w1NMhoYMNhmgaHSHa2WBGoMWMzvE2hNkdCLYlIoRg1SYQFjaKBu4Cxo3lAsa/ERg0ZWfG/d+SCxg31u0EhjY+GZrEHohJfQ1thkxGwNh58J/4LRqM+wLN3/wQbUbMwSPPz0arp+fg7qGfIWDCT/D5oFQZkV2zNoytXHcPvOeeRsMJO3D/4DlorX8CnVvGQduoA5JbaJhg+qHNE++g3psz4JX5Pbxy1sNDBtvlnUDTvCNo+d5aPDJkLtp3eR2Bmr4IDExAYDs9QjuZoYtJg9naB2HW7ggmNBw9IzFpUiA2LWmKSxsJjDXuuLLADZfmu+PiWn+cKfXBKULkwlomjZK6uFjaDBdXNUUZU8nFUk/sWvMACue9ip4vfIGEB7rDEBAB40NxSAzsBmv0Y4jTPYZAfV8Em/sh2tKHUOmCyDgamtpCM4zntbfzekrXV+lq6sTob5Vo7C5g/BflAsZ/Vy5g3Fi3Gxhx9p4IyXgH9wyfB7f8Uqhm0+CnbUHDnNVolrkSTd8rQcBbm+Hz7g64yYR+H8lo6h1KenAKiariOjKi2nfabtQb8R2aJL2ONp2SENpKi9jONLvkYej43HQ0G70IvtklcJObKsn045N/h0f+UfhxG40mbkbj8ZvQ5K0S3DfkG3RIHomoMAc0D0cjrq0ZMaE9Eat9FJ2iU9AxzoC0x214OysY33x5L/avao7zawJQttKDUKiLS6t8cHaFG86t9MHF4rq4XFwflxfWw8WFDXGhqAEuExr7lwVhduEgaB1D0V77OMITpPprODqnvIeOPTLRqvs4dOozHlE930GkeRCiI5N5DCZERBsQYbYi0kEDlwGQLmA4lQsY/1pg0BxrrL+a/K2UCxg31m0FhtzDwdELHfuOQpNXPod79nq4Tz6AOvl70CBnI+pP2qiMivaYcBhuMrWGdKtVpiivYS+pvB3w4HYCxnwP/0ETUNf0FFqH9UKw/mkE9svEve98jQAmChnzUGfCfnhNOQS3uUcUaLgVbIJH1nL4ZJbCc5Lcp/s8U8cZtHh1GcK6vYXYyHSEtk5gWkmDIbg/NBF8Hm1DkLkLYnpZ0HdkND760oI9pR1xaVNdQsMPZcu9cHmFF35fXhdnV/H5KneULXbHhQWNcXbh/biyyhdlpSrsWvYgkqaMxENvT0bLF/PQ6LkZaESgNn3jezR840c88PaP6PTqZwjq9iYiY3ohroMJ0Z3UCFObEJJIw3YB44ZyAeNfCAyBgDNjvZFuNzRcwLixbicwdNYkRKX2QYvhExAw7gv45ixHvexNqJ+zDf752+A5hwnhQyaL2TvhMUlmnC2FW9ZaqHLKB+TdVJN2wjuzGM2HFqJF19fxYPxreKjnBDzw8udokl0Mv3y5/epuuGfuorbBY+IWeOZvhfv07XCbIvtYB7eJ3OfEjYQV18k5xu0dQ/03NuP+xz9Gp8SXEBXaFepW6bC16wp7RBridIno4NAQSFb0ePllfPBBLxwvbs30QBiUeOPKGn+cLvLEuSJfXFldj4Cog6uldXFlJaGykElklQq/b6qPecVWOOblwitvLdwLlsNjSjE8p/MYZ+6G3/u70LhgNVo/OxmhxiehbWOFnqkpKsyCYIsDUTK4zpnR3yrR2F3A+C/q7wJD9O8FRs1N904BhpitmPPtBQY/cx0QbqZ/LzAciOwyAM1Hfoh6OYvhN6kIdSdtRp2Cg/CU+aPeP8DSPkExeS38J6xiaX81VFkyrbgM2rsODpI4KlX5WsEu+I9ehbAu77Hk/xKap09A41cXoF7+LvjM/hlyBz2VMr35RnjkbYRX7kZ4566Hb/5aGrVAgu9nHy6/P4bcYImQUeVtUO7CV2/8etwzYjEe6ZuHiE4OOFqY0K1NF5geTkb7SCvus6eic4+38E7uEOxaG4HzBMOVEnecX1WHwPDH+RV8vtIXF0p9cHqDJ05t8MKlEqm+8sGlIj8cXd8ZmT8OR+DM+QiYLbCQ8SQy9clRqOYcgu/Udbj/lQ8QYhkKY4tE2B40IqZzAgL1KYrxOjX6WyXZfg2B4Rq4dxtUFRhKaqiFZAoFBRYVxu1Mzkz+VknmqRII1FRGx52VMAQWNwNGuZFXmK4YtEiBxs2lpwxc//rtlb92Tcr2K3QrgFEON+cSYIip11TOoFCdZO6pSilwqhS3Va4URQKM6JR+aP38ZDR7ex4ajvsWAdkl8Cs4RHM8yVL+zzTorfDIWomA8SvgJ72jZLoMZRS3wEGWFVVU10m608rgtwYjl8ES+QKiI55Hk74z4DtuAzymExbTf4Gb3Hkvex3c89fBewphUbgJ3kwV/jkr4D1hHeF0iOucJkx+JUC28vFCbvN7uE3j+zN3wXfGSTR8ax2CI+1w3BeOjGYOmBp0RVC7VLSxpKNT8hC8mdULu4tDca6kHi7I+IsiL5wpCsAlAYZ0q+Vrv5Wq8MsWL1zYdReurmLq+N6HSaMVSn+yYMRHL6HN9KXwYxLyy9xHyB2Batp+eBaWotnIzxAYPwz65gmw3xsPTSc7OmuTFON1avS3QjR0BRCVoKjU9cCohEYtE0aUM2CIyd9CCQRqozsWGH+AoGpqcCLFpJ3ImaH/HTmDzo1VAQOC4Hr9xYQrVA6A2si52d9IlRCoqaoep7PjvV6KqYsxc1mdKtcxCDScKk2R3i5KVaSTyQEVOYeDM10PDAUMVWabvV63bzLBcml4HpXSihJlkkFCQkZ2Vyo+mRJwOBBnMyEitQs6D3gRbYbNwN1vL0X9zO3wzT0Ar0Ka45RdFJMGTV01We6zLea9Xbmfhbv0hJL7Wci8UQUylcZmPt8ET6YG3+xtaPbi94h5uAuiA/uhVf+ZqDuqWJnI0K1wC7ymbCYoyu+W5569FV7ymZx1yk2TZKJCN77mkbNHuZWrW85OJgxunwnIbfIO+LC07zvlMBq+vgwhnbrCdm8M7A9ZEfdgCqIieG7JDqR1ScacrECcWl2PaaIBLqzyw5m1bri0xhNXV3ugbLUbrqzhc3mN6eNqqTfK+F5ZkTuXUmXlh+ULQhE47Uumq2Oon3UCHlOPQTWXiWd2KRpkzsNDyc8gvJkeCY0csLZLgFpnrjB1Kf1LEri1cgYIZ/oDGorkeU0lx/5nYEQZ4/+iSIOtiuS5c7N3JgFArVR18kFnBv6f1p+AcV0Vk5jyn6t0nJv8rdT1+6xONYZFZSldlmK6fP126UYQuBWqBEZVg65WXFfgYKyiqrD4EzASBRhisrcYGH+U7GnilDOTv5XSOK5Ja5e76lUAg7oGi3JgaGyJCLdEIcxuQFjXXgjq9yI6DBqHNk9PQYuhH+GeEd+i4ehl8MmW7rRMD3J/bjF8gYUiAiOXsFDubbGJwNhEYDAtTFiPuhO24J6h3yD8IRpFYE888thsBIwuUdpD3ArWwaOglLDYAo98gcJueGdvUW6/6jZJRpITGDkb4cnte+Ts4GPuN1v2vRvuhfvgW0hgFOxDo1d/QkSn7gSGFrbWNsLJjvBQB8yJiXhukB4LZ96PKyUqQsCfwPBRBupdWStdbt3+KqYNZUmAlK0pH8exf8V96PnpNLTg+TXI3An/vPU8hwVo/swsBHcfjbiwvjDcZ4GlTXfExaQgNN6EKCUJXKsyupVSkgWN/fbp5sAoB4SNBk5YKOJzmnlNJKZfmRZqKvlM5efveGD81aCdm/yt1O0ChiIFFv9/gXE9LP4EDOp/Ahg8hz+gUQGLa8CohEUy9FRcYhI6pdjRqUsSQtLSEJnCNMBzikrohrCkAQjs9TJaDilAo5EL4MvU4S43IMrbRUhcB4w8Kf0TGJR7zib4Zm1giXwrmg/9FhGtHYgI6o2HB76PgLGEROF2gmcDAbAKKmnUztsJn6kHlZsheebI80pgMKlwHx5MFwow5N7gk+R2rLsJiz3wzd+rtIlEB3VDfHMjrA8lIa6tDUEd7DDo7Rj3dhQ2zL8XZRuYGFZ64OJqd5wvYapQgFADESzHV96N7PnDYZowE82en4vmw2ejTd/3EB47GI6He6NLy1Q42iXDENsfobZ0dHKYEan0knJu+P9UNUkX/0w1B8YfcgHDBYx/ojsVGM5hUQ6K/zVgqB1y+9VrsFCAQVjI2ItrCaP8eRwl05xr4q3QmtVQa0MRrQ5CmCEGgUld8cijr6P5sHlo+M4m+GUegXuulPSlOkrMfCsBQWBI24Yyb9QmpYG6TuYGlsi34P6h3yGqXQoiQvuh1cDZqDu6mIZPYEzhuhNXQpW5VgGP78wj8JpCEMm9uvPW/QEMDwGTMpU69ynTqSvA2EVg7IIfQdPkpe8QG5xOYFhhfqgr1O0tCH7YgQS9A5/Mao8jpU1QttGXwHDH1TUeuLLek8lBqpycAOJ6ERgni+piwVfhGDgoAY90SEeQ9jECoRtiaF6xUQ5oo/m7UfM3Gded0HDwsQGxRhptxf0pbrVcwHBi4P9puYBxa3XnAePPkKjUH6CQqigpfSv69wNDQFGpa8BIhqYqMGxJ0Npk6YDOnACjJQEWymq0wKwzQE/FWu0I7voY2jw5Ck1fn4e6maXwnrQHbnKvC6VhuxwYHtkVt1zN3aSYvNfETag7fgMajt+CBwiM6E5piIh4FC0HzoLvO0wVUrU1QxrFSwiNErjx857TD8J9igwIFGAwYeRuVLbpkctUowBDpiLh+/k74FG4E348Br/srWgy7CvEBKbAcq8FhpYZiHnEjNj2Seif7MCK7+7D6a1+KCv1IjAIAFlu4vNiD+eA+ItUuLTGC4eWN8V7T7ZBcPNQdAw0IEIbC50lgmC10DAdCLWkINREIJsSYTXboFbaGZwb/j+VCxhODPw/LRcwbq1qCwzl+GqkvwEMEQFwDRJVVQmLCmBI/T6X/3vAkATxZ2DIoD1FVpaKaQpGayp/N31gSn4C+rRnEZsxHGF9R6L9kAlo/voc+Gf+CI/JxTR6adyWnlAysWA5MDxp+O7ZmxVYSHWU14RrwJCEEd4xBeFRj+KhwXMIDKYKmVpkJj8/XaZKl6opbnPynvLXFWBs5JIAYnJxF2Aos95KuuBnpNqqcAf8c7egTtZGNHluHqI7OmC81wR1i3SEPmhEYpgD7zyZgB3LGuLyVhWThUoZX1G2zgdlW+qgrKSmwKBKmEY2++GjN1vCGhiN9mE6dDJGIMYeAo3JrJhssMWOwPhERCQlQJPM5KHc39u54f9TuYDhxMD/03IB49aqNsD4AwaVx1cDVTXnGqkCGH9AooquJYtr+l8ChroCFgow4pOgqQSFIqYLgkLmYzIkP4Povm+j05BCPPjyx2jy1jeoP/pH+GcthV/eGnhLI/VkGrhUJxVQYt4EhjRKe03cAo+J14DhyYQhVVIBmVuVRu+ObeIREtkf7Z77FPXHr1O2Ibd19SR8PAoJC26jfCp0AQVTx6RKYHCb3IebAgtJFwKM7fAisPxzNqLO+FI0GfIpgZEMQ3MDIu9PRocmWvQxWfBZpg7HV9bHlXUqXCYspDqqbB0TxgbvmldJiYqpdW5YltkJw+K7w2TsjfYOOx7K0KF9ShKi41NgoombmNLCrXp0tKkRodwPw7nh/1O5gOHEwP/TcgHj1qrWwKgCg5up1umC5u0MFH+uhqoABROGon81MORWoZRdGrSvwUKdkAR1VWAwWWhZMo6xd0Pb/iPx4LOT0fzVz3DXe0tp9OtQJ3srfGjU3gW74DVlDzym7oPb1INwm3KAwBADL6+S8lS6w24hJMqB4ZZLaGRvgnfWBtSZuBWNX/gaD7c0IziiHwJf/BLNCBqfqTIf1UbCYj3c86XBnNuTcR1ynw0FGFK9xdeVqi5JMwILirBwL9zGY9qCuhPXwX/0WjR9+iOoO/G6NzcipHki2jaIxdCMKKz7tBPOrPTD1bUqXJF0UeKNK6VeuCzdZ2va6C2SGW8JnZUfxuCN516iRwxHoK4fOkU7EB6Riqhomqqe6SbRzuttQ4zFVDFewrnh/1O5gOHEwP/TcgHj1urvAEMBQU11nUFXLyewoP6ohvoTLJLL9a8HRjksrgEjCXGERVVgaAgMabsITe2DOq/NgiprCdNBKXwIiDoFB+A/6WD5HE+T9tOgD8J98hEC42cC4ziNe9dfgOEhVVKEhdLwrUBjAzxztyLgpW/R4ZEEhET0R8fn56F5/i74T9vL9QiH7LXKmA33fAJEAcYGLku5bcKC21Zx27IPJV0IpAgL9ylb4V24GfUmlML/3SLcNXgOdIEZ0DW3oDOB0fmeOIx+uj2OL22Gyysr2i5We+FqqS8uFnvigpI2roNCdSIwLgowfjRhRG4mogdNRDvTWwjrPATG9v0R08mKwMhohFsSYbIlI5GmrlaM3bnh/1O5gOHEwP/TcgHj1qq2wKg9BGojAoNw+DMsnCWLClj8jwEjrgIW14DhUGChAINmEJraH/4jP6dB08CVqqIDcJ8hk/3tZ2le7sdd3obgkbcHnjkH4UG55e9UgCG9m7wqgCFtGAosKrrWSi8nMf6AkT9AF9cfUbEDcV/fKWg4phR+BTI31Ua4Za3h9jbCs2APwSApYyM/VwmMrQowFHDwGJRqsMkCjC2E2kbUz1qLum8vQ7PHZ0LHhKG5Jx4hD6bBHGLCjHcewtkST1wtYrJYXhdXVzbGhRJvnBfzry0w1nD91SpsIjDGzMlDYOZXqP/mYjQd9h1Cek9UekdZWoXA2koPQ2AC4mJp7AYau6uXlFP9TwFDgca/DhhUbYAhpfn/b8CohMUNq6EqQCGNwf/LwKgCi8qEEU5gNHrtM/hklcA7dzMNeT9UUw/TnA+UVwMRAjKQzoOJwItQ8aTBK/f0FpDkbIe3AoyKrrUyFiOfsKChq/IJoIJNaDR6Mbp3fQNxcUPgbR4Nj2ELuZ/t8J22Cz5MEz65W+Cdvxdu2QSCAKOAn8uvAIUAQ6qkKhOGAGMqE8ZkJoyJpagzagWaDJoJTQcHYpvyXFr1RW9HKr4qaKNUI8mtWssWN8OVpa1xeq0PzsmgPWnwXlvzNoyr/Mz5zW5Yu0yNtz4ejw5TfmLC2cvz3osHhn2ICEtf2FoGw3aPEbGBXRBs6oFIUxLNneb7h5ybv6JaguWOA8b/wsA9SxU5e9+cSiBUkZIsKvTfnhtKJNOMmJkcrpeSJpxI5odybsaVKk8W12Bxe4Hh7FhupEpgiOneHl1LGNdXQ/0BDAFFpeQ5P1MOA1neXLKfOwoYhF45LKgKWFQCQ10FGFpzIiKT++CBoSz5j/oJdTNL4CWzx+buY4lfxkRIt1Yx9bXwzV0N70kr4F6wshwKFfNFeTFZyLgLab9QGqsVYFD58ngLmk9YgbdfHYP+3R9DM/NjqNc1Bw1enI8mBFRAzgb4S5tGviQMGWfBbTKdeOZt4XFINRe3K6mlkJpKIFFeBFE9uU/Ha/Nx95DP0bJLDiIfciCSwDB07o1XnkrGik8ewZUNYvgExpJmuLSoDU6u9MW5Ur4mDd81BYZMHVKqwum97lhaGo3h80bj4cLlPIYTBOdvaDzsU3SyDoCuVSQM91sREd4dgY5+iLKmIpYgqJRAodzoxYyvqXJupUqoXAPMTURjdz6tx41UdZqQ6lS5bvlx/VmEBUHxF2DwcQSBIaZeYzmBwo1UPjWIAKlctxwYAgmrop7KUtLDn/VXQFw/J1SlnJn57Zbs15xMQCjqSlBQXJq4NCWl/0lGmq3oGhj+rD8b+X8GFrLfayBzDolKlcMivdaT/dVGykSFCjTKpZi5YuiEB1Vu6AKNCvG5hu/XVAKX8u3fOcBQ8zzUhJ8i25+lqSpCI8bRHR0GjUSz1z+E3/iV8MrcCp+xG+A7rgg+OYtRf+Iy3DV2Ne5+rwT1skuhmkYVSHUTxdThJvM+5cktW0XSJXYDn29R5otS5exH+8IirPh8IE08GK+98QgSOsYivENvdOw6Hs3eXgV/rudVuBNu034mMA7DY+w2pdG9UWYpArKL4TG5CKrZK6CaS1DNWIuAd+ejTd9JCI18HtY2Q5DQfAjaB3RlukhA/xQtpo8PxJaF9+LSDj+UbXNnovDChWW+OLvUHRdl6g+BRm0avSWVbFVh7SYdXlo4GfcK2DKvwHfMb3jw8Q8RGvsktPebob5Pj6hgK8JthLONvw1bF0Xa+DTEWZIV0w3XmWl+ZkSZrDR+C8J0egSrtYrpVoKgJorius4mDnSuChhcNwvszUVI/Onxn3X93FDOzN6Zrp8b6uYSUFTCyXb7gGGrAEZlVdMfVU4Ciopqp8qqJ2fG/d+SAoyUClhUkXNglI9evt0QqI2qAsNZ9VhVWCiJp8LUnZn9rVJtEoBi6kwizuDgTHciMDS2mkpSSBdEpvZDYN+heOTJd9H+iSxqIh55ajxaPPsOHh70GgJ7vo7APlm4/+WPUSdnOTzyN8M9f1vFcj3cJwk0KiSTBkrVVg6BMXE/2hWswoovh+D4qo5Y+YM/ZjxVH8+bg2AwDMBdXbNR97lCBIyei7rZ++DN9T0nrEed3N2oO/kg/KYfhveMw6ifvQP3jliGVo9PQ+ek4YiO6obo1gmIa54GY8vuSAy3YnD3KEx6h/v4ojmOrQ3Axc3euLzeDZeZEi4t9cJlQuNKkQ9TgydBUJtutYTMZhVWF+kx9OMC3D9+HcF6GE1HrcNDXcciLJj/2xZamB42QRuTgpjEHoi1pDFZpHBJcNtSEWdNJhAS/wSMGAsTicGAUK2ORkhgOAGDM0kKcA6GG0mmCK8Kglsr2XZtgCESEFStpqpeVdPMHQKM/1aacKZrCePfCwwBwo3aU6rC4o4EBp//64HBhOEcEH+VmmampgnpTGZYLHokmYxw2Bww21MRZbchWh0JdXAoojVpaDPoPZb+F8Avbwd88vfDd9Ju+EzaBq9Jm5X7WbgrsNiojJ9Q2h8m7kLLvDX46INROLo2Gid3e+HIQm98ndkSz/TRIkTnQAsCq8WAZ3HPC9+hwXtLub0lcJ96GG4zTsB7yi9oMO4oWj9ZiijzbFg6PgZzax3Uj4QjLFDD0n087GkWjH21A76c3AIl3zTH8eIAnNvgjUulKlxaznSwmJBYXB9lKxqgbGUAylbVIQhqMXBPgLFOhZIfQvB6wTAEvjEV974xDy2HT0ebhEGICDbA2jEKCWE2GIx9EG3na4ZURGjF7BKVKqk4axLh4aDZ0/SMki5siLXGK9CIYtKQ9OEMDs70d4Dx9xJGzVTbhCFyAeMW6n8dGFVh4QLG7RBBUAtgxFFhTBrRViMsxnCkaTsjzRCOBEsM4ixhiIrtiPCIUHRI7I2mLxfCe2op6uftQ0D2IQTk7EfdnF3wZZqQNgcZtKe0ZSjAoLK24/6CNcj7Jgd7SzW4so1GvuI+HP/pbqz6uB4mvtAEPUx6BAc9jYcSnsPdz4xCwPiP4Jldijqj1+LuZ+ehvX0cYjoPhLmVBcZ2sQgJNOOR0GREsJT+xNNhmDv5QWz6oT6OrfbB7+u8mCw8cHWTNFZTy/j4pzoUQbGiIcpKG6FsIx8XS8ogCJwBoqqk6moVt7NYhePLGuKLLzvB8bQNbVIeRWvHYARJJwKdHpZYHUw6C6K16QhU90Kw2o5QtZWJIkFpv9DElw+aLG+3sBES5cCItdr4PqHM153BwZlcwKgw+lslFzD+u6oEhjM5g4ULGLdaBEFtgWFNRaQlGTqWdBM0BjjUsbBpY6A1aRDF0nHn5Kfw4OM5qDt6Adymb0Od7H2ol3kA/hP2wZcpwitb7t29jbDYUg6LSk3ciqYFazHk86lYtcJSPjXH2ka4WBSAXxf4YttH/vj09U54PplmGpSKVokD8MBzwwmKkXio31sIs78Ii4b/a5bio9vFoFMHB404BUm9zXjj7fb47sP7cXBFE5zb6IUrm1W4ul7aKCokI7SLPHF1iQ9Thi+uyj28NzFdbOeyNlODrHbD5WUqnF3phR0/1cW0rKYYMjgYDkciItQJCCMoYqwypbkYWyrCtV0QEmdDqMbK54lKu1F55wqplqIB0vQEGjFcP5qwiGLiEEN3BgdncgGjwuhvlVzA+O/qRsC41mZxDRQKLGiwzkz+VsoFjBtLqqTKu2xmIM7YHxptL2jjkqDVJiAuoScie76Njs/Mw91vFsNPRnPnb4HnhJ3wzNwNj6zdcJ8oU4/LGArpFrsNcoc+kTLlOZ/Xm1QK3cwP8eG3qbi6hoZd6o4LS+rizLdNcbmoAX5ecDcW5LTH0EQdbAY7wpId6BxvVap0jDFJcJgTYLDwdWMaDbcfHn0sEdOy22Lzgjo4VeqPKxuYGjYQAqVMDXJTpJVMBBVjLZTZaVe5KyO9LxercGkjtYXvMX04hYMTyXYurVXhArd9Zrknfv7JDUUzmiHzhVA4LCaEauPR2ZqAIEsS4ZrMVOZAmMZCcFiV6ijpmSc99NQ2vm+U3kQCiHgCg2ZokBRi5nNXldSN5QJGtfq3A0N0PTSub7P4s7k6N/lbKRcwqpF0rzXqoecfWWfsiShTfxpgP3R0PI7A3iMR+NynaDtqPZrm7IavDO7LXqkkCbdcgiJPBvBRMpCvoGKZv4NQ2Q6PvO3wpOrkbcC9ed/ivXn9cWZlI1xdS1Nnwri86B6co+n/uswbB4vqYvc392HK8yHoEmFHTPhAhMamIFgXg/ZaO4LMfdCld29MGx+D0i9b4NflDXB+UX2cWeaLk6u9cXlFALfZgMCoh7JVnrhS5IaLK1S4SHhcll5OTB4XqBN8/OtqmYHWORycSYBxmZ+5UupGOHngEpPG7yt8sf7bhsh642GkJxkREpmBMFMqQuMTEWyxIERrpClaEGe1K7CQSS1jCb1wHUFIYMjUIQIWMVuBi/Q6cgYHZ3IBo8Lob5VcwPjvS4ChQKJSN4BFubk6N/lbKRcwbix1vHStNUMXb4bRloyw1EfRov+raPhcPpq89g3uGV2Ke3J2oe7UnfCYug6qwtVwL9ykzOnkNpmpQqYkn0JQTNkF1eTditwID69JO+CbR+Vuhk/uMjzxyTBsW94aF4q9ae5+uLS4AQHiiRMs9Z/YzlJ8qR92TW+G2U+Fol+XPlBb0hFpVsPWVYOhL8Ti08JA7P2xKS6u8UVZsReuLvfH+SJfnFstvZ+aMFk0o8E3pPxwZaU7LhZJKiAcaPSXaPTn1nnhN8LllxVeuLS6Fr2kuO7VlYTSWk+cZzr6vdgDv3GbR5he1n3VEB+MCcQLfRJgNiSjg9aCNsY4BOn0NDqz0j4hY1/iCOXybrUyHXq80gguvwNp34jQJSiG7gwOzuQCRoXR3yq5gPHf1/WgcJ4syo1W5Mzkb6VcwLixYhOTEdqFBuawwhxvQ2ivx9Ds5TyoJhRBlbcf3nlHUGfSHnhM2wLVTIJi+kb4FK6DT8F6eAk4pmyFmwINAmNKBTAKd1UAYzs/L1VUJbB/lIsvliTQbOvjKkv/FxZ74/xWT/y+xx2/blMRHjTxxV749YsmmDY2BkOeMmLwwGhkvdMWa+Y1xEWZYbbUA1dp2JdWe+CszAtV4o2rJTJdeWOUraVWB+DqagJjtRcN3l25T/dFfuZCqRfOFfvh1Or6OLWqPq7IfbudwcGZpBvuyvoEkB9+X6XC4VIVDlA/83guE3K/L7obyws6YWhvNXQ2NTpZYxBuMtLczDRSE81aqqDKza68OipRqQbUJnThMpUQcPwFCtXJBYwKo79VcgHjv61awEJMlcvyEdPOzf5WyAWMG0lGgqciXL4jfSLiNTSBbk+i+Wsz4TlpM9wmnYDHhBPwHi9zSO2CR/4u+E3ahoaZRWg4fhnqZ66C78QSeOaUD9aT6cfLq6V2wp3yJDTkjnmq7E0Imb0co37IxPY1zZUBdFeZLq5sDsCpjXUIERUublKhbAPTwCpPHP22LrZ+0RAbvm2CvUsb4yRNvmytP4HBBLG5Pi7t8MKJLe44uc6N0GACWOeJq0wAV1Z44PIKLpk6rpbWpZhk+PoFSRwrffm4Ea6UNuW2vAiDGvSSUtaRtpEGPGZ/nC5W4fcNhNs2Qmsrk85awq+oLk4sroPVhFrWO4Ho1ctGX2Fqs9gQpjUgRKNnshBwSAO3VD2Vz2QbZ0mhZES4NIZLAqlZynABo8Lob5XKgdGzAhjUvxEY/+KBe6LqgKGY6Z8MVWAhcm72t0K3Hxg13/6dljDibEmIsMZDo7ZAr0lCUK8huG9kPuoWLGVC2AXPiT/DbeIJpoef4TttHxrlrcPdb/2AZiO+Q8ORP8H/nWXwGr0KbuNKmUpkDIYkCoKDsJC2DBUho8o5grvyDyHjo3koXdmWhk4jXsp0sLouLlBnV9fBhQ3+uLjRi4mAyWBtXYLDD5dZur+6zhtl1JViX5xeUxfnCYErG71xrtQX55kkLhWpmDhUSsP21SI3XGESuMpEUEbIXF3lo1RPXeY6V1ZJzyimkeJ6NPqa95K6wnVPl/rj7Hqf8rEdMl16EbezjPCStpNSH1zerMJvJW7Y/FUzfDg+Ej36pSPKmoLOcToERschVKtXekUJKGRsRrgmHhE6MX+Zc4rAUGBQFRjyuFJVYUGTpgQCzuHgTGLqfzX6W6X/mYTxhyohUVV3NDAEFuXAKIdEFdGIK6cDuTYtCE2KS2fGfesk26+FKiFRVU7MVJGY7v9Ewrim8u07n3pEzNy50d8q/RUK1Unq2GPMBsRpTIjVpyKw55No+cq7aDZhNhplL4S/zBeVdxA+cv/scSvQ6pVP8fDAQrTuPwn3D56OpkM/hf/rC+Axei1U4zcRGgSGzDRbuAXuBZvhyc9555yAV9bvCCxcgs8WJeD48qa4uIBGu8QDV5fXpak3wfk1jXF2ra9S1XSm9C5cEMNfRgjQoKWbrJj1bytVOL2CRl7EUv8KJojlvri8zA0Xl6pwWSYaFChIGllOM18SgCtLCKXl0nPKnSlB3qdkBtvVfwXDjXSp2B2/bvTAyY3uSsN3GZNR2Q8ExdfNcHVJPVxZT2htV+Esj6+sxAtHf7gXo98yo3u/RJjtOoTGaRAcZ0SkMR6xvNYR5kQEa61MHhZE6xKgMcn4jCQaO2GigIAy8rHIICo3ZTHnGL4WY0xG1B/rOgPE9aKxC2iqmLwzyT7+rmoPDEKgForQS3VeuWoEjL/OB3UzOYeDM/0ngOFsAsMb62ZzMAkorj2W0rxzk79Vku1Lkrl2m9PqpBfRpKsadFWJeSuGWkXOTP5W6vYDo2I23ApVneTw+skN5TapYurOzd65JJXUXM7B4EzqiqXe2gVGPb8/bToTR1+E9BmGR17Kwn2ZH6LZxC9x9zuf4qGBE9HZ8AJiO/SBvlMGdCFdEKPvjeDeb6D5a/PgM3ELk8hhpon9UBVsgWp2KXwLitGYyeNegqRu5jE0zt+H7p9Owkff63FkmbfSW+nymnq4UNS0PBmsoCkzJch9tC+yZH+hWIULNOLLlMwae0kmA5T7Wyj3uHBX2jXO8nW5o14ZP1e2gma+jKX/pTT0pQ0IDi6VtOGnQEOmO1emPK8FMORmSxeK3XCanzu9XKBRl4mnIV9vgAvLCAtC7CqPT+7sd4XrnS/ywuFl9bH44zYYP1KDJLsDQRGJ6BhtRlQSDTbdgZCUBIRZ9TCZTHDQ/GPMGQg1p1AEiYjJI0SfQbB0RZDGTriYEKmNh1rXHVpD/3JoKGmjvIrq5pJ1r5MzWDgt4VcvSQvOoHBjEQCSFqrMD1Wd/oCFTlJZDScfFAhcX7V0I1VCQiYVvB4OzvSfAoazqcmdqRIY1Q2AqypZz7nR3yoJlGgmTAHXw8GZlLvb0USrGnR1EjN3ZvK3UrcXGOWA+DMwqs6GKw2c1/R3gfGnY6xGtQMGj8mWClN8BizmdJgN/N6MGYhwPIb2fV/EA8+OQvMXxqHFk+8gMOVZxEX2gqlDImIj9NBHGGGM64agnm/i/lc/Rz2ZtTb/IFRT9kE1bQs8p66HX04p6meWoGFeMXxzdsMr+xBaTFmJF798BetXdsA56TFFMFykqZ9a3gjnl9HgV9TB1WI/XC4hUKThmoZ8RdLDCumO64crq1iqX0MIlNRj6vAnUHy4vpi7gIBJYhWhscqHzwmJYmkQlyX3I+Yv26olMGRm26tMPRe53fNFnrhS4otL3Ob51T44t5xwk33KGBCmj8s8hktyHFuYSIoDUDrvIUx6Mwq9Mmw0fTs6GE0IccQgLjWSkNAjVpOMGHUPRGi70UhTmAZojBYtwk0ahBqMCNMl0SS7I0rXm2mkG6Ehz2XW2Jq1d9xIToFxHQhqqr8NjBqqKixuKzBqqjsVGDXVfwwYNVQ5MP5s0NXp3w8MZwnj3wIMLpl69Dwmoy0JRovcIyMZkdau6JTYG60cA9Ey+Um0SRqMIPuj/Ewv6Ln9wDQamiOJJeYX0WLwLDQZuQj1Jpbf81s1cxvcp2+Ft9xcSe6Tkb8Zqhky3flmuI3fBr+J22H/8Au8v+gp7F/5IFMCS+U05F9W342TK+6joTdjiZ3pQIxeqn+WEhSLadpLvHB5eT0adyNcKr6L69xFk25KNaIIiFKuV8r1JI1USkr9lPKYaUXaTpTbtToDw40kU6GXEDiyjxIvXCUgzi1V4dQiph8ZFLiOwNpQBxfXEHyrPRWYXNpQF1fXe+P8Km/s/v5uzJoQiv4DzARCLMK0naE1BTMpxCNI3QcPRw9AcGwKorUOaJg2tFYd1JYQxJgCEa3XIVbfA3H6pxBteBQhBjM6G0MQabTQ+GvXu6qqXMCoIhcwbrVcwKhO/2ZgiMrbMCyItZiYNqww2BIIDQeNKhkRcakIiaU0qQgnSGIcfD3FipCkSLTt3RvNnytAwNsr4Zu5CR4yU23BGqaMUnjnEhR5e+A2dS9Us6nph5TGcI+xa9EgcyNa5myBY9Z3+OzHXthZfD9+3aLC+e2eTBx34fTiB3BphR+urqJZK20STBwy1mINS/k05QtruVzrTQBIA3YzmngLmjmXhMyV0jpKV1qpyjq/lmJpv1IXqIuUpIBa3XFP0oi0m6zxKocGn1+QqUKWu+MyQXF1Y30eUz38utAXp1fxODY9REDVw2WC5QLXPVPqheMldVH05b0YOSQIiXFWhAZm8HvtgXB7b3QydEeozoxYmqnB3BU2WxqsViP0JpnwMQhhMbEESgITRyoi7A5EJdsQbXEljGrlAsaN5QLGzeUCxo0lg8rCTEZEmPV8bGLSsMJKQ4o3OGDTpMAUx+PW2BFrsiIyQY+IRA1Lv2Y8NHA4QfEtvAr3wr3gAMpvzyo3WiqFv4wElzvkTdtKSY+p46ibuxONs1eh/rgS+I/ZheYTtsE+9yNMWdQN+zc2wWVlyg5fnFnRACdWeuAkk8A5Gu7FNd5MIb44X+KN0yUelBvBwqQgM86u8qca49Lau6gmuLQmgOv7MYXwMyu9KKlK8uDrFFPMZZr3Fao2d9xTgLGc4jEpvasIsssrBT5MFxv88XuRP3bM88GKyV4o/aAxji5iSir1VdKO7PPqZiaarQTMam+Uzm2O3Fei0TM9nWbbG4HaJISaDIgkpGNt/O7MGdAbusGg429IQ4ioIxHJRBJmCEEYk0e4IwWRju6IMifR+P8+NFzAqCIXMG61XMCoTv92YMTaaFrWeIRbLIijjFS8JQEOSzIc1q5IoMwy0Iyvx5ijEWnSItL6JO57dioTxGqo3j8M1dSjUOXuhtxhzzd/I+rnrkMdGaMx+id4v7cYXpl70Dh/N+6bUgq/rGJ4jd0E73EETd5+pH46A/MXJ+DnFTJS20OZyuMXQuHnYjf8TsM+xZL6KZrtqTW+OFXMJRPE2YrqJWnAvrTCA+dW1sW5VYTFqvo083q4UlSPqUBUF2U09LLVkkaYWphArq6T8RM0/uvBcCNJG0WRJ7flrgw4lDYQpWpLBgUSZHu/8cJPuSrMfFmFua/7YOlkfxxd4oGLpUxBpdz3RgJK2liK3JiKfLDrx/sxKzsS3dKsiNNE07BDEJ6QTjFxWNIQoU1DVEw3xER3g1qTCDWveWxiZ0TaoxAa70CIuScijS5gVCsXMG4sFzBuLhcwbqTygXtR/J5j5JyZLPQGCwxGK3QWBzR8Xc3/iDopndfKDrNBDY01CS2fmIsG7xIIBaXK7LWq/H1QZR+BagbBMWMb6mQtwsNPzULbjEzc1zcXAaMXwm/yDvhN24+A6etRJ2893LN2wzv/OO4r2I7UqR/i63ld8Muy+1G2wROX1lNMAhfW+uC3VT74tcgHp1YwMRSxVC8N11QZdX6lO04yRZxdLe0HhA3TxFUmCwUUyxpTd6FsaVOqIa4uq4vLy30IGJb6BQLO4OBUkix8cUWmFFmsUqqjLsq+mTxOLPfEts/d8UO2ClOHq5A7xA3TX/HAN/me2DOfx6C0rwQQGD5K28mZpW44uaQOjvzUEMs/aYjXn2sJjVbmy+qGtqYMBFrtCJaJFvXpiND0RYyuL4GRzt+ADdHxeoQY9eislelFXFVS1coFjBvLBYybywWMG4nHEp+GGEdPxCVmQCP3buCfNIbACLPZEcjvMzA1AyEpBEdCEhJ0BhjsfdD4nWL4TdoH/7xieBSugaqQ0CgkMKYchu+Ylbj/iSnQaIZBF/goAvXPo8mIrwiXDfCetgN1CJh6BVtQN3snvLN/g2feGTSbegCOjz5FzvfPYuPKKFyRUd1MGjIN+Tma7Zk1frhQ5EcAUEt9UEajljEV51lyPyWz30q3VqaOqzLWQqqPlnijbDENewlTxjJKBtqt8saVNe64vLaWbRhyd77VXkwXBJKM91gpicYdJ5aocOB7N2yZ54WVM/3wVaY/5oz0QeFwT2Q974N5Y+tgx6f+OLNcpioRUHnh7BLpScVtrvfB70WNUDT3HowZ8TASeuoQkmhFZ5MFgTo7gnRMHMbeiDb3RZSpO00zWZn9NkJvpNmbaPo1n6zQmVzAqCIXMG61XMCoTv96YNhSERvfDXE2QsGShFgT/5gWGzonJKKtIxltmS4C+RuI5vpWnQX6pMfQaFwpfAt3o17OcvjmLYHH5FIFGl6ji3F//9mIiRqKxBbJiL/PgIjwvrhr6HzlfuD+k9fAnYnCP28XGk/cC7/M43DPPwHVbGrOQYR8vARvfzEapQvi8MvS+3ByVUOle22Z0u5QhwmiHi6sEPGxjPKWBu717ri6QRqkqVV8TFMvW0QtpjFLd1wxaOk9tZGGv5nJZZPMR1W7NozK8RtXpRG+xA+naf4HvlVh08cqbPjEBxs/C8CaOY2wIL8ePnzHG5lP+VKe+OBNFdZ/6I5ffvTB+aVMKTLqfJ0bLm6sw3T0AM6vaYJdBNvY8a3Qa2AITAlqBEfHo3NsKsIt6YjifymM30mQmskjJhGx+kQYmEJiTGL6zmFQE7mAUUUuYNxquYBRnf7tbRhqawrijISGTFFBM4pMsCHMbkOIPRHBMjEhE0iEtQuiLTxuYzwiHb3Q4oX30WjUDwjInE/jX4Q6OYvh9d43uKdfPtThQ9Hlvi6wtDJC2y6aJeOeuP/FVWiYuQ11Jy6De+5quE3YQ1j8gntydiOAIFFNWA5VVhF8J6xHq0kb0G3W9xjz6RjM/9aOo8sClPRwZYMbTmx1x4HNvti3rj5Orm6AS8v8CQgZa9EMV0ua0pD9cXkZ4bCMoJBqKyaPso3S8OyP85sb4PeNjXFiXQNl5tmazSVVMb25VIPJnFKl3FdpgNIjatOHKqwoVKFomgfWzvHFytl1sXCyH+bnemBhnjumv+aGNx/3QOYz/lic74tTS2XQnwqn13rjl1V1cXEDk0+pN86u9MTWRQ3xcX4LvDgwEDZtHMIiLQihsUYlWRGVYkZEggXhcrtXLb9jfboy4ltM3xkMaqL/YWDQ0CmBwF/hUP76X9+reF0BAk2YkuX1oCh/rfz92w+MjL/Cga9fe17xfsW6f4ZC5TQg179W/vifj/S+2efl/XIQ/AUMVfTHwD55fp1BV6c7DRhizrUGRhVY/JuAIeMwtASG2cTvTG4AlGhDsMOIIAeTQbwFWpZkTfpUmAwysypLu3YHOqWm4ZGeQ9D6qUy0GPEZ7hm7EE1fn4f7+oxFePgA2B5Ohr1jIuI0iYjQqNEpsRsav1eMurkHUSezFO5Za6Eq2AH3mYcQMGU97h0xFy17j8SDGW8hYMjX8B6/H3dP3ongWUVI+2AuRsx7FXO/64fVi604tPoRGn4ATm3wxuVSaRfwwaUiX5Stp/kqN1EiBKQqS5brKELm7Nr6OPRTcxR/3Bpf57bH9/mtcG45U4u8L9OO3Awca92UEdxXSj2ZdnxxpsgP+7/2ROksFVZOccPqGV5Y+74PVsz0wtLpnlg+0xPFcz2ZNrwwcyTTxhBf5L/kga9zVNj4tTeO8XjPlkiDuDS8U0VeuLDaBwe/b4SFhW3w3tBoZHQxERBmtNfp0NGi5XU3IjYxERpTF2i0GeXAuGHKEJBUSp7/dbzGvw8Y16BBYNC8CQeRmUZvTqFxiuHzuTVNVD7rrKQMAYEyglvAIBMMKu/1rHjv2jpKib7KevK48rU/JPvg+7K8ncCQbZcfUzkIKpeSDMqflx+XUbn3NT+jqPx9ZR1l/YyK51LarwRF5TYyqhh7zaWrmIPKwO3Ldiqf/1XlExyWT3QoJpuimKK8VqlrkyAKPGiaNNGqBl2dxMxv5y1aZdsKIK5XdQlDpEDj5qoc6f1nCSiqirCoMjWIphbAUI5FIFALCQhkFHdNpOO6CUwQZh5XlCMenQUYiXomChMsukQ4NMlI1PP7tHVBSHIK2qc6EBgfj9C0wQh5PBsth81Fm0ezEKF9HPGtDDB31Cqzr4Z17Y7QZAfa9hgAv4K18Jx6DL7j9sB9/FaoZm+H6vPNcC9YiFZ9RsLUPgH6Vna0Sx6H+u+thXshU8e07fCYehh3TT8C7ewSDJs7DZ990Belczpi35z6OPxZAHb+eD82rmyLfcWtcbCkJfYrao39a1ph95IHUTrvXiwoaIk5IwMx5okoDEnS4aVu0UwFd+HYT344tYLQkZlrJXFIdZPcsU+63Eqvpipdb6/KPTVKPHBquScOf+uGrR+5o3SGB6FBzfFGyVwfFM10w8pZXlgzpw7WzPVF6Ue+WDvbG/PGuCHzWXe8+ZQXZo/z5zF545TSu0uqurxwdaUPoSH7DsDZohYomReMiW9HomtGJALjItAmNg6BVhPikhKgiyeI5f4ZNE5l5lsTH8ttX400VKOVS77Oax9tSiEYWACgQUcZLcq6f5ki5HpgiKpAoFYiBAQENZGsq0CgNqqAhQIMa2o3xHfpSfWgeYoJ0oCS0mHjc3tGH6ovH/emsffk691pShk04R6IT++DxIz+XPYlXHpRBEPFOuoEMbrusKX3Q0K3ATCl9OKfm+aa3BMGflbeM8ln0vrAnNab79Owk2nM15n9jSQmXzNlKLBIyOjFz0lvhyQadLpiNDEWB9Q0KGMSIZfam6aSwT97Nxocjy8lA7oUmjo/YyQ0TZSB+9Xaxei78Rp1p5HwsZ3Hw88LMHQ09xpJjJQmFGelcdFcBLoCIHlebqbXDLayZGvm56xyffjdSIObDPZSJkdM6cpjJxC78PqlZkBLYKiVknXtU8bt058B4UwKNK6Tcu5OXq+xKq5d1YkHr01AWL79mqkCBBWp4GYSWMQRBDVRbMVSoCHHFRefhBi5oVLFTX+kEVxrSoLWTLjw9xEjtxmV9/nbjbamIzKxN0Id/RCZ0JOlX/6WNTaoNWaEGuwIsvdEeNfBCHx6LOpOLoVn/gH4vreXCWM/gUFwzFkD/xFT0FFD0DQwwtrUgWDjy7jr5Y/hmbMcqsKNUDFpeM44gLqztuGu/B/R8tVx/L30wqCOeozUOvDSK0Pw7LxMjPosD6PmTcerX3yEYV9+g2fmfon+7+TDkPgoojqZoW6jgSXQjMSoJMIvBfE2PV59MRCL5z2AU3IvjeL6KJOqLUkrxQTIeho4E4X0ppJutDIa/fdlbjj4lRu2zfHA5hl+2Di9Lkqne6B4hhvB4MZUocLqmQFMHc1QPNObj92wYoY7k4c7vs32x8zXApA12AvTX1RhSYEbji70wjnu4yL3dXWdVKvdzf21wNkVTbD963r4OCcAgx5riThLNDqpmdZsVl7/METr2yE8JgbROkLEZkGk1YjOxlh00EWis0mLcEsXxJgHKPN8RWqZFHXBhIGZYCAwqkDiev0BDao2kwkqAJAkUFM5gcCN9df1KoBBACjAKK8vl6U8T+zaS4GGo1t/2CmBhJFGXF66Li9ZS4ncrCSFcglMdGKoNFORztEDGq6jlfXS+tJ4e9LUuiqv6ZNoloSJUUr4tQTGteqkm0hmnk2VpEBzcqQQGDRJGq8yrXeClMxlnV4wOXrzcS8FGFqev9qRilg7/9R2moCd64rZc3sCvjiW9sphwePn+ZQDg69VBcONVAkMS5JiAjINvEBN0ovAIz6tl1K1J6/JJILSMGqg4VoIcwGH3NJTUoZ8R1oem0gnyULOi4DT8/XqJh/8T+tmsLhefzb7/75qAwuRpIZKGNRU5Wmj4vP8TVQq1ppULgJCJLcVlYZxNQESS5BESdWI3o44kx06uR2pDEBjSTeEpc7O8QRGxrPo/Gwe/PPXwa3gIDwzD8Et96hykyWfCYtw92NjENK5B6wBTCb3pyDcOhQtXpyOelmr4Ju7FX7ZO1Bn0l54Td4Bt6zl8BpUiBadh0BfNwXp97AQk/YMIjNzoJ82H1EzV6DDjDV4ZNZWtOP67UaswH36cXjw/gFo38iBiAcSoO3M36s6DZ01RlgcegwfosbXk9vh4KIm5VOor/KC3HxJmRtqgyQNDwLDE2fWeGDvN+5YO1WFokluWF3ohZLpPiiZ4Yk10wmHaX5YNa0OSmbXx7oP6mPtdIKiUIVlk92warYnimbXwQ95dTHzFQ/kD1Fh1nAVlhZ4YM937vh9rRvOlnrj8npCa10Ak403LqypiwNL78b3H7TEa8NDYEuwICwqDVEaXuN4I/+DdsSaZYbbRISb9Qg1qxFqNCCUMIwwdiNYMhCXkEioExhGHSFgcwoJZ6otMMpTg/PqJGeqOSycSwGGLa07rKlSbSNVNOlK6VWey+sCDke3fkhmtBVwiJmJIckPWqKV/KHE3ETlU5r3VBJFHEvgEfKjtvCPQJM1sRRvZeIQYMh7IoGIJI7rgXAz1QYY5VVQaYQZf+AshUspXc5T2isMdoLPLu0XPWFPHwBbSj+eW3cCg+dHuEhpL8rCL5ImrabxGXnuakImmj8WgYUltQ8BWUtgUAoIKkquct0EGgILuc72rn15zXshIZ3Ji8eumAmNQhefTKjx2BVJgktDDI8ryiw/TJpGYrICDBPPUYBY25Rxu+QCRvWSdeUzlZ+thIXcRlQKFc6kAIOKMiXTtJg8+HtUChJWAQbNjcAIiu/OhPE0Oj89AXUmlBISR6DKPwZVwTF4Z25G42FfoJ19BKLb8Xdyjx7qTskITxmCti8WomnmOgRM2IeA8bvReNweBORsR/1xy/Fg70kIC3ka5rsdSGhuQgQN9MEhQ9Bs0ueoM30p97EYKkKjzsyNuDdzNdr1noaw8GGIa8Hfcct4aDoTbAYZX6JFpEwtHpuGJ/qq8UHBg9hT5I1TMop7lXSjlQZuqoQAWeuDMzTxXV95Y3m+N36c6IMFuV5YOtUTK2f7YPUsf8IiAEUFAQSGLzZ8wsRBkKyc7IHlhe5YxvWK5vD5h55YONUHH7/lhclD3DDreRV+ylJh5xduOML0ckqqvdZXtJusa4yrW9vg/OaWKPq0Dd55IQxdbGkwqPtBZ3qUvvUYPaEHQnV2AsHA/6cNOgshoX2UyaMr3zMgOikaUQ4Lk0kXZap0pXrKCSCu178CGCLLn24aJFU5GYqxSgOvUrXDFKCUfJU2CBo3TVL+TPJeIpOHwCKhS28aXR8aVjfFWDWUVFHZuvRBfNd+LOlLmhBASIN6L0UmqcaqAoOaqKbAqKySsmf0gqO7HBv3TTMVw5YSvVSZyLYSuvTl+4/x/HrTtLrCkibVPNwGk4mJ18HA6yBGryztUrLnNeFxW9P6KNVZtQGGtEsobSHchiwV2CptKF0VgxWjiDU7CAWBW1eaRxIitFb+wayIM9uvAYOpR0NISDWbVGVE21gK5WON0uh7Z8BC5AJG9aoNMGIrlhoCIo7AiDbLDKss2PCxRgoVLNzEGm0Io5EEs5QbkfYEgp4Yi/pjV0E15QDN/DDcC/ejyRsr0aH7NMSFPgVdC0LmIQ1Cox0ISnsU7Z4djyZZm1An7yjqZO5HgzG7UT97G5qMWYYwxwToAp+A/iE7tA+qERgci7u79YLv2C+hmkYozaI+3g7vj/egSd56dBw4F7ExL3Mf6Yh90ITYYCtijGkETW+EGzMQGc+SenwCUtJC8PaLd2Hbj77KPcBl0sPLCwOYOPxxdZMHLm3ww9mSABz+qRmKprTE/In3Yv6kACyZ7Yeiub5Y/YEPSj/2JCBUWJjlidIZTbB+Tn3CxB1LprphyQwVVn7giZJPGmFJYQN8NtIHUwiNaU+p8MVIN2yY54kDC33wy1If5f4bZesEVn6QwYZnlzbA7h+b49PJgejfTY22DzvQNngAApmUwpks1FYjDBYWJk30PaNMOW9FsFaHQJ0FnZn4wuwV98RwAgdnuuOBUQmKymQhzythUdnrxibpQRrDacA2Jo94peqEps/n5RKzk2oTeb9HhalymwSDtHEkMpnYCBJtorQfiFHSzKXqiuuoaRLS8OsMDDdSraqkuG2Lcn7SOFxetWMhEMV0pWpHzNpBmMULvKSajJCTdU3JXQiDrkgkbKQ9R8xdGkAtPHd790eh57Z1Ui1HIJbDoKYJQ0xUjqU85SgA5rYEIGIY0otCgCGpQ5KGAmepYlJmNU35oy1Dubk9E5Baev0QHAILqUbTSdWUq0rqlunOA0b5rKpqQiPGnMqEmcolP8v3BBhxSgNsPEJYso1IeQwhj76Je0Z8A/8Ja+GdXwr/zJVoOeRTxFjeQfwjvWBpaUJMRw06M5UE8rfV9onXUX/SRni8/ys8px6C38Td8C7YjAajFyBG+yZ0bXsjqp0NcY/EISI0Bm35H2jywgdokLkGjaZuRsCcXWg4dQuav70Qgd1zERP+NLQPORDTWo+oCBPTcBdCbTBL4Y8hmNe2rUGPYF0UUhwhGPN8eyyZ3ALHF9yFi2vq4TwTxplipg5pGC+thwulTXB4yT0o+fge/JjfDD8UNsLS9+tgNVPFyjkqLCMwluYydUxuirUz62PN+wQFX1/BZdFsd6yaXRcrZ9TForw6+PJdf8x9oR5mPh2AD18MwA+Z/tg4zwsnpEeWzD8lPb1+IryWeuLqWn8cLroH86a1xpDBnaExGBAeZ1XSXIzORiUgjlDQJ8pNmiw8Hwvax/B66pIRZk1lwpD2i/+RhFEOB+km2oXmlPFH2pBkUdkbJ4FwsMjzP1WL0FClxM3XYo0spfCCSSzWK71UaBb8IUkjuJIuKhrGtXxdoCHAkPfjbNL4nKSU0GvTU6rGwJD1lVI6zZXHp7UlKYarnA+PXUpleoEAj0WqfWTaBTFltZTUzIzMNGRLiiQsqUJi9Oc61i49kdx7IGNpV8SJwXHpHAw3EM1cTFSOS9KFpCBJEyKBhpimwEmqpiS5KVVVGX3+OOZ4AlsgHmOxKxJoaBJpVvYUGAg4aQAvT0+uKqlboTsTGHZKnqchioq2SJtYMoFhh9ok966OV4wqIqkvwnsOQ7vBubj35ffRaORcNBs+DR16vgdd7FNwtE1BQjsTNBFGhFjtCLYno22/5+E7eS1U847B7cP9hMU2uE8uQf13PkdM8LOIbZmMoEAT4jprYIjVsbCSgfbdxqPts5+j46hleHh8ER4a8S1aP5qPQPOLiAzugbh2TBaBOkTHGVmwkV5+g3juj6GzMQXtjdEIMqkRq7PDEOrAsF4GfF3YEbuWB+BIsTeOy5QgMnpc2jbW18GVbT44sqw+Sj5siiXT7sKSWfWx7H0PLMh3w/Jp7koX2+UFfK3ADytnuqPkIw8Uf+iOIqaMRfmEylRPrJ3tj7VMIT9lNcOHLzRFdkZjTH6yjtL1dsP35XNpXVrHpCEj2hdyKVO8l9bHyc0NsfqnJhgx/EF0T4tAvJEGH5mIoBg9QkwxiHIQig4rwukfIVo7wmKZouJ6IVL/P1QlJZCoHGtQ2Z5RDgwpaZffu1rD0mwUdxSuNiFKZ0Uov/hgXiQx2WgecLjGrDwWaMQQHmIS0jCu3CqUpiFdT21pvZQ2EAdL51JXL6Xnym65te1WW6s2DDkOmpCZ52NjSqoEnQBQjj1MbeT5GBASq+exxxOAPCe9mSUIHUJjtTw3I8K1Jl4sM6J5ftIIKd0txfxNPH5Lei+mjNpVSVXCorI9qLJqStotErsSsLw2AhJp6JQfkEBMpJN7JhAWIi0hIVVRsTxeWUobhvSUsnbt6QLGLdSdCAytFH6YMMqB0UWBRiyBoVVgEs/fMU2B70c4eiIybRDCU4egU7fn0LrP82jV/WkEJvSDOjYNCWF22KMTYDFKUk1FNM+1Y/cnUWfCj1DN3QKPWRsQkL0a9Sb+hMYvT0dc236Ivt+MTkE6JgctLPxPmFnoC9UNRKTjNej6ZCKG6pw8Au10g9A5pjuiorjtKAv3Z4Ka/yulYGbrwVQkt0ElKMwW/teSEBTZFTGG3jDQbLtnhCHz3Y5Y8uUDOFoSoMx2K+M7Lpe44/eFbjixxB2/rfLGoSV1sHZuAL7NCsD3uR5YPJ2JYq47Vs72wIpp3lg+xQ9rZtZTILJqtgpLphAYUzyxmimj9P2mWDk9AItyPPHDu56YO9wdOUNVKHyHYPnIC8dW18Ol9Y0IqrooW8T9ExrnV3jg5yIfbF7UGDPHt8TjaSHQ8dyCoh3oRO9oa9YgMFGD6CQrPYb/c01vxIb0RJRWzvV/CBiV1VHSwC3AkMcCEOmymdH/Cbzy9hiMmViA8bmTFb0zPgdvjZ2IiYUzkZk3Be9m5vD9fAx/YxR6DhhM002hWXdFWq/HkNLzUcgAPXlNqrHsNMREGqIM8JOqLqnCup3AUKqkCCwH95uUIZOJOZDaoz9eePUtvD1uIs9lIt4al4X3JuRiXG4+z6cQmbLMzsOYrByMypxI5eDdrFy8MTYLqX0eQyABoyUgjCzt63j9nIHBuWiiXErykSonAYZikjQmgUhlNZTAQqqm5N67YiQpPF6RpCNJSZLi5DtSensxWcQlJJV3xZQeU64qqVuqOxMYCQQGv28rgSHdawkNac+QxKw1xzNNM2Xw/QiW/qMcTPYmAsWYjFC+35nvh+gtiNFaYNQlwEawWONZuIjvoow2D3b0Q4uhU9D0nS9xF1NFq5c+QYuXZ6H1E2NhbNcN2tYmhEQYoI42wkjD0vE4Q6TbqSGd1+tRHsMAFiy7IygqCZE6h1IIizXI/cqN0Ogsyo2LYkxWxBmN0OkM0Kt5LjqpVuuKkPh0tDM4EKgzIbVrDN59PRiLPm6F0zKPVYkPLq+qi7PLvXBulQoXCZCzxR44vMAX6z6sg0UF3pif644fClVYNVeFNXO8UTS1HpZOqodl+fJYxWTBBDKbwJjF59P9sXyGF5YxeSydpMIX41QoeF2Ft57xQNZL9fBlbiPs/L4+zq72gTKfVZEHLi/zxMUiL1zc4Ic9iwIwb9L9eG5QCExWEzrGOtBejt2agDCLFdFaGwxxNpjVPF+9dJd1Dojr9S8BhpR4M1jClRI/TZlGJBCR50Neeh3L1q7D0ROn8cup8zjy22nsP3YCB38+gRNnL+Hnk2f5/FfsOfwzFhWtxZgJk5BIMPR+/Gm8k5mLtwmXPo8PUdKHlJKlhC+l/WtVWyQxDdIZGG6kmgKjcj1bcnekdnuU6q/UOQ58+nl8/MW32LL7AM/jNx7/Lzj4ywkc+PlXPv8Fv5w4iV95vsd/PYlDx3/DIb63n+e7budevPzuWAJDrwBAQ0XRqDUs8QsI/gqIv6o8YUi7UfmxSffeSsOQZCDgEJMK01oVcAwY8qJyDd8YnYkBTw+FgbCQAWjK98TvSLrUSuO3NHpHWe0KOGQwmzPz/m/IBYzq9XeAoWOKkDShtgkwuiJCUkYFMHQWFjLMNCyzjB2Q1MDflDYBxlgj1HEaRKljaOSxNHI99ym1ATJuJ50l/zRE0+Aj9dxW6osI6v0OOvYdhdDu7yC495sI7ToU1qA0mINsUKvFDHkMhFAEf4uBZj2CTAZEEGQxNM0oLc2PhR2dg8eYSKMy6blPQkbLzxBS0fo4wsMIk9oBQ0wiLFYHC19JTD7xaMNzaGdKQhgB43Bo8fqQcKx5/14c+/5u/L7kXlzeVA9XZDZdQkPuJX6lxA2nVnli48d++GmSN77Jrmjkft+bCcIfC3N8sDDLCyvyPLGeEFn/EYHxPlME08bi6e4oYkJZ/VEHFH3aFt/MaoasEQF4bWADjBrcEJ9n+WDbV+44s0ZGmnsxbfiibIVMz+6Gsm2eOLGxHr754F4Mf66z0vU2ltAL1XZBYLQNHYOjEBMbzHMLV9o6Im8yDqNS/4o2DCmtSjfaxK69FSOSHjgCkeSe/fHqqHHYvu8QLpaV4cylywTGKQUSZy5fxQW+dv5qGc5duYKzl69g254DmPPplxj83EvIn/khdhEi2w8cx8TJs5Q6eBlHUAmKysdKFcttAka5eH72rkhM6alISmbPvfQGflhShJ9/P6Wc16kLF3H4t98IxFM4d/kyLl/huV28jDPnLuH0ucs4e4nnd6UMv52/hEnvf6j0nDJ36U5gpCGylsCQNgwZECbGqJgpVWlM0oYhwJCEIOb51Iuv48Mvf8DWvfuxduNW5E2fq7RnSJuMwELaL2K5/8qGb6mWkqVs05l5/zfkAkb1qi0wlC7WUnUqwGAqiLJlKBPlRVr4ef4utAowbCzF0yC4TpSFvzMDfxMs5apZ0lcbNdAYtVxHBp7RxFiIC2PCCDXLjKyJNLl4GOPSEGfoiTBrX5p9f0TG9+d6vaDTJMGkSYRZ74BNzWMydUWQPYOpxIZguwWhdm7PwbRAqR3JMKfxGibYuF0tU4cRUQRSrJHv6a1QayzQEGRm/n518SyBWywI4eMQ/qYjEpmeqDAab1SoHoPS1Zj6XjBKvmtFk26MK1t9Ibd9vbJchavLfXBldX2cK66H/d/7YeUMT3yV5YZvCY7FStdaTxTl1cWqvAYomVoHa2dJd9zyhvA1H9TFtvlanNjzGX7d/Tm2Fz2HhQTH3Al+yH3ZB1lPNcacN+oxsbiXN4aXeuLKCm+UreRjuaPgeg+c2OKD0oX3YPL4YPRMMiI2zIbQCBNiLNEINQaxcBmCcCa6mw3cq9S/Ahii8vEWffi4G//kKQpE0vsNUlLC/mM/4zKNdf/R4/jsq/n44LMv8MV33+OTL77Ch5/Nw0fzPscX387H5Jnv4+WR72LQMy/i8+9/Qhk/I5o77yskdumpAEIayZXGcf5QBRaSMKRKqny0N4HA/V8PiKqD+mRdpXT+h8q7+ToFBWXh4/ik7rDyh23iH8NMU+o/aAhGjZ+I6XM+wMc89rmffoqCGTOwongNzl8hMAjDfXsPYMFPi/HBR59h5pwPMfvjTzFn3pd46Z0xsHXtiThHCsU/o4wIV2DAc6sKhiqqChNp4JfnYowyWKvcJGmWNFal4ZvvyevSU+qlt8Zh1YbtOMdreISpZ+68b+FI70XzsCtgV0YG81rGERhaGZiYzGNwUiV1bdR1lddlnUpVeS7HIUBTTIzLSvgoxl/18zWUCxjV6+8AQ2+0Qc+lhukhytaNwGDKMMvsAZIwpLrKqlT7RLLEL7d2DTN1QwiTSBgLE7GJTBtWGyyEjtZIgyZo2vO6d+J5Rpj4eUm2sTrEag0IJnRCaHTBMnKciUUSQDSBZCE0EqO5LWMPBNp78TUHwrmvQC478zcUzIQbmZAEC6Fh4jbUcUamCjvCeJyhFha0tDwPLQ1MSt7cZph0P+XvPUbmajLxd2Di9WBiCuN6HSOT0DmqC5K6GPHWGx3w48fNcGwVS/mVPZlkzEaRHy6vroPfl/lhzzd1mC6kTcMf32V6YUmOH4qn1Mf6mQFYM7W8aqpohjtTS30UTSNE5hlw4sR2XLhwGicP/IiDRYOw9uM2+HyCBya/VhcTXvDB5Nfd8RPTyoEFdQgNAkPAwZRxuZj736rCuS3+2L7oXszNbINn+3eExRyGEJ0ObfXJaGsk0JX5pBL+mBLkz9VTUl0VT/H9ivf+NcCQhCGPpXeUJIyMRwdjTE4BDh7/WSmJl7CUO2TocHTt3R99Bz6J9F79kUzzTOnWGz0ffUJZWlnqTu89AJNnzcWO/Qewdc9eZE2aXN4dlD8k+cHH8CSlikoacaWKReb3UapR+FlJN8rYD64v4x4EICamH1lK91vFfBXzKpcYjBiTlMyVHkcEhCKCROAi3Vbtab1gYezWSX0tS/GJ3JaDhpuQnA5HFz5O5zWwOxRonL5wARcvXsHyZSsx4o23kZLOZGRPQQKvi0OuUTqPJSkVoQYz/3z8U/D89dxvOQxk7Al/7H+cj0CCr8lxUsp7NHnpgiwjuGNNcutNO+L4Z9HyuQDOwD9cNF8L1Vow6IVX8el3C7F+204sWVWMsTmTeZ4y9UBiOTAEFoSHzJUkKUN6SonKDYjHoFwbuaYVBq4sxZj5PdCQRMp6AnF+F8qocq6TmN6b6fJRpRFerqusLyCrBEptVT6qngZcQ12bluN2idepNroOCtXpdgOjskpKucESE0a0TaqkmDBosLKO1pKoJIxYGnU01wvnbz7Q0gMdE3qiM39f0SzkmPhd25gSdDTkEFMK2gkw+J+P5u/AaCZwDGoCKA6B8QZ+1oxAoxkdmUgedlgQbLNCr46HNUr+x90QFN+TaSEF0bGEBbfXyZKGjtIWQsgYCCCzLgEGjaQe/mfiuyPQ1h1xWp6fnqDgtjtxu4E8ZqlW0xqk+qwLDHGpiJUEw+8qkr+7h+Iy8FA4z9cUi+FD2uH7Gc1wfJU/zm71xOVNLO2vcsO5hV44u9gHp5bVxZHFzVDyUQPMn1gH8zObYOWUBtj4gQ+Kp7tj5WQ3rJjqg1VzmmL59Iew+rOuOHZih+JvV84cwdktn2H/Nw6snOqBr6YQGqM8MfZZX+QMaYTv8htg7wo/nJWJF0sqbgS1isBa74PLW+vg+Bp/fDurIYY905oFYiM6GZ7g9RhGr0hjymLS4rWQHmxRkv6kY4LStsEUaEwhLJL5mNeBhi4QcA4HZ6KROwHDjfR3gBGuk2Mv1x/AEJUP2CvvVitjMNL7PY7RBMYBAkMSRvGmnejaZ6DSu0jMTUkHikl3pyHyy07uocw7JT2QMvoMwIAnhyCtR184aKr2tO4w0NT0jJ16xk41SySxchJaEzrHxCJCq+MfwQqNzgSTlSVolpg1NGR9Go+J2zAxoWhoeuWNwXIzEytLIBYERut4waS+lIbGYxEZBBZpvWFI7aWMJI+XyRP5vo5/SIGUlSBKkO6pPB6RJJ7gaC3G503BqYtXcaXsKpasWIHnXxlJw+S5JXSFjdvRSL0s46VB6oh1Bho3S0/8o8XJiHUmJDOPWRr3Yigt476R+5ER4tIAKV101UYTomLjEB6nR5TWjGgefxiPPzxajzh+GRaBJdNdjJUlDWsCt5uMxB69MfCJIejB627knz2ar8v7cfyTRatNMLDUYuF5RTLyh0mPLoOVP05GYP4wBM4yrYhS9UfJUgAtr4ew1BcaZ+J3aSuvwtAzRhOCdgJ0+Mh3MHHKDLww4m0k9+ivgEkAZWLqFDCJqTtLB84ksFAm8KuFqk7+d+tFY68lBGqj2wmMckkhgb8lWXK9WCrGwuV171dOJyLd1qOZIqKsNHVlnxUFBYJEGcvB96P4PIqvKz0A5XP8bwpsIgmPSBZOZOCZMg0Gf3Mys0As/4NxNLoYmcmBCUZmb5W2CxnRHElISFKR2VxjuYyTcUUieY37i6TKZ22leXIfEYrksZ3b4XoETQwVTfOUglO0jSaawP95XDICg3tCG9cNgwdYMG1SIEqXN8WvW31wiWnjilQTLRS549JKL/xCM1/3gx8+yW3NtNCMoHDH5imeKC2sh6XTAvDT597YvDQNJ7d9i4vnD/E/f5oFxV9x4tdN2Df/MZRmeeLHWfXx3Zy78M3Eppg10BfvPVUPmVkNsGm+F87I4MKVdZlwmqKsuCFThy8ul3rg17V1UPzdfcgZE4Ue6akICemFwMgEtIuwoEOkjdfZglgHPcumQWe1VNf1YoHxKZ77Y/QzB4LUGoTR25zDwZl4/aoA4WaqLTAEEmFV9AcwpApKGroFGGIOAowufQmM7HJgSNVS6dbdSOvZn+aq448lkeIPR360/LGHM3LKD1Ma0HSEwoAnn8VbY7LwwqtvKvCQko+BpvnEMy8ovY5eeO1NPPnccDwz/FWMyc5m6X46pkyfjgkTcjD0hZeQ3rMvbF0ZX1O6INKezB+rQ+ma+/iQ4UqvrNxpMxWNnzSFUCvE8LfHILFbHyWFWFgyNqTInFDdlPmfZKCeQEIMU6rCKsczSDuKPJbXgnhOmZOm4szlMly6fBELly7FMy+PhNbeneclbS7dYaP5PfXUMxgzZhxGvPk2Mvo9higel1pgwpJ4fFpXPPXsc3h37Fi8NTZTqdKL4h9SZm0dxrQyiq+/9PJL6NZ3AAY/OxxjMnORkz8FOXIO47LxzNBXkJTRi388/mAERsmp6PbEkxjH9Ya//CZTYDdESpVAOv80zw/H2PG5GPrcK+jZ41G8+vq7BF4hsqfPKr8uuYV47pU3lV5VMk5GgCmPZbS4VA+++MYoXvdC5ZxzCqcyBeYjK78AMz/6BItWrUHpth348sdFePrF1xQ4yziUWIJcfpxqPlbSQxUw3EhKYviLaf83Jcbs3OxvhW4/MMqTRrnK4VCuP79Xdf1r65Trj8//sY9r21Ago1QP3VjRfF8k/3+RGPu1z8hrFev9SeXrlq8vgJC71lWVlLwrVfl+eVVNqM5BY5SpUAg9fRJTUDx6d9dg/JuBWPTJfTi6ui6ubvBQGqOvFnngJI37ZKk3flkWgI2ft8Sa6c2xKq8+lk6qg4WT62DJB/egdIEOx7floezEflw+dxKXrlzCWQLj6L75WP91CpZke2D5NF+s+KAxls9oguWveWDmc/54b3gTvD/GF0Xve+HwT3VwqaQxrq6tr9x6VpnafaMnzpQ0xOav2uKTsR3xYr/OSieBjmHxCIqxEtAs9MbbEWLWIlCnZvpgAdH0KBNGV14XA70mEhFGy3VQqE409uugUJ3+LjBCK3RTYIwhMA5VAGPb7v14YshQmk8qEqVKh5IusjLyW2bbLJ8DnhGUpdDMvMnYuucA1m3dhdfeHo0QluBt3P6kabOxaedeLFi2CvO+XYAFy1fh2MlTSoK5dOUqfvnlBL7//ieMeGsUug54XGkrCGKEk/mcBksVzZc/KL2yzl6+inNc/9Slqzh04hQWrynFS2+NVrq9SnWWVAkp019LgzSX0jNLqsUEGiIBhTTEO6Qajo/DWFqfUDhdadw+f/Ecfly0CEOGv87PdyMMk3hOXdGtxwDMnDkHu3fvRcmGTXj13dEI4xemJkwi+Uezp3fHB59+hl379qNk4xYMHvYq309EfNc++GbRMuzcuxdritdiyvsf0IwXK+dx7vIVnOM57Nl/FJ/M+xZDXnyVx56EMP5o0gYOwsRZ72P33iNYumItXiB0opgwug96CnM//xoHj/yK+d8tROb4HJRu2I5fzl7EKV5H6YwgbR5fLViGXgOfVtqNRJI67ITF66PGMy3uwNET56izOPrb71yewC+nziidGU5evIL9P/+GJbymw954lz8aC0I1Jv5wLIRZvFJC/zcD49+dMG6vagKMfyIlNQgMaiSaFguinSK6Mpk4YO6qhyE1imk6BpHBOqQajHhnSCQWzGyDg8sb4Nw6H5zb4IWjm3zw++r6KFvSGGWrGuP3b+/C5ulMCvkB+KTQH99/8DD2Ln8N5w4txdULJ3Dx9BWmjDKcPrEbu5YNw9KP2uG7qe5YW+iOVdP9UDS7HnZN80ZxZn18+GoTjBlcB4WvemHxdC8cWlB+B8ALRUw50qYhjeOrfXBhRVOcWOSPle/74+mB0bDYrNDqExGn7UcjzkCw0YAgczhCTHomCgfCNBamuxjo7REE478cGIcrgHHs518wZcZsvP3eWLw7JhPvsBQ9OisXI0dnos/jT5ePQqY5x3NbM+Z+jNOXLuPkhUss7eYjkoYj7Ryff/s9Tp6/qPS2OvTLSRz+7SQO/Pobfjt7DpevluGy9Eji49Wlpeg9+GllEkB730fxxPDX8Nm3P+CX30/SYC/jxJmzOEaT+/3cBWU/8vmdB44o3U+DYnT8w9lpain8QzIKV1TPVFbJyIh1A41DqZoiNOT1kFgDS9vTcJoJ4/LVS/hx8WI8SUAJMCKNKUrC6N3vCXxBo77I/UlbR2b+ZMZKGiljeWCcWQHGwmXLcYbv7T54GMNGvocI/tATu/VD8ebtuHj1Kk6fPc1z/w3HT57mdbiMU+ev4DyBcZbXaf/hXzD3s68wYMjzSrVT/+eH4bMFi/Dzr6ewa+9h5BFWUiU1ePgrWL1xK7d1Hqe4naNHjuPE6Qs4wW39evEyzvO7OnHuIrbtP4bvl67G08NeQ2CEWhlgOWZiHvYdPY7fL1zk+pdx+MQZ7DpwmN/Fr4TvZQU2+44dx7z5PzLFvAi7tNHYUxEcZ6TxJ8Pera/SnlHTaikXMKqXCxjVS7nfhHxGjksSrsnIwksswqJioYm0Is3gwPM9bZj2bmes/KYJYeGOsxvdcaXEm7DwQ9lKGSnuiV9/9MW6jxpi3oT7MWdiOEqLBuHEz9+j7NIlXD1XxqRxAqe3fYHiD4KwdLI7Vs7wYDKpi9UzfLF6rjdKP2+EdR/chWUTG+D9V7yQ+4QnCh73xudveGDnF4TFFpVyb/OLa1W4tNoNF1Z54hLhcaLYA4t/bIx334hAqqkL4sLTERXHgrVNjxALU4Zej0AmkJDYVEQRGjHGWALgXw2MfBw6ekwBxrnz57Fl23aUlK5D6foNLNVuxIat27F4xSq89tZ7StVTfHK6kj7e/+QzJTVIY9LEgqmI0prQa8BgfPXDAuV1MaZdB4/iW5a8s6fPwPi8fHw87wv8+usJZV+Hjh9nifotxNlpUr36Yu6X39DUfsOpM+dY2l6BydOnEVzv4c1RozD/p59ovBeUbX769Xfo3n8g4dVVaUeI4H6DorTKyHQZoS5giNBalKqZyqlCpLpG3h81IR+/0HgvX72Mn5YsUYBhSOrJ6J5OuPRE956PYd5nXyi9qCQZTJw8TQFGMEtBgbEmpHTvjeWrVuPcxYvYe+gI3hyXDZkCJbnXQCVpyXmdPXcWpbyGn3wzH9mTp2M8gfzV/AWExTGcosmvWbcJb43Nglqq7wiGhWtLcfLUOew9cBSF73+E2AQHnhkxEqXbd+PEybMELEF+7Dd8+OkXPP48jCuYgq9/Wowd+w/hBBPHgZ9/J9CzEEKIyqDKb/neFR7HCcJGxs1k5U/FmywATH1/Dlav24BfT5/FIX4Hn333A2HajT8ai/K7qLxbnZbwUG5a5AQOzuQCRvVyAaMG4n810sDUrUtGqJ4mZjYhymxEtDoRMRFJMMcm4tHuMXjv7baY/1kznJOxEqXuykSGZ9epcJ5Gfn61Cr/+4IfSDxrgm+mt8OWX8Sje+gl+PltG7yjDL0dLsXP1K1g1oyXWF7phxyy5lwYTwhRvrJrigW8+CsAPcwNQNNUPiyf54qtRXvjgJW988HJDfDvuLhTPbYKDS+ri91IPnNtIaGz0QtlGP1zZ7I8TOwmeH+5FwajOGNzDCBtNXroMB8ZZESjtFrp0dI5LQ0icA+FaQkDOkesoyxpIgUBt5AQMN9LfAsbBw0cUs7tII/z99xM4QRqfPHUav58+jTOEyM49e/He+Cz07PcYEhVgZGD2R5/iEj8jbQJZk6Yqjdtdew/AvK/nKxCR98S8Hh8ylPtK4cXSonvvR7Fu3VZlX0eYZrIKp8Ka3g2OXn2wac+ecpAcPo4JE7Np3j0Qq1EjNDIC740bi0PHjrHUfwnFGzcx0UxCl559Ye+SQYg9irSejyKJJWOpfpL6+y69H0NGv0FKG4YCDCYNacOQAXIyMPHylctYtGyZUiVlSulN85apRHogLb0PPvjgU5o+S/M01sz8KQghfEJYyglSW9ClVz8sX7laKfnvZql99MRCJHTti/R+g1HKhCHHf/ToUUycOgOphGvnKDU6hUbjmWGvEjSl+P3sWeyi0U+a/j5Nw46BQ1/E4pJSnCYkt+/ai8zCaUr/9GdGvIm13N5xJo+ffz6JBQuWIyW9Jx4ODEWwxoAnnx+On5atwAUmtl9OnsO74ydCwz/e2wRR8YbNyriTbXsPKW1MYTFadAoJQ3JGN0wsnIK9TCtnrpRheck6JqYeCI7V8/vpAhuTmKS1ECZFMTZXlZRzuYBRvWqdMIyJLOCVd7EN0ycyzdsQlZCAGLtDaawPldJ5tBZqYwySumrxyrBYlM56ACcX1ycsfHBisxdOb2Rpv0RGa7vh1GIVNn1XD7PnhmH6T7Pw+a4yzN9/Dh+s+wbTv3sMi2d3wq7pAdg/0wPLp3thTYEHSid54PNpAZg33Q8/THfHotl1MH+aDz7K8kXOsPsxokd7jOjeHh+PfQClXzfEL+v8cHmnP8o2BxBc1Jb6uLjDB/vX1MW8gg4Y+qgOpjg7QsKTEBiTgSB9D3SmhwQbUxBqTC8/Txp7GGFQE4U7Mfpbpb9VJXXk2HHF7H75+WesYOn+hx9+xIKFi/DT4qU01hX49PMv8eywl5BMg7EkJitVUgIMAcPv568o04fItL/d+g7Ep1/NxzkambyXwxJ6ULSGNDXz4ExI794X3323iEA6jZ9/O4Hp3MbjNM1nX3sduw8fLj+G47/ho48/xtuj3sWrI17D6PFjMe+rL7F99x6lmmgb4ZU/YybiU7pg+OtvYenqEqwo2YSlazdg8ep1WLJmPc1wE+Z9t1AZYCgQkWqqzkwh7zFh/HbmIkvgV7CkqAjPv/YWzKl9WMJJgz4+HekZ/fCZJIwrV3GS0MhicpIvNsKSwi/ehCSe/9riUlzlcR46ehyjuT1rai+k930CW3aVA2/fvr14hucTY0tEp4hYph81nn7+JfywaAUhdAYHjv2M6YRStMGK7gMH4+tFS/E74bxl+y6Mzp6kNHoLMNbv4Pme5fkyueTlToOFRtiZ1zLGkgBHendlbIxc4xNnzuPdcUws3N7ozGwCYwuOnTiForXr8OSzL6DlIx3QISgEMjp46CuvYffBQ8pxrtu+k5DtxT+kUelhpfTxZ7ow87ch3WtdVVLO5QJG9aptG0Yk03tIdDpCNXb+z7SIiI9DmM2CMP7nwqw0WJsRIbYohJrFR+hh8Y/iyf42fDU5GL+vaYnzq+7B+TWNcKGkLq6u9EbZUh/8tqAJfpgfgeHz3odxzjlEfVCK1jMWIHJyHmbNiULJ7MZYP9UfpYTFjukqHJrrg12zHsLKGU3xUaEK74x2x7Mv+aHfgACYDA0Q2u5BBDXvBO0DnfBmr0CUftga5wiNMrm/xrLyeajKVvvj4vqG+HVdXSyd1xKjhuuRoOuGToEOtI3UICyRIEx1IMKRpIxpEZN2Bgdnku66EbWSczg4U+2BkVOAoxVtGLtpxu++NxpPDXkGzw4dhucIiWeHvYzBzwxFd5aYJVmYaSr2tG4ExmdKuvj19EVk5k6G1mLHY089h29+XKw0LJ+g4Y7OykFHlrBltLL0ukqleX/y8dc4dPBnHD72K2ZyGy+MfBtvZmYqRnaVoDnDEvPOXbtRum4diktLsXnHDmwjLPYfOaoY5H7CbQZBY03ugnF5hTjFY5CqKpHU7Vc+3rrvKF5+a4ySPKRbrQBjXO4UnL5URsO/gqUExtARbysJQ+45II3ePXs/jq++/FYBgiSMcXkFCGbCiLaloWOEToFlEROGvH+E1+y9zEmQKdNlTq3tvHbKNdy9ixAcpvSUkLrKKL0Fg5iyPvn8Wxz9+QQOHz9Bs/9G6WnWY+CT+OLHhQToKezYvZ+JazoiWMIaPPxVrNm0TamSKinZiDFjJiKBpi6TzmmZQPQ2O6a/P1ep+pOqs7FZ2QiP1WLICy/hp6VFCkR2HziEfCad7kxgGb37MuUMx4wPP8JRgloGCi5jsnFk9GTyMyjVUQIMGSdj5m/FBYwbywWM6lX7hFFhctLVVO5qZ9IxZRgRbktAJFNGeKIdwdYEBOodCNR2o3qhk8aBvo/qMScnFhvnx+DI6hY4scYbl5d4oWyxP04vvRuLF4eg9wc5qDfhELwmFUM1aRMa56/AiNlP4Lu5j2DN+14onaHC1mlu2DvVF7vzm+DDtxrj8YF1YLCrEK73Q0hsc7QP7IgHH+yMuxt2xAP1H4b+kTYYltYK80Y3w7Yv/XC6SIWrCwkOqSZbJ6nDG78UN8DKLx9CzqgQ9OkRjsi4CHSK0iFI0pQ9GWE8ZwUYNZQAQ6nKqoluOzCk0ZulXjG7Ldt2MAX0QkhEjDLzZJwMedeYmB5sSo8pGdsg1TyO9J6Y/fE8xXylHl16TMktJKUb7Y9Lliu9mw798jsNNReRWjMMyRnKj9SR2hOffvItgfELDhz6GdPmfoShr4/Em+MysXPfAVy+eBVnCQxJPPsPH8GBo0eV0efb9u7Hxp27sItQWc4SfmbBNNgIrdfHTsD6XfuVqTU2Eyqyzqadu/n8IBauLFGqnKSKSkszlDaMzPzyRm8BxuIVy/HsKyOVNgxJGNKG0ffRJ/H11/NxiSb884mTeG9iLoLUPH8rgRGuhYnbWczzu3jxkpIwKoGR0mMAtlUkjN27dmEggSGN+Vo7/6TWRKUL8qwPPlN6PR05/js+++p7ZQBkvyefwdc/LcFvTFy79x1G3ow5iGKCkKqqpUwIUiVVvHYjxo/LQTLPQ6qxBBgGAcbsuUpbhcArKycPncOi0KV7b6axbxWwCky28pjmffUdphEu8xctxl5C9xSPffv+g5jCay9tGGFKFZRD+W1IwpBqqZrCQuQCRvVyAaMaSXdbk3RFVXNpgAxsU8zRaEYUk0WMPRGRtgyEGHojUNMdnQ1J6Gg0oXm4Bq1jYhHfw4rxU5/E/MU2bF3VFOeWeKJsiTfOrGiCFavao89nr8M3pxTu0zZBNe0YGkw+gOQphcidrceyT7xR9IkPSqb5Yn2WD1aM88bQPg3RutM9uK95AO67pwlaPPgIHmmrQ6uHY/DAQ23RstV9uK/pXWjT5B6kxT2EUcOaYMFcT5yYz4RR5I4rxR64XOSHS6W+OE1w7F5bB3MLmmNQn0BooiMREkbzj0tDGI09VGYFr2LU1SlMS2O/HgzVyQkYbqRaA0PGYew/WtGtliX7tO59WFrVK6OfTfY05R4SMhAoQaYrp+HLKG0BxpxP5inGJKX5rEmFvBAG9Hx0EL76foECDJm8UOrWw/i6jIaWk0hM7oH585fi5O/ncPyX3zDzg48xmOb6/KsjaJgHlWM4RLOfkJuP4a+/iRHvvIc3x2YyGRQQElMx4r3xGPjsi0jq+SjMhFci00P6o4PRY8BgmnZf2FJkwF43pPd5DN36P6H0jiqfnqSL0pNqXN5UJqILuFKl0Vvv6AF1fAbB0g+9+z6hVElJm8IxlsTH5EziRZSJ3lIRGmtR2hFWLF+JcyzB79t/GGMnFHB/vdG1zyBs3l4BDEKrz5AhiGAJKYYpQ2nc5jF/wlQh1XBHjv+GuZ9+CUN8EvoTGPMXL8fJk2ewdecejM+forRhSC+pZcXr8DtTzsYN25CVlY/ktB5KwtAkELxpXTG3og1JgDGBwAgKi0TXHgTGl9/g/OWruMiUd+rsBRwn+A7//Ct+PXlKmSvs9/MX8fFX36D344NhSZKR3cn8XfC68dwkYcjALTFcZ3BwJhcwqpcLGNUrymilYcXymAzQ87ctMyJEGxwIkxlydSn873XjdewBmUsr2GBCkDaKhdhgtFG3wt0JaoQ+8xGenDkXn67qi2PrGqJMZrplaX/vjgcxeskQBM1agIA5pfCYcgi+WQdw7/jP8Hh+H3w+tw2++awNVsxphOJ8b3w59h50SWqJ+vc+gk73hSHwrlC0bNAe9991P1q1uR+PBLbEfQ8/iHtbP4j7+Pz+h5vingebwBDbCCune+L8ck9lv5dXeuBqsRuurvfAhXV+2L/UT2lMH/tyR3QzmxHell4SQ2AwUVWFQnUSwMg8YDXTLQaGwEIkU3R0qRjpLXNJKQlj9z5052tirsoss5Ry859kuWlPNxq/jBCnuaZ1V3pJiWHJ5IQTaHQCjNTuffHxF9/QmMqUmW/Hc9tyP4o4/pHlJBxpvfHtN0tw4rez+PmXE5j14Sfo9djj6PP449i7/4ByDPt37sMrb77LYyWJWfqVwT1JPfvjyeEj8OqYCejz9AvQ2NNh5rZiE7sgWIbka60IiTGgc6RW6SklvaRktLr0lFLuMxGfrLwmCeP385e5nytYsGgRBj33kgKMOALDlkLj79YfnxCEl6Rb7bnzyJ4yQ7mIHSKM6BgmjfYDsGH9JpTxnPfvP4K3R08kVDOQ3utxbN1RWSW1Gz2fehrBZgsiLPFMJwl4fMgL+Hje1/j1xO9MJj9j1tzPmBIcGPDUs8okiSdOnMGO3QcwgfuTcRhPvTwCxVt24My5C1hfuhljx2YznXVX2j1imUCsTC6z5nyopAglYWTnIipOg+EEb9GaYpw8ew4bNm/DQqah7xcswpKi1fhh8RLM+fQzvDM+Cxn9BnBbFsJU7kgoo/nLfxuSMGo/0vv/GzCkK7dzODiTCxjVS4ARodOwMGT+v/bOOj7OMv36kaYKlGWBhWVhkaVQi/tMxuKeurdQHIq7w+J1N6S4FKc4pd6mqbu7po37n+c9555MKWWSJmzKsr93/jifZ+aZx2fmfO/rluuGLZnPRdl0Lb0QHZeHeJs7Y4QtTb97Rh1JadwuFYnJGi1txeXJvXHRkBno+sKP6MVC2Niv78KqBaGoXdEB5RvPw4/zeuH2d97ARTOXwG/SRgSM2YRWr6yCbdzbeH76DXh3+tWY/2YbrHgrEN+P6ohB2eej/V//jgvO6owL2nVCx3YX45yzO6LjedSFF+Cc8y/BhZddhcuuuQYXX3El2p59Oa645BJMfqgjNsw+G8cXnoUaNb4v8UPdfEpdbwsCcHBJGyydfRmmPxGKW3rwXlkIDbamI5zeJXBEOlNo2in0GvoY14XZ0hFKhSS4FWrNQqjlF4WpQZ2KSMiiR7p1MjBOAMEppdJ79Yx/23vK0wvLAwsDDIFCKUE8Eyl53quhUxHG82MmYft+d6P36q07TdpyDdDz5AlK7zUYmX2vM6O849OUeba/qZpSsj5FGGrHGDvlVdPondt3sBlnoKoqadzU19yTMvFHqmkMew24AZ989gMOHDiO/QcLue0n6DP0emT17I38ghWo47EO7juEV99+D9fdfieNXmMremDgjbfjmVET8OmPC/Dy5FeRM/hGpPQaYkZ6a1Y8jWLV4D1NM5vRS0kQ3aOeFVlovUJfdbcdO/11085RXVeLr3/4Ebfc8xBcvB9lBU0mELNy+mLWm++isrraVPd8/PW3GHzrnXwGQ3lvw/DUsy9i79795llt3rIDd93/GEs7aeg9cDg2b3UDY9uOHYww7kRECsmdzC+JP/Dhd9yNd2d/hkMExu79hzHr3dlIprEpDfs3Py0kSEqwZcc+THrjbT6rdIx47Ems5vHVDXdZ/ko89/wokxsrjseK4zFtDONnvvHmr6qkbK5kvDRyDFatW49CRhPfz52HaTNfN/N+zOC2YydPxd0PPYIkRjAxdhdhmkaYasKmHiw89DD5pjRpk4MFCeXFEgiaqj8dME4y+KZJht40tWiE8V+Axp8NGGr4jktUChsubbmIie+FmNjeiLPwu6SZ2ZLtZsCbJclh5rpxpPVDIv+viUkDYUm+GVf3vQfnPPA5Oow9gNCZBXh2zlNYVRCJA/lXYNfcOLw9+35cPmURgbEeAVNWw2/sQVw6dgd6jp2FKa90xo/Tg7D8/XZYNjkQzwwLQGTXDrjisitw+RWX45quF6N76CW4tss/cPnll+Lyf16Jyy67muqMK68MxYUXd8XV3O7evpfg++nn4+jys1G+IgA1CwJR911r1M0jPPL5foUGGp6LzXMuxOxJV2HwsAR6TgphmULjz0SIJZtQyEa42h8ITkuKk4UxJwujiUjNTkJ6dgqVSqUhjUrOSoczLQ1W+oAmvIsiXCIJjwgeI4KQDScMwrk+QlVZfKbRdsrJzwmmCGcyAcV9+FkM94uhf0UKXB5gKBmdEswp46sGZKn0pVHbmgGux6Ab8RjNaOPuA6a0uoom1f+GW01DlJlgiQasJHW5g4abH5lSRqj7pUYTv/n+bLOPoowJ015FHC+wF7f94NOv6hu9azBqwnSExzmgbI36oQ644XZ88cMC7D5SjJ2HjmP21z/i+hH38lw9MXrKTKzatBWlLN0fPnoY6zeuw5L8JShYUcDS+ybs2n8AR4uK8dUPczHiwccIB0U77omG1I9bacXTew82S09iQKVVlwHGEIAhlkSMnfE6Snm9xyqq8Pn3SovxMEvYveBiSTs1j5BJzYQmVNq0aw+BV4WDNN41jLoKVq3DmvUbsUcN71xfXFKKn36ej159+iMkLBKDCD11GDDA2LkbN933EOJpxtHJoncyht95P97/8lvsLTyOPUeO4f1Pv0YaoX0jI485Py0wI7DXETjjZrxm0o888NSzWLZmPY6WlmPpqjXmmjJ79eUfMpXGk2kig9feed88e1UJKsKLtSViyPBb8MkXcxhhlJs5P3btPWCq+rbv3ottvKfV6zfhGz4/NYbfef/DSNTETPzxONNzoBnENAe6OifoexYEmirvxt2wvCcMbCl5A0JjkpnncL+mKUHpV7iPNzg0JKXX8YDiZJ2AxqnyYvQtpT8fMCi1ZSiLhCsLsZrulFK1VDzXxQsoSrSYKLAokadmpxyIxBT+b7m9PWUALrvzbfhP24+2b2zAv96Yi7x3Z2DMj8OxLr8z8hdGo8vbS+H36mF0eH0dAqatRMDEjfjX2O/x1Oje+GBMV8yZfBnmvnMWvhoZgLfuuwBTXszDlLH98dqkTHzwRho+fCMTr47LxuP3sJBl7Ybzzv8bzr20E1r/4xr87eqrcHvOv/DjzAtxfH0bHFqkrr3nMsL4B+oKOpjxIjVLA1A6vzVKlwRh38KzMfu9bnj0sRjk5tgREtoLnbrciC7hNyHSRV/uGYPBwzvhwfs6YeQTwZj6fCRmvhKGV0dFYOaoWEweacVLz1hx/93xGDI4GhmZsbDY7IiMZdQR08/Mgng1C5ZXOezoEpeJyOg7EG8dgWhXP3R1WdE5KQ7BGhxJUFmiM2CPZvSR4K6WEjj8FCUYYLA07gGGpKlTc/pfjwefeQlblYqDxjOvYDUGsDSvXjPuaiu3Ieu1GkY1slp5m9IIn9fe+YimWou9NEDljoqxpRAYw/Hux1+awXEbdx7AcyMnwMIvXaV89cLJ7j8UU958Hxv3HMBuGtr4V980GXMV7VxP85z4+ttYunotikqKaL61xoA9KiwpwdpNmzGZpeYB199kog9nJgHGaxMgkgi3NKUG572plOlOM+6ej1t/cNHzyVfGYsPu/SisrMEn3/yA6xnFmAGA6fwhsmSvDKBDbr4dE1+dheXrNuBYpaqvfrmGMr7fd/Aw5i1cgpFjxiGNpfXQiCj0GzQEy1esMgBdvWEzel9/MyJcqUigsdsJtcG33YVJb77Hey7Gpj0HMem1d0xX377DbmEJ6HMzij1/7To89txLph73dgLnO57jCCOM+ctX4iFV0fE4uj7dt0a1K83JweMlBHM1Xh43BZHxDvQfOhwffvwFisurzPWWV9Uw2igxbRklXCcdKykzPag+//o7jLjvYZPOxcI/o6beTSB4ZZ4J5hl6N/uWkIzdW6rxltDvAoYXMDQkNzBovCcB4XRqCBje9P8nMLiPkRIS/qJYrvu1uI7HVxohS3IynE4nUmy9cM2tM9Fqyk74vbEDQVxeNmEFer8/Fa/P6Yevv87G0A8+xlUz16L1xDXwn7QcgZNX4bJpyzBs5muYNTMXC6afi08mn41PRnfAT5OuwPofb8XOdf/Gni1PYe+6u3Fow33Yveox/Dj7QQzrbcVfzzkbF19yFc5jtHHJ5ZegV8T5+OilDgRGAI5rIOHiv6B2wT9QtaRdfTqRQFQv6Yi6lR1Ru7Ej9q24GN++dwlGPnIZbhsYjBsHWnHPCCdeeCEcr864HF988Bcs+ORcrPz4AmycfTG2zrkAW76+EBu/uhirv/gH8j/9B37+6DJ8MasTZk3ohlHPBOPBEcG4ZUgweuWGIMwVis70g5A4RmzOXEQ5eyKUzymYEO7OaC7YaYempLYzGnEm5CHGnkFYKOogMAQJT2pwLT1psNWAndVnKEvZT+DHpcuxaNVaTJ71PnoMHm7qs5UOXSavVNtKTKd1gocGeblYan9+9CTMW74GH37xHW679xETUmryn5ETZ+DbBfmY9dHn7oFxPL+mbtUPVdAZ8fBTjCy+xw+LluDmux+sb1/RnOADMOTWu8xUqd/++BNLw+uwcdtWbNy61eR1+vzbHzBywhRj6JqDXKOSFT2YSKjHAKT2GoRkLk2VRH2EobTjgobSqMfz/Dfe8wje/Pgrlt43Yjyjjey+g8zgNR0vMsHFP2ymMeTeQ4bz8zfww+JljDC28Tp2YMXaDfhp4VLM/uIbM+5h4LAbGS72QJw9Edk9++HVt97HgqUFeO+TL5FECIUx/Evi+jQeP5fP9N4nn8N3i5dj9pwfcc8jTxuD1hzkT788BgvyCwiOTzDs1hF8jqkEyY2YMHMWFq1Yi9cZyQ3mPdt5jValpub1qY3pnseeNdHa9wuX424+0zj+AO5/9En8OH8xjhEQhwuPMTJaY9owBLif5i3EvEVLsfvAQZTX1ppG/Tfem41ht9yJGEaHyrWlNh99t78namiO/veB4R0MDckHjNNIoDDAOL2iWWgKTrYgPCkWVocDLguN8LqxOHdUAQJn7kWryUdw3ugd6DZxLvpPexNPTR+JF6Y+geSxHyDg5c3wG7MRHaYux+Vv5MP65jaM/+hhrPmwIz4fdxbeGXkB5syKwuG1D6K2aCZqyt5C6a5RqNpD7ZuEPSsm4YHhafhb2zbodPFVuPzvV+Cqi89FXrd2ePeZQBxf44fqTX6oXXEWquefh/KfWxEafmY2v8olF6JsycUoKzgPVSvbY/+PgVj+tj++ndzKzMWx/LOO2J3fEaWb26NuR5CZ8a82PwjVmtBpub8BTwWPVbrUPbK9ej3Xbzkf5esuwd5FF2PZ7I74YnJrTHq8HW4ccDlyM2xITslAdGp3giIE3W3JiE4cQCiw8Gy1E75O928ttR+iNZDQAwxBQlOGqvFaSw88Ummumb2HIHfA9Szl34xeQ280kFA+d/0xZOAyY/WmUlSRM+A6M5+GogE1jmb2HWwazTP6DDJzgyflqUTfE8oo25PHSqFZutNM5JnjqJ1BpYbsfkPNTH8ZPJeOpc/U6KroRTDK7D0Q/YZejwHXDadxD0Nuv0HI7NXfNM7qvFJKj/7oMexmGjOvlz/+lJ4DDTCUyVaQ8ExkpGhDr5Pz+ptl7uAbMeyO+zDopttNqnKNkcjuN5jXwmulIbuyck29vkrzPQddh56Dr0Nu/yHoo15XvNd+191semRl896Tea9ZvNZUglR5qzTxkUac9xh0PTK5TzqPK2DEpmTSJHOR3ocRHe9bk1ipa7IAqyhDx1KOKoFLaeJ1rzq/jj/whluRw+NY+cXrunSNCTyeqhkzeg1mhMjnyHu38k+nnmtqP9LAQMHi0y+/xoh77kdSagZyevQ23aRTeX+vv/0+duxllFVSiu/nL8G9jz5N0+T3zWep34h+RL4Io2H5gNG4ziwwshGVmIIuiWEIpmLsdthicxDb50F0eupDtJ22HX5TCxE4+gDavbINf39lB+Kf/Ro33UrzfOg5nDuunNFFIfxnLEW7GT/g4vFHceu7H+PHHzKw/duOKHj/MiyY3RtFB8eitvQdVB56C9X7ZqBu3zjU7R2F4vVj8eRNKbggMAhX/vUynN/xfFx5cTs8N+RSrHjnPJSt9UMloVGV3xZVC85GxcJAVNLgSxcFYNdnbbHu/TZY/34r7J8dgMLP/XFsTgCOfRuEoh9boXR+IOESgNplajT3R91CRiYLCYWFBAj3r+NxapcLRtQqfraK26xQBt0g7tcapQva4zjPufe7v2Hh68F4/cUQjLi5G0IiItApKhyRaVGwJKXAkpCGmLgkRCQkI4TPPoSeYtKxeIChtgs3LNyg0IRDgoVRnkxbaXfdIaAiADPil+bt7oLrbhxXjypVS6lNQ3MmJPagsWTlIZolXs0z7VRPG5pjFN9HJKaadaqO0RSndkrHcP/ZsmlM/c25QhgyKWJJVyM1z2Wn6epzSwp/GLyRaJa01XsgSg00vCGNuA7lTUbzB6m5KbJp/i5GSTEpuXDxHjVrn2dWPM/MfQKGog2BRFVWWq9JkHSeBJ5HVVoClOClBnKV3lMJvixC0MlnEGXnQ42zI8yaBKVhNn82/in0Wj9gPbs0GraeqwitOkCllLbR8PWMpDg+C82cZ9PxHLyf+h5ckqIMRQuhPIdGXGuyJAfhovpavbfwecbzWageV+tdhKUkyKqXQ9eoBF6f06Sj7zFgGD7/bi4OqZqquAQ/zFuEh594Bklp/C4Ii6h4G3IIo/c//gJ7Dh1FYVmZmctdadA19aeZfImSmXsz+ZaUDxgNyweMxhWdyAiD0UVoYjyBkYi42HRYMvsi5M4n0H5SAfxe3QO/iVvhxygjYMxxnPtsAbr35//4pifwzxcOo/Wko9xmJfynz0PHUXsRMW01HvniJexecSGKFl+NvQtuR+WRSSg/8gaO73wdlQffJDgmoWTfSBzdPB5vjbsLuXYrOl10EbpcfS6G9L4Uc6eEoXD+P1C5zl36r9Co7/nn4jhBcOQ7P+z63A8r3vBHwaxAbPioFQ58EYjSuYRBfjszz0YdI4m6xRrLwXXz26Du5yDU/kwgLOK6ZW3MtLE1+mwppYmdlgegmgCpXKQuxIw2uKzL52erz0HdmotQvPBf2PjlpZg94+948J5wpGc6EBblQky8BfEJFkRbLOgSE4Nr6a3B6b0IDHXbrQeGGrdPBobaLtTzScBwcZ16uaitQnBQhKGlAOGg0QoSMnOPkZs2DK1jidie28tMYarXyX0GwJ7XG5EmBOJ2Mt0h1yN9wBCaurrlKspxT/Kj/v5aChBq08ikOSuK0fnU1uE0kOlN02VEoevtM5Sl9euQzGuOpyHE8U+ewOt2EnYOM09FX7O90pxrXgpFFoooVD2l9wYavEcBRNGHqqY0X7bOm8XSvq5N96h1FhqnAKZoywM5AzJ1IeV5nNmMGJJzEOXSD5d/kFRGT7yGVHXxTVP0o+qv/qarXDSfhZlOlcdx6fiEqp6zjN8zb4WgEetKO/F8zaRRhIr+RAk8txveAoT7Wky0x+cvY9dsXmHWZGN6mgZSmYSnzXoP67btNBmEBYWvf5yHV8ZOxENPPI0nnn0BM998F2s378Sxcn5++Cje+3QObr77YWMg6o+tpdq8fFVSDcsHjMZ1poERq7aNZP5vCI5YGlykJglLsiJ06AB0GPcT/F7fBL8ZKxhprIff9H0Exxr43fIk/n79aHS+fxHaTdhJYGxF4LRVOGvsRnQYuxMRb3yJOUsiULQ6EjXr7kTd/lEo3TsFhTunoeTIazh+bCoOH52APXtew5J50zH5xfuQY7sUtww4Dx/P7IzD88JRu/rvqFjtrjIqnXcOjn93PnZ/0gqbP/DD2rf9sPw1P2yY3RoH57fHsWWtUa7EhevPQvWqtqhZSkAsICgWnUudh9qFZxMEjE6UGbcggGBoj6qFHVC9WFPVKqIIQAUhUcooRKpgRFK9PBA1q3jM1R1RW9AR5cvOxoFFHbHip04Y9aQD2XZ+N1HxiIqLQLgtAp0tkejCgnhIan8WxtUd9yRgqCpKbRkChkrEqooSONSeoUF5MiJVB5l04TQplTi1TlVQGb0Hcf/eZr3WpTKSiMugwdAQpejUTMSzpK65r1P68pg9+/J9DmJYsrVk5xEY7naPtJ79zbE8BigwyYzdf0T+WfhH1HpVhSX3GkIQ8DzpNC8upQTeg+TMI3B6DuJrmjDvIa3vMBNVCBhaKspQ7yi1a2hwn8xPk8G4gdKThsVz8j5N9Rbvx8ZrN2MPGBHJ3BPr22k0l7a2SSVENebDmTOQYOK1ZPE6MjXTnhrUeXy+t2bw2fYYbOTgNlYe35LBPyiP7VL0xXsVmPT81KajhIiqlvJ0+xWo1CYjsLjh0sdcYyijjLiUTLOvtpFUzZeY0w9pfEaS5uFWxKMqv8E33mEa0Q8UFqO4sgqHGW3s2H8I2/fuw879+7HvyFFGIGXYV1iCuUtX4JZ7HjEzK6rQoJnZNKNaLP/07o4D3s2+JeQDRsPyAaNhqdFbs/85k/rB4eiJOBpcmMvFAlo4uvfIQseXvkfAzM3wn7mSy9Xwf5WwmL4afmNW4qJ7Z+Oa22ai7SSum7EXrcbvQOCUzfCbvB7nT/4BQ2c9jM+/HYBjq4eiZvvTqDswHhVHJ6GwcCyOlhIe1e/gcMXnWLFyOr56+w7MmRqD/HcuNJMsFS35C0qXc0mDL5wfiANfno2t756LlTMCsfoNP2z5yA87Pw9EIY2/Yv3ZKFzN16v8UbQiEMcWB6DoZ0YmP7dG7dKLGEFciur8C3B8cSscJnyOFPijbEVbRi5tUFqgyZv8uXRHMpUrGWmsCjSqXMHtCJfSpYGoImyqFwQQLK24bwfsWnQFZk+PQQ+lWw+NRwgjpAR6SExaLwRbNReOGxYnAYMl8iwZFIFBk9VczoowVJrUD1SgUOnXAw5VFan6yfSIotHLxNXOoM/Vg0pVUapySu7Vn6V8gkYlaUYViiYSCRRVUcWoKoaGqdfxLD0LEHmDGHXIgHl8wUHw0LklHVdL00hPg7blDiRw+vL4AxnJ9DXwsLP0nsRIQ20X8fwjKoJIUVuLqZJyV0sJEFqfxPtOJ/DU+B3L0nw871PjC9TtNo7XIyC4IUNoEiKqNvIYtnpdCSICiKqy7IIVAWFl+Bar6TJ5LQKDFMcoQ9NYJhMWrhwNAhTkeA053EYjqfnMPNKz1TNV9lxFGCYFO2GpXjduaHEbcw2M/Pha02aqSk3g0+fKyWUVXDMYoRFUGkypgZQaTKaZzjQ39y13P4TJr72Nz7753jSmr1i/Geu2bMfG7TtNRt3ZX32HsdPewJ0PP20iFZmZpuC1MkKK470pakqg8Xoz+paSDxgNyweMhiVgWBJZsHQNhMvWCxYaXXhaIsKcsejO3+/Fj36HDgRBq6nb0GbKFgRNXoXAySsRNHU3LnhhLv756NvoOCYfbSdsRtA4wmLSVvhNW48205bhqonfYvBbo/DG93dj/erxKD38DmorZ6Ho2EsoKvw3yopeocbj4OZHse3nPIKiE4oIiapNfijW1K006L3f+2H7pwFY93YbrJjeAQXTW2PLB21w+Lt2KJwXiNL8IJSvasP9AlCcz+hAYqRQvoCRxELNIf5X1C25kJHEuVwfhKJ8fxSvJAxWMqpYEYRKnqeCUKggNBR9VC7zR9UyQkNa2gqVSxm5MFop5zGruX/donaomx+AuhXtsX/5RXhr2rUYMtSC8HgWDBP7IVY9qAiMKO/AUJWQQCAADDJLd52127BVLSM4qErGY+qe9gytd1cd0Ww15y/XqxFXjd6q1knl557PVCpP4/6qWtI6U9VDgxYgVAWlBu9UGqCiC32uEreWZj4GtS0oAqDx2vMGMVoZhOTejCBy+8NCs9dc3gKDekdpOlE10Ft4Ts3A5+4lJWN1l461XUYfVTn147aamzjLmK/aMwQPGa9goiosu85vzJrA4/ZaOmnaplsun5GFJqpqp9xBN/FadX5FMnw+NBw1usclE7pZei/T5TPT8TRnOaHqIDxk9tZ0d8SSzOOq+kg5rjQWw9MryW0uNCVVCfE6PT29BCw3tNxgEyg1b3KkM8tEBEm5+q70PHsaI1Ckod5X1996Jx555gWMHD/VDKwcP/11vDh6IobfcS+UfkHtHypZCA66JxshlJDZm9eseb3dkdipRt9S8gGjYfmA0bA8EYbdxf+lRoHbExGZmYSwxGSEJA7DtbfOxvnPb0TQhP1oN3Yv2ozi61EFOGv8Spw7aRn+OnYh/vrsIpw9cilaT2EUMn4rAiZvQeAMAmTyHlw09Qckvz0Do378At9v/AZrDryPzTufx54Nd6JwzY2o2jwctRuzad7dcXx+O5Ss80PZLn8cWkJQzPHD2g/9sPx1PyydFoCCGUHY+G47HPr6bFQspljyL+V2JVTFYnWzDWBE4Wcas90KNBNC1S5oj5r5bVCziAAhIDQlbJ2W+fVaFkiw+PNzQmY+oTGPy3n+3K81AcF9l7RHOberyldjeUfUaADhAm6/LgCFO8/CW691R6+8dEREJ1JpsNqzEW1P/6WXlBq9BQoXTU5tFhqPIVio8duspykpmlB1kcknRFOTwWvwnrrUChpap/YMd7fanmbsgxqL0wUKGRvNRbKYErN6GTFKoBGqykXbKLLQOfRjVfWWp21Ejd+qjhJMdD6VttUDylRDERoumnQSlcjrlYkn8xj606oRODE7DzGOJATHWExEoJ5SiioUXcjkVS2ldgwBQ+tk5DJmQSWFZu3isazcL4bX7OS2mQOuM+sVvSTyMxm0g+au12oTufORZzB62pt44OmX0G/47aY6T388le6VIkN/FCVP0/tMgjE2LQtd42y8JjW49yGk+KMXUPmcBt80ApNffxcvj5uKQXxt47OK570rSWMyIyabngefewLXJ/AaLdxH66xcxtFQ4gimhEzChs8oKY/fQ++hhLR6U9HQeJ8mHQqNTRNHKb173oBhphdXOu8li0sNiOoWbTNVdYKO6jBdBI8jW5GbYPFbk29J+YDRsHzAaFwahxHF67c4U2Bz2BGV4URkYi6iHbciuteLuPSRrxDIyCFwzG4EjNyOwFdW4ezR36H9tAJCYTvOuu9HtHvxRwS9VYC20zaj1dhd8B+9D4HT9iJo5lacO3MNus9aCeebX2Hwu5Mx8vOX8N4H92D+OwNR+GMOyn7uiuKf25oqoOPLW2HXT22w9hN/5L/lh0Uz/DB/qqDhj82zW+Hgt21RNK8NS/w0cEKhhlFBDSOE2tVtCQNGAIRHLY2/ZjEjAr7WAL9aSnOXayrYXySgqBGcWqilGzKm11SBe1m3mND4mZHGz4JFEGryCZplhMWac7h/W0LID0WMRDYvbId3Xr0Q2enBiIpOQZxTaZtOGoehdgtPhOGJMrROIBE0tHSPg3BXPQkIOTSY2x54DCMnz8RjL4xC/xtuM1VSijaSafRKDZIq2NCYknhMdScdcd9jGDVxJp59ZbwZwZxFA0+hyWlbdaUVJAQHwUcQ0vv7n3oe4197Cy9PnG4iGxOJ6Dw5jH4YYaiNwsbjy/AFNl2buphm9eqHl8aOx+RXX8fjz71Iw3QP2FNVjgAhg1ek4B6HoTaBfsaoVPIXMAQgNaqrtG7hevW6Sus7lOdjZMP70mdO7c+l8mAp3cjYaa9hxYatJgvuA088ZxqsBUS1RwiOZtCbzJoGr3YLtWGo6k5VUWrwVnQRz21yCaZnXxmH5es2YV7+Krwwdgq378dtuS+XOn887yWGx9K1xfEa9TpBz6H+2iyMBtR2onYVQUON8XZGB4oyVC0lE1QPLE9PLAvB7OmZpVH++lzGoahCjfVK+6L2GXs2IzQex23svgjDm9zAoPHqGTZRPmCcRs0ARjQLXd2yUhGd5oQj0cr/hhXRLv6OE27i+7648t6XEPDaQvhNXgO/8ZvgP1FVTkvRavpG+E3cg6Dn8tHqxUUIHL8MQVOWod34jWg/6iBaTTiGwCm7ETRtHbffhg7jFuGSUbPhmvYlbpryCca89iqWz3sSB1ckoGQVjVgN3N8FYtdbHVAwqx0WzOyAeZPbY+4kRheEx86vA1CyzJ1LqlqmTtOvJRhqZfoFrc0Yi5pFrRkRdEDVsrNQlt8ORYRCiaqaDAhk+Oo9xXMt4WtpsaqZuC+jj5pFaqPgtgSHgZE5tpY8H2FRo0bw5ZqVsB3XEVBzNS854bWyLbYs6IhRL3ZigBCBTnEJCNcYDeWWOhkYMly1Y5g2Ar43wMhTr6j+NDOaGkEgcKjb5j2PPo2vflyA/YUlWLZmE01tsokQ1ENB1Ueqg09SFREBkM59br/nYbz5/ifYfegYVqzfijGTX0Ve/2H182qrrr0n93f3wlJkoaSCWX0H47uF+ThWVYeNu/fjvieeNQYsaKhhO6nnEBpofwMCgUbRh4WRRUp2D9z/6BNYu2mLGVm9ZtNmlvhvQxRL94KDGcRHWCnCUNWTGsJVXeWpflKkovxTcfxzxtMsE/kMdB4lNJQsNB21USSrYZ3vFZlojMN7sz8xqTg0YdQr46YgIt5hRklnqN2GIFW6Do2d0POL5p9AEUpqH4JMbRMGGmq4zsL1I+7B27M/47MtxL4jhSZNSArPFcawUNVB8TQx97XRPGiuiiiUi0vVRKqSU0ShthRduxrb1b6itgfl6lIEqe/XVDNS6o2lDgyqptJYCz1DmYUKDur04K5a60fwDOA9u6uk9F6gPbPAcKenaaoMBJqj30ChMakq1DscvKm5EYa2NRBojrwYfUvpfx0YUQRG16w0RGYkwZHsQGxyAiN7/hcSWHiyxOKa229Gu+kfIHD6fPi9ug5+s3ZQO+E3ZTv8x2xB4NR1CHh5Gfye+IlA+R7tJheg47h9aDWqDK3H7eD7fATM2E24bESr0fn467jNCJ50EL3e3IcX587H7NWPY9naOGxf/A/s/egv2D7lXBS8eg6ji3OxYNq5mP9aEFbP9sOBn/xQsZKl/nX+qFnDCGAFowhGB1U/cR3NvmZxK1Qvopkv+wtN/a8oLTgHhUsDKbVtcB9CpW6Z5ixvz2iirVtLpHbcvy2qFwSh/Gd/Rjw8D6MHU8W1nBAq4GcETTWjn8r8QBTPVYO6YMNjLTmL0UZHlC2/ACsXXIkHnrwKXa1dEBzvIjQYYTiSCAwavUrdHqm0rcZhLfXe1Oln9oJD7wkCiyMFY8dNxvHCYjOfdHFpJeYuyjc5pUJJIGWIVQleEUGKqqjSs/HA40/hxwWLzGAwded89+MvkMFoRdkSTXTDUrdK4qoeUf16PEu6mp1PDbJKoHekqBhf/zAXt991L6ITnDRxGnzeYGOgKT0HG7ipBB8Rb8cNt96Bjz/9HEdpuEp/sWnLFgy7/R4aUU/ejyIkjbVQDil3XXxKj0HI7HedgUWCGqTVYKy6et6HjUslU1RDtaebrD5TiT2R5qwusoJqnwHDMXv256iqqcNBQvSVcVMRRehpnIYa9JX+w9WT5+xB4BAcsWo4VqM0QeCsj2bi+JyU5/+mu+/B7C+/xIHDh3Fg/37M/vhTc93BCSz987yqEnPxuTrUwyyH5prB60rJNKbmUqQlqPGPH8c/pxnzoZK1iSw03kWdCdzQ0LYa4KceUO6BeDRHQUCGynWK2rR0t5n8Ug118uszI53fXQBQu9XppMJC8yHQXAkaTZMngaCihqaJRn2GIdAc/W8DIxOxrmzE2FiQcqonYw/EpGchJpnRszOVvpKCsH434vIHxuOcUd8j8M1t8PugkNHGPgSM3oLWY1ai7YRFCHrpK/g98zH8xv6EgEkrEThhG/zH7jXVWEHjd8Bf3XGnbETA+KU4e8JydJywBedOOIS/TzyMrtPXI+Otj/HkB4/ivXdSMPf1S7HotfZYOq0VlhEWBd+2xd75rWji/ihlib6YkUIpgVGzkqX9ZYFmMF8tzb1O1U9L+FpdamnwNYxGqhlhSDWqftIAPrVrcH3dijb1EQnXM4JQtFG7RF1xue0CRS6EUL5A8RdULrmAMOrA4zGaWNYahwmo4oU8hsZ7KEohrGqXtiOg/oFvZ16N2weFoEtUMq6KTqA/xQoYKpV65AHGL1LjbRzNJp5/ZlMd1bMf3n/vI9TRHJU9Vqa8ecdu3MIowlSRcFtVoaitQUkDE/hlPfzU01i0PB9Hjh/H7oOH8MFnX5rBcJroXA3SaugVKFSHrigi3pWGITfcalJu6PgllZXYunM3Ro+biHSN7SAwXASGuq2acRU8XxpNNJGm+8qosdi2YyfKysrNvkr6d/3t99JUaTCEQKLM3uTN0ngStZcMNPX7Fv551cCrz9yRVl8CkvcvcJiqDI9osuY46grb3wxu7NVnGD78kBEGn8nhwjK8NHqyyX4r0zNdcxVB9O6PhLxeiMvkdfC67ZpnQ11uad4JipwycxCZmIThI0bgg08/waEjh3HowH58PPtTpDGaCney5K/qJT4ve/3kS6k9FQ3S5FMZ2dFoXQKDrrHe6FQFo55uBiSChAEFo4R6UMhoGx617YbILzp53anbtqR47V7A0JAMMIxZn2zw/z2pjerUaqTG9GeChfS/DAw1escRGBYbo3AXC3ksmEUTGLEpSfQUByyJqYjJGoTuQx/H3x59B+0mLIX/a9vhN2EXgbAVrSasQbuJ+Qh65Tv4/ftz+I2axyijgJ9v4HIL/MfvRMBERiOEgj8jjaCxi9B+1DK0HsXPR+2njsFvzCGcN3ElbDPewU2vPYGXXuuFD169Gj9Pb4+Vb/lj44LWjBJo6PMDULSgHY4tb42S1YoYWhEYrVBOWBggnJC7PeKX915kwNKeOtsARD2jygicCoKiuh4gdQRIjWkw1zaECWFTvqgViqmyZWehanlHlHLb8mWMRpRRd0VHHJxzCT56sSsSUpz4V4wFEfaYk4Hxa1CYKIPRhXoDaUxDdJKyoPbAw088iwULlqCmsgaVZZXGlPcdOmymD+09/DbTW0kmri6nqu4Q1R968mksWLYM+44cwaadu/DWR5+YHlEaJKeGao3uVoQhWKiaJJalgaE33U4Q7TTHL6uuNUnyPv/qa4y490HuM5BGrHEUg00pTb16VC10y4h78OXX36GyugYVFe5r27ZjF4becifDKXdGXE/7jMxTpW5Vv2ipRh39UfS51nm2U4lRJuseyMjSO7fRuAatlyE7qWxGGu+8687OW1xei5cJjJBom7mvjL4EmxnEmIcoGntkcgbNnqaf1c80TkcxMrIYiKiqKgVDbr0Vs95/n+ApxBFGGR9//Bmy+l5PutMUGRWpCiwmKQ3xaYzOctTdORs2k+NKqUF4HD4PXe+JSKIeEuY+60Ghaz9hVFye6VQfzRON1wsYGpIbGL817v+WTk5R3hT5gNEENRkY7qXa5GJSMhDB/0hEWgojDCcSXHY47E5YE7MRlnsTrrzxefz14Vlo+9L38B+3Bn6TCIQpjDKmbEar0YTE8wvg99JCU+0UNGE1/CeuYySyGX7TNlKL0GrSArQdswztXl6Fti9vRtDo3QicvBf+UzfzGEtx0cSv0W3K58icPg1PzOiFT1+7FOs/9MO+BYEmFUj1PI2xaI9jBa1RrqqppW1QtVjAYETgDQrepMZvQqFuLvdZcDajiAsYKXRAOaON4wSC2jzKBYolqrpqg7oFjB7m+aH45yCTakSjwesK+LmqoRZfQJC1Q+FK7rcmwHTxrV18NjbO/geG3hiDUIcFobEJHmD8FhaqijKNxPw8vd9QGlUWsnr1x2dffYfDRwpRVVmFI4eOoLi4BEUszS9esRYPPz/S9NzRfgKGurRqeP5DTzyFhfn52EsD3MCo4c0PP0avITeYxkEZmiIM9dgRMNSrSlVSbmC4I4wyzctNCGzasg3TX3/LRAUaQKZlZq9BiLQmIiEpHdPfeNukD6+prUUFoxIDjO07MfCG283IZ4FB55Np6o8h89efI9aVifAEhqvWJFNN5jFalcC1radNR0v94MMsSdw+GRE2pfHIOAGMqlp3OvdxU2YYYETzc1XjJTMqU4+oTlFx6G5xItymFCGKEnrxh80fOSMjzaQXQ2AMvvkWvP7uOzh89KgBxmxGGOm9hyHYolHeGQi3JzMyS+H98/x2O/8kyQRGBp+ze6pcRz3gTHtFfTSh+/ZEFL/VqYb93xavyQsYGpIPGC2r/3lgcHurIJGWhLDURIRS0QKG0w6XxQp7vAOx9iwEZ1+PToMexN/vGo+gl7+H30RCYeo2tJq+D4GKOF5Zj4Dn89F+ZD7OmbgCQZNXwH/6WvjNJDimLkfraavQfuoWtB23DW3GbEeb8dvQfsYWBM1YB/9JBWg1dgVaT9iOi6auQfbUlzHjzWjs/NwPZSYHVACq5gXh6LIOOL6ytSnR1y5si+qFQaaRusnAkJRXihCo/jkAlfPboHZJR4LjPFQSAkWMPIoXBaFiEdctuwR1K85B8YIgzJt+CTZ89hfUree1EFbVi9ugYmFHlK+6kMD4C/YvbWvGjaj6a+8PZ+Hpf3dBcrYFIaH1bRinwkKRxQlgcF16n0H8Y2Zj4PCbsWrdRmPExwqPY85X36CgYBXKqmrMqOGx01+DRiDLrNSbSeMmBIwHHnvCRBgHWWresmsP3qYJ9rnuZphxBTQIF01NDeWqljKJ92h8A6+/6USVVCWNWBMBlZZXYHF+AW4Ycb8pMZuR37l9YKfpDrzuRixcVoAygkz7VNfUmKUg0/+6W6Ch7aq6UGNvj0E3YMRDT+HlCTMw6bW3MYWgmfTamxg3/Q08+dJY9Bl2i2lMjeePW12AreYPlIV+19+Gh55+CaOmvGay1WrCpZETZ2LUmCmYt2DZCWBMnvkGohOS3LMJ8toUTd3x8BN4dsx4jJn+Kibw8+lvvYcJr83CnY89hezBwxCXytIQS0DDbrsd783+2LTBHD50CB/N/gQpjKiCramm2kxmevO9D/A4MzBuxgxe+xuYNustM2/6fY8+g/689lRCXs9HOlH1JCOjZGqmqkrRVaZ7G7VVeDfv/4ZovKdAoTH5gNGy+r8ADEuqE9GpDoSluBCqaU9ZuLI4XHDEJ8ARFQ+rCnN2Rvvp/dBl4F3o+PAMtH75O7QetwpBU/cicOphBIzbA/8XCYVRBeg4eSVaTWbUQUj4Td9gclEFTN5NOOxHq6mMLBidtGIE0nbKWrSZvAatxhMsY7bAb8Ih7rcfV036Ci+8m4cDP9DYF9OkF7QiMNrjcMFZOL6qNWoLAhgltEPN/NaoWtY8YNRqcN5yd2+o6sWqaurIaOKvqJ1/Lirm8XjLA1Gxpg0OECD5sy/DWy+G4IGbY/DSA8H44dWLUagcVCt0nLaoWngBShadi2NLWuOYGsrzW+EoAfTWm1dg8NBYhHdPh9+vQHEKLMzSlLbzkN2nPx575jns3LvPGPHWLdvxwP0P49XX38bx0gozu967H3+CHOWHqi+hq0dQnDMZ9z7yGH5evBhHi4ux88BBvP/plzTlm0yVlHqJCBiChQarCRzRtmT0GXwd1vMcOlcFzV9TolYr7faRo5j86psmK6zaOjTBzyDCZcrM17H3wGFGIrUo0bY17vky1m/aggGEUyQjAk3FqhTrjz8/CnPmLsLuI0U4XlmL4xWVKCJoihnJbNi538wf0XfYzWa8grrEKsTV9b0wZhIWrViHwopabl+No2VV2HOkGOs27eS5j5h5sksrBYxZsCTy2ihlmn3w6eewoGA1DpeUoYzXVFpdbSY2Oszo7Ot5C/HoCy8jrXcfEzFcf8cIfPLVHBQeP46DBw/hQ0ZjKbkDEGJJQQojqlvvexgff/s9jpSX83qrUUIVVVXhaEkF5i9bgZfGTDZAFAj0HQgMBhgec1IVFJ+5QOIDRsvLB4zGdSaB4VY6z2NjtG5HBCP2cP53I7m/8kpZ452wxViREB0Pi8VhOvBEZPXFP254BH99cBrOfe5rtB+3nhDYz2hDbRLrGTmsYSSxFgETVhAUGhm+GR0IgjYTj8B/yj5CZDv8pqznZysRyKiizehVaDeaxxi3Ff4TdzPa2IO24zfg4Q9voTlrLIWA0YbAOBuHV5yFotU07HwC44f2qPmZ0UYzgVGT74+y1QTGKh5jOY+1tB2Pfxbqfu6AOk3KtDQIWxe2wcfvdMBj94UhJ62XmbI1ISEVt/e14Jtpl2LPj+0Jilao/PYs1BJcat+oWNIK1QRaUcH5WPDDRXjo7kjEB2d5gOGBxC+wcLdDaCQz/8SpabjzgQfxBY3qcGERyipq8NPchXDREB94+HHs3LMf5TSuxQUFePyFF01DtqqbFAGooemehx7BD/PmoZDA2HPosAGG0nxrJjxVXZmpU3sOMCOcVSUVzi+218Ch2LB1mzH942VlWLl2PXbv209DrsS6zdsJrxcQEhWHUH75z7440swap+hCQFu5dh1KSsvMvhs2b8WQm+4wczpoUNrjz43Cd/MXG7MWIHYeLETB+q1Ys2UX9vPeiquqsYvX+MYHswml28x+ef2vw6hJM7Fy01bCopqqIlj2Yd32fdz/GI4eL0d5ZY2JMApp3OMmz0C8Pck0+L8wejw2bN+FQl6PZvLbf6wI23bvw/7DhQRVNQ4XFeP7RYvwyPPP02zSMPSWWzH7iy9x9Ngx7D9wAB8QGNm9h6JTqMV0JJgzbxEO61hVldh9+DA2796NHfv3o4T3XlZdg+Wr1jICu89Un3kGXwoaMrITZkDptQceMmnv5v3fEI3XCxgakg8YLav/eWBoPJGqah2JZtBpVBIN0kXZc1hoTEVsggsWmwNWhxMWJ7fh8YOzB+CaIffhn/dMxHnPfYM2E5RjiiCYuIng2IKA6VsZMaw2iQrPYXQR+fpBXD1lJ1qPWgP/UZrWVWM6KEYjQa8sRwcuzxnPiGPiRq7nccYexoOzH0CJBtgRCHULWPKnqR9d0QHFq4Jo8gIGjVr5ovS5FzA0JDWQl/G4SgWiEd61mvZVPajWBqBqrT+WfdQRL973L2QlxSHKkoRgRxquiMnCNdG5iLPkohf9edQ912D5e+0MNMxxFzJSWXUuqgo64viy9thacA7GPRuMtFgDjN/CQlVKHmBovgprogsvjHwFW3bswvGScqzfsBXjxk9DdEwCrht+C36cOx+HjhZi1/59+OCzT00VjMZkKAW4TPPuhx7Gt3N/MsBQL6l3Zn9m5nlQhKExEZpAyVMdJWAowug/7AZsrJ/WdO+hI3iHBj5v0RIzq11JeSVem/U2cnr2Qf/Bw/DeR58QWLWm2uoHXsvUGa9h/8HDZt+NW7Zh4PU3I8aejCE33o4vvleK72Jj4N/MXWCqcu5//N94+OkXTXffbXsJP+5XsG4jnn5pNCKtLtw04n7MW7YShWWVjCgK8f2CJRg37XU8wUjlRUYdX3z9A3bs2WeAcbSoFP9+eRTCYyy4/pY7MOeHuSjn+sMExewvvsJ9jz6J+x54BM+/NBKzP/8Sh48XMfIowSfffouMXr0w4Pob+Hxmm0bv/YzG3uN9p+b0w7XhFvS9/has27nb3NeOgwcwcsI43P3wg3jiuecw/Y03sHDpMj6jZbjutrtNdOFu3NeASkYZNDOZk7rcGlh4TELGpQjEq3n/N0Tj9QKGhuQDRsvqfx0YsQRGTIKT0FA32h5c1x9Rzn4It/dEqCPTzHQZk5xC70nlsdPM9AFxthREZ/RF8ND7cNl9E3DO85+bgXtKPOg3Q72idhEG6xA0ch06z9yGp+btw4gvNiFk0nKcM3IV/Ecr75R6W61BwLhlaD12CdqNX4XW4wiMMXsImhI8/PFjZvS3GZW9KBDVi1rjmEkYqIF3Qaj5qQ1q5tOwmwkMRSNViwgMRi8aDV63yg/HVrTBym//ilmjLsN9wxlVJCcjLr4HusWmobPFhjBXFkKcPXBNbB7+2SUTdnssHhtxOea+fRaOzNVx1V33L4xezkLFigAc39AaH064FoPSU+HXGCwkdaXNzMuhQb+OIppsGUvJii4eefRZ9O4zBCNYmn3nvQ+xiyX7sspyrFi7GsO5zpiQ0lcQGIowvv3pJ5ppkamSUi8ppQ5RFJLZdyhh0R9JaiwnLNT4nZCcSXO/DRu3u9swNm7bhWeefwmvvvEWz7MfFVVVWLh4McaMG48Zr72B/IJVKKaZa57qSVNn4PY778HGrW7YbCZ0BB+LKw13PfgYtu3Za9av37bTvLfxXCHRVsqCW+96AF/98LMp9e8vPEbj/hzRCYl48IlnsffIcTPl7M9LljNKeRl5/YaYwXnRLLGMuOcBRlDzUaEIo7gcjz/zPMIY+YwcO5HR0FYTFW3YugOPPf0cQiKiERsbj4zMLDzyxBPYvMsNgHXbtqHn4MHoO+w6zHr/AxwiMA4Qeu8xwkjK6oPuMQ5cd/vdWF/fc2zjzh244Y5bEe+0w5aUhKy8nnjgkSfw4shxZtIrU+WU9UvPqBOjnI302rPOm2n/N8Xr8wKGhuQDRsvqfx8YGYhmdB/nyIDV1ZP/+/6EQj9EOHoghEYZmpKByPRMxKRnI4bPP85Bj4p1wkZoxLJg1nXYnbj4nlFo/+xstJpQAH/BYsoeRhLr0XH0eqR9sBUL9+7Cd5u24M5P1yF4ymZGE7sQOHUv/GdsIlyWEzSL4a8qrLGMTEYdpo7j0U8eRfVKAkFpOpaqasofpcsDUJHfFrWL26NifhCNX9FB84BhpBHdCwNxbGEb7KXJ//TZZXjx6UikOJIR3D2PXiQfVyaJJERYrEjJTIWVz6CTLRUXRNtxUYQN0a443Hv7Vfhs8l+we05blP/Ugcdth7o1rVC7ORBz37wcdw+xnwyMX4NCUtoNJRV8+PFHMG/+z9AgOmnJsgJMmTYLr896H2++/QG+mvMtjtDgZGR79u/Fi+OnIm/wDfwC002V1H2PPIYf5s83wNCMb54IQwn+lDFWvaPUvqCxBKqacqRlG2DIZBU1rN6wBXff/xDuf/gxfMpS+lFGM0U6Fs12K6FymO8PHTmKr7/9Dvfc/yBuuOV2rFy7wVzPFhrsdSzpp+f1xVPPv4Kd+w+gtLoOPy3KP2H6agcRGPoPuwlTXnuLcDiKMpr/d/OXIJaRyZPPvWSiBDVov//J5+g1cJhpaNe0p47ULPQfej0+/OQzlFbVoLiiGi+NGovE1Ay89uY7jDz2ori8HKvXb8THn32JadNfxWszX8OUKVPw9nvvmrTiboBtQ68hgzHghhvMqHFFGAcZWc3+9Ev0GnQDukclmNn48teuN9dxvLwMqzasw0effYIXRo3ErSPuRK++A5FCExWoFUnIvGRipzZym15UpieVu7utrw2j5eQDRuM648BIykQUo4cYFgQtSfw+CI14wiKaYAhjRBGamoqwNEKDzz0mqTdiHZSFcElIYsErGTHZOeg04GZcMGIUznllAVpP2gF/AiFo1GpcOmU1hn29CVsKt+NQ6SF8tvkYbv5iP4JnbMfZEzcjiMDwf20do5KVjDZWwW8cI4+xewmM3Xjs4/tRs5JwUAoQpfagTMoOzeu9+ByULAlEuczfDMg7BQiNSbmkVgWguKAjVs+5ElNfiML1/dN5P30Rbh2I4IQe6J5AcMQlIN7uQiKjDbtDGWkt6JzgQNdsO7rl2dAt1YFuoSnITYrFmAcvx4Zv2qKi4GzUFZyPunVBKJh9EZ6/N9oDjFMjC41m7m3SbvQcMhxvvT0LO7ZvMcYmqbpn9bqN2LZzL7aw9L9j525UsdSvzwoLj+CT737Grfc/jhgasRq91UtKjd6FJSXYe/goPvria5NwUCnEzQhzAsOToFDjMWIdKehNU16/xd2God5S9z74MHr2HYBHn3iK1+KOHurqalHKqEdQ2cMI54knn0Zuj1644867TduFttlCoFx38+3o0W8wRo6bRIM+iOLKGvy4YKmZazsizgYnAaVBf9k9++NRRgE76hv2l61ah+TMXDNHtxr1BcuZb77NqIQ/YpZi7Fym5fTktQ7Bu7M/NlApq6kjMMYQGOkGEAd4vyVlFTh4+Aiv8QD27NmP/Xv2YPu2rdi+YwdKKivc17lnNwbddAOG3Xor3vv4E+znfnrOn3w2Bz0HDkdYvAspOb3wwphxWLJyBUpr6p938XEzv/k33/+AqYTRXfc/QhgoWaMSN7q7BSvK8KR9cXdGUHdb9/gTfe7duP9bovF6AUND+t8HBuXFuP9b+p8HBkERlZ2O6Ex3ctQEB/8HjDYsKhQmJSIs2YUQgkEDYWPtffk/HoyQxH6IcmbCYU+A0x6D8OR0XNn/flz69Lc4Z/RmBIzehg5jVqDrrALcuWADth49iPKaCqw5XoUxy/cj8Y3lOPv5HxE4mpCYup2Rxg4CYzX8JjLKmLQarUevxjOz70KNxkgo9XgBowhNpaokgQs08dG5OLY8kBEHzX9ZIEFwMjQaiji4Xm0Xi4Ow+su/Y/aUq/Dcfdeib2Y04mNSEBqViwhXDiJSCEmXEyHxTkQTjBZ7NqLsTjOEIMKWhfhMvs90oIsrBv+KSkVodC5y09Lw5Ihr8f2rl6Nw8SUEUits/bojJj8XDD/TK+okSOi1qfem6Wjk85BbR2Dh4gUoKT2OqupqHD1WhEOFx1gCPmaWB4+odF+IwmPHUFpWjOMlx7Fm2278e/Qk/gD5RTuS8ODjT5putUoNovxIs7/8hqXp4fxCs2hkPU3bhXojCRjuRm8HcvsOIjDcpr99zz488uQzcPKL7NG7H36aO9dEGFU1NSirqKAhl2Hxsnx+1gfxNgfuIVy21Vf1qEpq8PU3olf/wWZ8xI69h8y4jsXLVxIigxBjdRAKOUhjyJZB87/7gV/2XbV+M3KUyHD0eP5A3BHGtNfe4I8vGQmMnASZjNxe6ENgqCusqqS03b9fGgmbKxlffP0dDh09huLSChwrKsY+Rlfbtu/CLkY9u3buxE6eZwfhsWPfPny/YAGji+G46c47GcV8hj2ExZ79hzD7ky9MosZoewojsGy40rPw1AsvYOHyZQTpVuw9eBCFPLZ6kh09XowfGRWp27HSgaj0Klh4QKEIwzMuw/SckrlJfO7ezfuPl7pZnwCGYNAEnbiPP4sMCGjAp9XJEYY7p9eZkCDQHHkz+pbSGQcGPSc6hyI0YpPTYHWkEhgpjDSSeSwnIhIdCHW4EJHA41p7GWB0TR2KEELSaotFclwY4uIT0Dn7Zlz55FfoOGoLAkdtw9njliDug3w8u2w7Nh8sR0VVLbbQz0YW7IT11Z/Q7tEP0PrJbxmJrEXg1H0ExUb4TV6GgMkLCJt8PP/xCNSu6IASwkCTHFWpK6vaHBa2JzA6oojAKFN68iVKOKj0HIICwbFEjeKBjEz43gMTkzqkDWHRGpu+6Igxz0VhcL9o2GK7ISQ4GBHRMYyu7IhLUW8xB6ISk1h4z0SEJRchsXkECKGayMKBow+jDcIyPhHB8eEEhw0RSX0QHH4dwjun4+7hMfj+/U7Y+2NHbPjqErw6OhIm+aDMxJQ4aSZKeaHGUpU8lRPq3sefxcb6AXRHaNJzfvoZ7378Gd7/9Au8/9kXmPXBbLz+3gf49JvvsJ6l+ZLqGtNTaNZ7s5FH05ex3v/IE5i3JN80CG/fcwBvcZ+eNHAHv9w0lprVfiFgSC6eVz0dBt94+4k2jE279uPRZ18iWHohOasHnnjuRcxdvNRMNVpeW4tFBQV48sWX+Tn/eEmpuOP+h7B2q3vfDdu2mSqj3N79MXriVGzfe9BEC8tWrkUO16nXhNKN2AmjngTIS6PGESoHTNSynBGGgPDy6HFmHwHh1TffJVzyDFxSs3KRTBPv2X8QZr37IQoJhqLyajw/cjQcPN67H32C3QeO4MixEixYuhxjJkzBiLvvx/0PP26q1+598FEzr/Yd99xvohRnaoZ5/dmc73Cw8Dh2ERg6RlaPvoiyOGB1pbCUYOcyGdk9emP4LXfgRUYzX377I/YdLjSw2nXgMN748DMMuvlOM8BQZqRqJ32f+rNqsKIn8jDVU/zuNbfGmYSGp82kqfpNUkGa8K9K8KfIJPA7gzo1KjidfoFAU0WzUhLIMyADAE/EoOXpdIrBt7TOfJWUGxqKNFQ9ZfZ18Rj0FM2PE+NKQzRfayBvjCOLykGYvSeCnXaEOYMJFwdi7Jm4uuftOHv0jzT8Q/AbdRABE39Exker8H5+OfYerkVdRTE27N+L9I+24Cx1p332K1x030ic//S7aDNpA/yn7ycwNsFvTAEjlPV46os7UacutD+1RuHPbXFoeWtUrSQElM58SaDJA6U5K2rmt0fpfKX1UGTRikBR43MHVK0iNArOIiw0VSuPs+wfWPPlZRj7ylX0tgQz3i2SHhEWRyhaXYwikhDlSEakxMJmpD0NkbZ0RhUZXOe5fw2sJjxsqVyfaAYEm8HBliyExxG2BM2gIXZMHRWNj99IxcRReQSGAJHjTmV+cklUxjL0tnvw6nsfY+fBoyiqqsHydRvwwFPPYvgdd+GOBx7Brfc+iFvueQA30wSl9z77CoXlVaZaZv6S5Xj4yX/DRuO8454H8dPCpQYYu2lo73/8BU12iCmpKzmhAQHP66maUs+FgTfcZgDkBsY+PPTUC0gVyNJykMt9J772JtarSmzvfsx4+z30HHydSZHhoonf8+iT2LBjl9l3zZbt6MdoRnB66MlnCQx3m8G6LdswnNGT2iFkxsGRcbjulhGY/fnXOECzPlhYjI8+m0NzTsXTL7yCY2VVKKmqw7dzF5rGcmdqFrqERJp973rgMXz380IcL6/E4eOlePK5lxFDEI2f9hqht4sALcOi5avw6DMv8EvgD9bqRCSjqKTMXNz90ON44PFnMOym280xh992J6OVz3j+Y9h76Cje/vBTs17nGXT9zXjulTG4/7Gnkd2rv1mn8wy98TZ8Oud77D9aiKM819fzluKOB58yKYllSDJhmVgMfyT6U8lkTVqT+jaNM92G4YZA82UAclJ1zwlg/Mqcf5sBtqVlepI1UX8mWEgeYCgZpTcD/6N1poFxqjSYT9WzmotGGR08UnofAw4aZHRCNoIdCeieFIYERyLX98AVA+9H2/Hz4TftCPxGH4TfhB/QY/Y6fLuyDoXH6lBXeRwrd+1GyCw1bG9BqxcX4MK7nsN5945C22e/RJtxa8yAPv+Jm9Fh8hY8/9UIAwcB4/i8DgRGe5PavE7VU6arLTWvNWrnt3PPj6HoYzEjinnn8nV7d2bbFZ4EgdSK8/Hd25fj1tu6I55RU3B8KsITZPySe1pVjyI90pwWjLiiHfQgKoryzHMRZXenL9d7N2BSEWJJM92TBw8IwQN32nDXHenwEyA0LWtWn6Emlbne60+pB/r4C6NRsHE79rOEvJmRgeaDVj16DE1WS2dGDtLyNEK7D6nmxGPPv4INNPGSqirsOXQE73L7RG5z4x334If5S05USX30+TfIo+nHkGpqPFa7hSeXlIARpYF7Q2/E2vqR3lv37MO9NEltY+OfII4mfvt9D+ONDz7GrA8/wT38zJmZgwRCQfC577GnsHWvuzfU6i07MIBGGx5nx6DhN2P56rUm55Oub+L01wwk0nP7ILNHP7w8dhLWbt5u5rvOX70OTz4/ktR2YsQDj6Jg3RZefyW27zuEDz750gwGtPA61AD+zkef1reNVGLlhi24k9uHxiQQLI+byKq0uhY7GWm89s6HpjE/I6+viayG33YX3ua+381bjOmz3jPXoeNpYKLaeo4Ul2LOD/N43beYXFlPvTCK0d4+rNq4DZNmzsJgrlfvL137q2+/j62795kuwx9/MxcjCAyZ7olSOI1Mf1aZhwcYblM+89VRvx8Yv4aFDxjN168ijD+B/mhgSALGqbBQ4Uml7Fi1b1izEOpyoVtKHOwshEWm9MM/bnoO7cctQYAG8I3dBb9xc9H3k42Yv7EOJaV1qK0sxtzt+9H1TX22FwEj16LDvZPQ7san0ebWkej45Gy0Hb0CQdN247I3NmDcVzfT7AmB+UEoW6IBcWeZlOMGFupqK2DMJyA0Wnt5fRWUek3Na49KRhRly/1QI7gomeCiIFSuCcL7E/+OHtmRvAcXwhIICY8IjBOQqAfFL2Bwg8LMbyFoeNbVy2xbv1+E1lntiIv+F1JdwchItcJP9dlKrJfd7zqYubzz3HN56yGPmfa6GaRWWluHBctXGCA4CIBYZwoSs3vAweggiUvN9SBgDCcYZs/5zowtUANxPs05p89A3HLn/fhxobsNQ6b26tsfsoQ8wHRpzerZ3/SM0ghvtV8IGBos1//6W05EGFv37MXdDz9ptlGEIWDYWOpOze3N6x6E9B59uW+uuRatv/72O02SQ+27wfSSGmGAkcbtZbRrCIVj5dU05SMoWLuB15aPRQWrzbUVVVSaHlLvf/IFeg+6zvTY6sXlqAlTsfvgYVM1te/IUbP9/GUrsXrTNkYkhe71PJ6iin7DbmTkkmKil0kz30QpI67S6hpCqpBmvx3LVq3n/mt47k0GoIeOFePbnxcjmc8xMSPXgEtg0mjwA4w0FuSvxJjJM/HcyHFYv203CksrTSJHVdkVrNlgjqN7UWP+9n1HMG7GWxiomfoEAxqe2jMUSeh7VVWUzNjz2g2MMwsNHzAak3ejbyn5gNE4MNT91mFJR1hSCjqnO2GPsSE0ezguvHc6OowrQKupBMKEzYwy5mPoF1uxYncdyugdB+lxb6w5hCtnHYDf5EL4T9iD1o/NRtDQJ9Cu52245NZ/o+NTc9BuwhaEvrMMM+YMQ5WgUD+CupKqIiA0sZGJMpRjaoHaLdzVVHXLKUUYC1sTGK1QvtTP9LCqW9wW1YvOxuGCQIx56nLEh7sQEZ+McEUV3oBxKiykJgJDryOsSQgPtyIu1gVrAiMMmYaqpTJ6DTZRhifS0A9Ns71t2nsQO2l0M1k6VkN1KqMJzaqnuS6SWUqWFBkoDYi6fT78zItmHgulqpi7ZDkyWPrtN+xmE53s2H8Yy2luo2l+OX0Hm4mFsnoNNIP2zNzdasfI7glN5dqPwJi7tIDRTTEW0pxvvvtB87nmztAUsPH8IXWPtvImkwzEPNelhvYBN9yKRSvW4GBRKX5ctAw9B16HsDiHMf9ht9yJya+9YyKGw8XlKKmmmRMQAlwJI4FNjJDUKH/PI08iSaPceS1WnqvXoOsx7Y23sXbLdgMAjRJXI7jaOjSgr2DtRsx4813T9qKxJM70XJODf/jtd2MmAbkgfwX2HDluIKAIR/vqGLv4bL/6cT4effZlRlv8UzFMvmnEffj0m5/MZ0WVtdhGCIyZ8iqPfQcmvfoWFi5fhf2Fx80xBEVd+0FGgYo8NOHSzXc/bKoYZUgyWMHCM1GWTFjrTTfbeoj8eaukfMD4T+UDRuPAiKdxJsenISI5A9dkpRMYTnTvczfOffpTnDV2LYKmbiEQNIp7MW7+Zie2Hq1FZUUZCvYV4sH5B3HxrMPwm34cAdMPofVLixF0yzi0z7kVl/S7Ax1vmYiznvoOCa9/hre/7m3m2a5TT6gVbVCzvB1qflZGWAHCDQx9XiMoCBamkVvLVqhZGoQqgsY0hC9rwwilPVZ+74eH7uiM4GvzEBartgl3MlSPTgeLJgFDxyEkIuN6UL0YbfSEn0zDYyiKMLL7DUN6LyUbzMMdDzyJNz76Ah9+9QPufuwZaDIgzYQnMGiGPM3hrRnykvla65RGRMups97HZ9/Nw/gZb5qIQUB5+JmX8Mk3c/HmR5/j3seeNXmj1MitaibN4600IjpWEo+pmctyaPITXn8Hs7+diylvfWBGOWu9BhLm0rx1TjVg6U+hWf50LepxZeH7vMHDMf2djzCbpjtq8qumfUS9jBSdWAmAITePMKk+Pvl6LhavXGcayNdu3Y55ywrMtWtObe2jsSFqLAuLd5pqMk01q/1+XrYKy9ZsxqrNLOETjspL9dyoieg5aLiZM1vVZrovpTrR+XSfGhX+0ZffY+nqjdxvG1Zv2Umorce7n8zBrfc8bKIqz1SpiqQefOoF89nPS1cyavsRN9/1oJljI2/AdXjmlXFmna5jFSOcFRs24VM+J92r5iVRtaLqbmVIHmCoM4PaLGQe+sPo+xVADEQIjTPd6O0NCKeTDxj/uXzAOD0wUuNpjvS2Tuo0Y03Htdc9i7NGLSIwNqK18kRNK4DfmOW466d9OFRag5qqYszeeBjpnx7Aua8fRsDMg2gzYw/aT9qCto98jnYDn8Vfc2/BWT3uR8ebRsE5Zhze/yqDYKiHg4Cg3k8/tzNVUG5g+KOK0UaFxmmo2olwqOX2tStVPdUWtYvau9evDEDhsiB88lobXD8gEt27DGJhOBMR9uSTjJ46DSyaDAw1ktv7I9TSF8GWPPipJGqgQTNR1ZTaMwQP/VkzGW2oamMgDTar/xDYCYRklu5djCosLK3HJWeaLpCak1o5oZSpVqlEUmnmvQffgH7X3WJgIRPVUu970HRV9SRj9KyX4ScxQkjpqbxWfWDV3A4814Cb7sD1d96PATff4QaJ5o3IkrHlmHOm9x5owKFridKYD37pZoY7bpM35Ab0GX6LgYdyVXnSjui8MnSZspQ3YJip/srrPxQZmrec23pgJgMX8AQa7ZPB56N99FlOv6HozXMIEtpegDDn4PZaetpbPCCQ0fceciN61C978bp0jF8iLD4/bq/zaV8dUzMQSsqBpevuHmU12+icStmu/fR5v2E3mXUClDkn/xAyL8HAGG+90erP6vlRyNgEFoHEB4zG5QNGy+nPCIwkC401JROdc3ogOqUfrhgxxfR0aj9uM4KmrIbfjOXwn7AKDy9Ul3wCo7oEYwuO4J+v7Ue7mdTUjeg4eRXOETRGbUDrez9Fm56PoV3SdbgweyisD9yNt2Ynom7tWe7qpvqMtXULz2HUwEhD0QTfVyzRPBSaJa8117dC9Uo/o5plbbmtekgFom6TH/Yvb4ORT1yOnPQUhEUORoQ1k//pBqqhBIV6nQyLpgJDUzF0tWTiX1FJ6BTjIDDqG7oFDJN7KKu3+WPqvf4A6l0Qk5hhEhRm0+xSaKrqhqlBdzJ2jd3QZwkGHH2Q2nOA6WEV61QPHfWA6mNSisfwfQwvMIF/KEUUZk5pStOEmvnCe/QlNDSxUB7/pPxx6cfOpTVd81XnElI6j8aL9DSfCVBpNFJdj4OvPdvoerRfWEISohPdc1tkMGJKo9k7aF66Ll2HrkcZbPVQlPo83JJoXiuNua7Jc33pPTXVbD8audpqepn9g2PsCFfdHhUa70JwrIM/RJ6L+6nKLJnATef5VM1mpu3k9ZpEjHwuYTyPzqV9I5QCnZFLvMDE/VK4n86l4+g8nmPrutQ1UPvrmeqY+hNdGxaLLhEWc/02Y1Sa20N/MI1vUVLHAaadwmNmxjzq/7gyNmPMGpNRb+xnSj5gNCa3sZ8p+YBxukbvdNgTaKbJaeiek4fg3iNw8cMfI2jaHrQZvwmBkwvgP3M5Ok7fgOfzC1FTU4uymnI8vugo2k7Yi4Apu9B+/DJ0HD0XHabvQttpRxH04noEXDcdZ6XegH/QgyIGD8T0Vx2oWXMRo4sg1Kq9QnmjFv8F1cs6oGoZI4n5bVC+pBWK8wNQM78dqpdqYiU/lDD6UKN33TwCY2kH1G0JxKbFHTBieAwSbLmIsPWmGAUoGqgHxamwOBUUHp0eGPRFHrerzYWr4+JxbXycexyGp2pCbRn6k+pHptf68ZuJgnjgFIKgp+ZaUHUVDc3KEqnm0kimMboMMDR1an9k97+OkckQ8+fWF6Iuu4pcVFeui9R58gbdQCMeZMxc6wWKJAJD05nGpWYZEClaiXLxBlwsoRMa6X0GGgkaAoQmH3LDqh+vjSV8wiOVpfJklbJpviE05Gj+UDSSXBMtecaW6MejP6ruL437yVh1v1pqG12vTEnPQc9GbTqe7bROS1ONw9cec5CR69i6Hy098FW7kCda0z7aV6aiP7DnWDqX/kg6lp6TAK7P9Kz0w9Z6vdd6PTNtr3vQZ/rC9cPXMT376nnqva5F72W82kfXpc+03lw/vx9dt67lTCcf9AGjMf3W5FtSPmA0DgwtYzUeITERYdnZuPqmf+O85xYicNoRtBq/Hv6TliNoxgpc/uY2TFx5HLXVtThcUY47fz4Cv1FqEN+K1mMWov3I7xA0eROCZh5DqwmH4H/fdzinz6O4jM/+Wv6GXnnJjmNLr0Rlfht3W4YijMXnEhYdULE0ALU/t0P54tYoWk5gLGiPqqVtULTCD0eX+6F0ASOLn9ujbtm5KF3bHvO/Og9985IRGpeLsCQCyXESJDw6DSykpgBDVV0hThu62eMQbI93d6uVqckoZSRqDJVkeOY9TcbBbRw5fQwYEgkJm6prBAxCRHNMCx52bqN1lvRc0waiffWH0HGy+w5DZu8hxqD0pzKGRTPQefQ6qQdL8Lm9eZwcxDA0tGWzlN6T5+FS69P6DkLWwGFm6cqj8fKcugYrwXDimggRTSMbl8aSM6/Fcz1x/NPIZMx5eJ+6Jt2TrlEw0DVolj2tkzHoB6V1ei6eZ+MxY5mY5/noYRuw8nNFZTq+nqH20XodR/eo1/qTeLbRMTyAMc+BJqhnpOvRtWm93mtfAUXzinuelT7TF6rr1X6qTnJfNyM9Qkqvda/m+DyPrkXb6bUHdIKfzqV17j+vAE2zqzf3MyEfMBqTd6NvKfmA0TAwVMsQxfdhiTmERgKis1Pxj4emo8MYRhZTjsF/otJ75KPd9LUI/3AX3lhXjMryGmwqPI4bvt1HYChD7Wb4TyhAwNjF8B+3Dq0m7UTr8bvh/+/VOGvETFzU42ZcZumB+++xYP2cq1C4rI2Z8MhULy08G5VL26J8GYHxUweULyQklvujRj2jlrTG8YIAHGaEUaIqrHkEzJKzsfunv+DtKZcjPTMZXeIZFWneD4dqSU4yfm+w4L0KkGbZTGCEuWwIdyUgyumAn8xJZiizMwZFEzLtGjQfGYwpndNkbDSfeP6BXdzWxX3s/ExLZ72SaKoJ3D+WP1ClFHHxOMk8ThKV2oOlf5aOnVmECP/0+gM6TG4j5bGiCAF7Do1P1VGZNHRCIpERh4UA0frkXiw5a9wH17tUbcVr0bmsMksakuUkaZ2uLVnn43Ul0Eh1HuXIste/1jVJyq+k69Ao93j+efXHMubAa9R6GbLSpGgp407M5r3yvQxQA6F0n4l6bvXHlvRa96gpZHUczZIXn8z74Gc6j80Yv3spafvk3AHm+NpOSQPNueuPq3Pp2rStI7M3S0JZ5pjm2Z10XzqnuQdKpirACCIek5WR6Q+r71jft3nvuV9+r96MvqX0e4Eh+YDxn8kHDG/AoOqBEenKQrcU/p9tMfQSBy54/iO0nnIQrSYeJzBWEAj56DBtI2yf7cEHG0tQVlSJZTv3YeBnGrC3mUDZAr8ZBMeMbfAjMFqPKkD7USsQNHYH2j71HToOfhYXhvfDjUNiMffdy3AwPwhVawkAwqBmXhszUVF5PoHxw1koX0BgEBA1Gum9qB2OrzgLhWsDUVbfKK6oZNW7F+KlR7rz/52ATjYrrnXFu6dtNqBQlEEZYAgIblCY5oD6aMpAoxnAMG0jrkT6WSosfJZ+AoIkw5KBpuQNYAl0sDE7vU+j8cp8ZcIWmlAiP9f7JO7joGHpfRpL6qmMIPRaBh3NA9u5bzrXJ+bQ7AkKB/dPUp0611vTlHZEDdYDaXiqiqJpM0KQnDmEQn21k6INi6qnGGlEJ2fwC6VREhiCQgKPI4jF8k8XI+PjtaXwunUNulZdn0dpvDZdQzz/0Jq1Lpmy0bQ1wYrOr8/12sJ71vXGp/DPr3sVVPi5nUat69Z+Lj4n7eu5Jy31uQxbRm62pTzbyMwT0gUH91LHdR9DPbrU7qM2GPe16XMtdX6tt9U/y1jen46p/bSNttfnVhkqt9E16tq1nYBh5/MRGAygCAOZmP406m4n81Ak4oaFO9o6k20YOvbJwDBRQzOk36GBxEmSgZ8sbybfUjLpQXgOb3Dwpv8bwMhqprwdw7vcwCAAvIHBo8QM/l5PFo3eY/y/UyaqOFn1wIggPDoTGDH2BMRlZ6HjqG8RoGqliUXwn6SMs/n4y9T16PnNfszZXoajhZX4YNVupH+wEQGjNV3rJvi9zmjjzcMmf1TrVxahw8sL0VpTuI5ag7Yj3sRf4m9Edk48Xn3ln9g1vyNq1gaZHlCV84JQsjQQxYRH1dz2BEZblDLaqJnH9wvPQUnB+ShZ2woVSlS4hJHH/Db4btzFuH1QMH0xFp1ccbjaSWA4E91mry6wNncbbVxiGuGo1wSDnesFByejDq4TRDxRyOmBoRoNwYIF4ESlBsmlqVKJORJLuua92hf6s0Ttec+oQpEApTYDtVVoefL7k9e52xdkaqqiUUO1W/pMSwHCczyzXu9PSO/d6xxZbuMzr2WChIgnMaIbMjJyGh4/M+fMcZ9H6z3n9Eifazu1e7j3U0N5D3MsfW7MjZ/rM3O8+tf6XNtK5n39vifrl8yvigLq33uVPndfq86hc5pj1L/2rPOs13tlDJaM8Z603cnbmtc0419tWy+zjdbLAGVm9Z+bqMLzupkSAJqj38CCEPhVxHCKTs7j5E3ejL05OhU4p5M3MDSkPwQY2qeJaj4wBIBM7tNEadvfBY1TRFP36ITR09hPjgx+r34BRH2VjFRfylZepWB7FkKSBuDagU+i3aiF8Hv1MPxnFMFvynYEjF2Gq6YuxdPzj6LgQA3WHa3BLT8VoeusPeg4bj0CGU34TVBKc0UZ2+E/eRMCuN5/wna0mrwX7V7JR8ehj+GqpBQM69sda98NRt38C1GrKGLpWTiysg32MeIoIjQqF7VFzc9n8fN2qF1AsCz8C8HRCpWL/VC+rA3UBjLzmcuQar2UIHDhWhr5VS4botM0R3kKQqOzERmbDRthkZyZBFcaoUFYhMSkoHucC6GMFKJSU0yP0lNBcbIMNIw8r7mPI4XnSFW2Wg8sThGhkZgj6bW6uxIM9Usz9/eJ1573nnUCgceo3b2WfjHuU1+737urfZomwUP7eczbcxz3e5qy0cmvZeoyabdRn/zaDQP3+1/A4Nnu19t6f++WYKDqn6bIlOh/JRqpkbf19a+NUdNcjU597Xnved2wfg8cvOlkCDRHp8LiBDB+ZbjeTb4l1VwINEd/HDC8Heu3+l3A8AaGxqR9vB6raXID4xeZaMKL8f9e/QYY9bAwwKAphlhT0TXzFvzzluloPWo5/Gbupfkfgt/kHQRGPrrOXIIZBcex+1gdVhfWIHdOES6duQfnERStRhUwClFac0YaM3e45/hWNdW4LWg19QDOHr8O/xjxLP7pZEE6wYF3n78G++f8BXX5rVGyqA0KCzqgcG17RhOKKlqj9scOKJ/XGpWMNmoXanIlrl/mh+P5bbH9p054fkQnRF7TFRFRfRGS3B/dstIQmuhEBAGie7M4+R918beYmMJnGcN1sbzHRETYc0xK9/DE+mjjJEA0JjcwNChQ6dCTGgHGyfoVHE4nd73/L2A4vf4TYJxevzb3M6HmAkMRxa/h0Jh+a9j/bfmA0bB8wGi+fgsM78b/e9UYMFTnH2pNROfe9+KShz5Fa83PrTm8NZf3hC3wH7sc3Wbl4+O1xSgpq8P6wipkfH4IF0zdho4CxhhNlsR9BIzp2xiVEBbj+ZrACGSEce7o1eh2878RnDIcMbZM3Dz0YsyZdRZK156N4wtboXxRB9QuPxdViwNRPb8Vqn9ug6IF/oSJn0lAWFvA5So/FBIwa7+8FP++tTMsXeIREzkcUcnDEZada+bpDnU5EJPugHqYxrl6Izw+G8Gx0QizhSM22c7fjTr39EaYlVGISTTYeJThkQcYHvmA0QLyAaNp8gHDm06BQVPkA0az1CgwHKkIZ+n8mhuexwUjV6LVBJr+1HUImFKAtmM2wG9sAbq+W4D5W0pQV1mHdUfKYf1oF9pN2ECtRcB4wmLiOoJiI0VQqE1j3CaChhHGpD0496XVCO45CrbcoYjv4USn0Gtx/wP/xIb8i1G65mzULW6Duu+DUPuzP4ERhMrFbVG+IgDlGn/ByKJaM/Px9fHlrbD1x/Px+ov/xPCeochI6YmIuAHoHNMTMZm5CE1OwjWWOAS74hGdyntNHIiu4UPQOSwHIZYEWNLj+KyVmTsHUTYfMBqRd5NvSfmA0TT5gOFNp8CgKfIBo1lqFBhOmmJKGq66dxo6zjjCqOAAjX8VAiZrbAUhMHoVury/AgXbS1FXUYfl+4sR8hahMGY14bIW/hPXwm/yeu5DuEyixgsyGxFIYARN3I3zXihARN4LiEsbhO4ZSbg0JgKpvSIwcVQ4DuRfirqV7VH3s7rNBqFqQRAqlFywoCPVHlX5GuVNaCwLRHl+Gxxddg7yP++I18dehAfvCkdmciK6d2ckEdeLUUYGurssCE6KIDTsCLb1ZoRxM4JjhiE0LgsRCYxK1LBP0xcsVBXnDRCnygeMMyAfMJomHzC86RQYNEU+YDRLDQODpuhKR0R2Hi577D20fasK/pMLCYDVjDAIjFe2Ehjr0eXD1Vi9g8Aoq8NPO4+h06uExKgC+BMYv4LFBL4et47RxQa0GrsZrSfsxF9fWIaYAY/RwAfhsrg8dMmyIcRpR+9sB759IxiFS89H7cog1OUTEIuCTNfa6kWXo1brlVeKwKhdEmTm/q4qaIdjqwOxcVEgZr9+Hh4f0QU5dheCuxMOMbmITXcgPCUaXWxxuDY+BWGuPohKHIzIhP4IjcxGVJwLFofdNJD7gNGgvJt8S8oHjKbJBwxvOgUGTZEPGM1SY8CI5LlC6FsXPfo+Al4tpukfovmvITDy0faVPQTAVnT9ZAPW7C5DVXEdPtl8HFdOXwO/kQXclhGGqqImUxMJDMLCbyzXjV2PwHGbEDRhB/7y0mKEDb8f3ZOuw+Ux16OrUzP8xcFhD8aNudH4bGonlG0+F7UbOqBa07TOa4uKH/6F6gV/cycllJQ6ZEEgqua1RtWKQJSs98P2ha2w8MMLMO2ZMPRM6YnYiFxExToQYbMhItmK8Iw4hKRFICTRznU9EG8dCmt8X8TH8xnYBALvgDhVPmCcAfmA0TT5gOFNp8CgKfIBo1lqDBgRPF+X7EG44E71kNqANmO2InASTX/yGr4/gNZTd8HyzTas21+OwuN1eGNdCS6fTjB4utNO3uTWScDwG7ceAeM38jjbcc4rS9HlpqfQPfsmdLZfZzK+RljiEGvpDFtsMO4YFoMPp4Vh+9KOKF3jh8r8QFQvOc89HeuqemBooqV5rVDzPSMRRhe19Tmmji5tg7VfXYzpL8Xjlv5OJMXYEBORiFhnIuIYyQQnRqFrQhxCE5JhS+5JSPVEfFw2gaHeYb42jAbk3eRbUj5gNE0+YHjTKTBoinzAaJYaA0a4KwudMgfh4qHP4byHPsEFI5eiA4HhN3EzWhEYF72+B/0W7MbmoxXYU1iH8StKcOkMAmI0o4wJqoria8kDDEk5qCZuZJSyFR1GLce/bh2H7r1uQTB/HxEWXk8sjd0SikhrN8TEJKJvdibemv5PbJjXHscZQVSu9kPtOkYVqwkHwqJ2IUExv62Z3rXuZ65bRLAsoZb7obggCNsWXoKPJnTDfQNjkWNLgt2aRmikItiahG4WF0LtTv4WHLAlumBRUlYDAe+AOFU+YJwB+YDRNPmA4U2nwKAp8gGjWTodMK5JG4BOubeh643PI3jUV/ibUpqP346gUbsR/M5OPFKwFzuLKrHpUBVeWFyIv7+qNCAbCQyBQtVRek1gEBR+4wkMRR5q05i2Be3GrsA1d8xCl57X49qUGBp5Mqy2VALDhTCrA92iExERk4xeWXZMeLELVvx0LvYxiigpaIPqFeegQokIF7RjlEExolAOKmW7LZ/nh6K5fjiuLriExtH8C1DwaTeMvN+B3MQUBAcr3Tm/G/7H4vmbV4bsaFsYrMnded8umr96SnmHxMnyAeMMyAeMpskHDG86BQZNkQ8YTVP9cQQMgcIDDHeeJSXnS0MEgdE1rT+iUnsjqd8NSB77Lq6cvooRhFJ7bIftw62YsHYP9pZUYuXuEjz+wz5c8vpOQmIrwbDZDQ1KEYWJMiYSGupmq8bw6ZvRbnwBuoyYha69h+Hq1BCEOWMQY81CTHx/RNiyEe5Uyp4cREf0Rq8cO/798L8wZ8LfseOrv6N8xd9QtaItagoIieWtULeMEcYSanEbVC1ri3K+LidcajRX+KrWjE7Ox4JPOuGlZ6LQq4+T95uOEEsuwmw9eK/8jlw2WBNj+TqJ5u8dEKfqdwBjwAkQNEn16T6aIx8wGpN30/5vSsavuUKaKgMKj/4UwMjhuZouA4HmyItxN6x6AHgDgzdxW0GgOXIDQ6beRHmDQkMyeaFo9B7j/z3yQOJk/cr8lSKk6XJHFIwgBAmzzn0MDzjc8HBHGBGESFBV2nkAAD6USURBVDBhEe9MRXZuHoaMfRVJs1bg8knbcd4ry9Bj9irM3nYAB8uqsGRHIe79eiv+/hphMWkzAgWJcWvhLzGq8J9EUKibrWdcxsztaDdhJbqNmIHgPsPRKTUO3VjKj4jn/cZfj2h7DuLT+XvM6IfIuIEICc2APTYOD/RLwHsvxGD5Z52wdf45OLCsFY7lt0JFfmvUaPa95e1Rt/osqgPqlmuuDH9UL/BDWYE/jm7ogOULrsSUqbEYMNiOOIfm3kkxvx1Lci6jjByCwN2GcXp5AYaSDp5OnohBy9PpVBg0RdrPGxy8yQeM/7Zo9Bm5BIHm2Di9bNzOGyhOloHGSWqJfFENiyadlk0QKJvw6eU26lNNvqXlBkFT9AsA6pdNkhejbyG5Ewm6Tb+pahwOp0qGn87tmigl3FNXWVsSQi0uMzDPonn5+T3qc32mBIfxXKekemG2ZITyHrpYnWZqhEdenIxJny7B058th+3Fabjv45+w8kgVjlfWYe7uw7j5u7U4f6q61K5E2ykrEaDcU6MWwH/sUgLDvd5vPKExnVHI64fRnlAJvnMywnvfjm6pPRDqSEaMnQZuZ+RjSyW0CDEXIwxnHiKtGQiLSUdY2FA4nP0wcLATjz/ZFW/N+geWzD0Pu1e3xfF1gShfFcCoIwB1+UEm6qhZ4o8Kk2/KD1VrWqFs3d+wa2lXfPV2CJ59LBi9+wcjLlmwYjSV0BfhngmXTk4y2KDUBfckYCiteWMy8z3QqGXS3sy+JeQDRmPyZtr/TdHkvYChIRlg0Ki9gcKb/jBgNFGeUr13o//jZYBRX5o/uVqnYTUzYmimDDBo+t7A4E0eQCjF+G/h4E0ExqlQaEQCgub6V7I8GZygoOu0pGSZz8ITEhES70CYVbmXUs0001FUN24fyuvrP/A2vPnuZ1i4dSee/HIOXi9Yg12ldThG/bTzIO6Yux7nz9wC/2l70P71vWg9aSMCx61GwNgVVAFaj1+JdowyWk/eiFZKHzJqOYJvH4PwXnege0p/hBMQcY4kWJ2JBIZm3GSUQ3hEJ2bzmgkMSzq6xeege3wmP0tESoYVQwbH4JF7wjH+2S54b8xV+G76pSh452/Y8tn52P0d4fDjP7H9u39iy9eXYOs3l2Dzt/9CwWfdMXtaMJ56oBt69QxGlM2CLnE90NU6mMDQsZsBDEL1dwDjzMkHjMbkzbT/m6KxewFDQ3ID47dgaEh/TmD81rj/W/pVhNEk/RHA8A4Hbzp9RHGqmg+MaGcaXyuK4P5mXVo9SFh6tyaiW7QVXaOsiGJJPyE9x8zhE0WF2tPQtbsFI8dMxa6yCnx/8DDyC4twhNHF8aI6LNl5CI8t3IyLZh2G37QitJ15DG2mH0bQ5L0IGL8V/qPXou2EdThn8jq0H7MM7ccuw19f+h7BN7+EsLxbCIw+BAavjcCwONVbiSYsYDiyEOXK5mvCy54IS2YULOlRiLUlIDKC23Tnd9gtB6kR2RiYnIa7Bzrw4t3RmPrv7nhzTHe8NSEes8ZZ8NqoaMx4ORKTno3Eyw9F4b6bIjGgRyQSXfGIjEtDaPwAhCUMZfSVVQ8Cb4A4Vb87wjhz8gGjMXkz7f+maOxewNCQfMBoWfmA0bg80YWuK4HftSILAUQpulUV5f5eNT+M4OFCMKMNNYBrLpkwazKuvCoEDz/2EjbuL8TW8koc0BzetXWoJjS2HDyC8cs246rXdsDvxY3w//cq+L+8Cf7jdsNv8j74mZTmWxl1rEfgSwvQduwSXDjqR3S/4VmEZg9HcEovRPBa4hzJBIaqpmjI9gwCg8ByUrYMRBFoMY5YWBItsCelwEaQWKy5iIvNRXxsHuzWPCQ5c5DM6090OmC3xyIhMRL25AgkpUQiLTUKGcnRSHdFI9kWC4c1gfsnI97GYzgH8r4HEkruuXG8A+JU+YDR4vIBo2H5gNGy8gGjYSmCcEPBDQr3e3d1lPu9O9LQa22j6zez1CWkoEtYPIIjEzBk6O1474MvsedIMY5U1aC4thaV1TWoqahCYVExFuw7insKCmH9cCMuGz0fHV6cD79XlOJ8E6FBkMzYDX/NjTFuFQKmrkPHsQvRecjjCEkfhJDkPETWAyOeimZEo+qocAGD0oC6aGsSoixOfp4EW0o6bKm6tySEJzgQYnUilAYexn2CLdm4JjITl4ck47IIB66KdqFLXApCLIRjfBqi41IRy/dx1lTE0fhjTAN2CsJtSlXeVFhIPmC0uHzAaFg+YLSsfMBoWAKCrimR/3lBQe0VWqffoTOrp3mtqELr1eit9er8EB2fhIgYB3r3G4bPv/geewmFkgrCoqoaZVRlRSUqS0oJjQoU1dViaV01Jmzdg6Ff5CPujQW4bPIinD2hAK0nM9qYSlhM34HAmVy+vhNtRi3EVX3vQ3BSL4Qm8lxqNyEMBI1oezqBwesUMLiMsRFo1hRExCnS4LPi/ccwygh32hDMaKEbo4lglw2hyQQDv9eudkLDmomrGaV0ZoQS7OqB8MTeiHL1RqyjF5WLWGcmz0ng2K3obg1HN0s4799FEBAgXgFxqnzAaHH5gNGwfMBoWfmA0bAUPWip69JS5qx1+g4dmfx98beoz1TSVluGgYfFhZh4F556+mWsWrMZRwuLUM5oorKyGtWMMGqqqlBVWYay8mNclqCqugxHKg9j/bH9+HHfIczacQwPLDmIlNlbcNW0VWj/ymIEvLwU5766Fe1f3YLWz87BP7NvRneBQffjZKmfwIh1aBY7d3QRRkXY+BkNOsaSgm6RhEFULoLj8hCW0JNm3wMRNP9IZ45pHI/m9xrFZxnuTEeIPYkgsaCrLR5drQnoznsJZmQRGpeOsPgMhDPCCLO7EOKwINgZRUXzeIlewNCQfMBocfmA0bB8wGhZ+YDRuASJkHinWer7+6VNI4Ne1of/vx7G+LpE0kDj7MjsNQAvvzIWy5etIiTqUFVXh2qqlrCoKy1HXUU5KmvKcKyqkNFGEeoqS1FVxtdlx1HIyGMX91lwpApvbCrEc8v3Y8QPOzDsqx248adCpLy1BlffPxNXJvdHF4IgkgYf51R1VJLpWhvllOkrGaGAwfu0qa0hndHGQJr6YITa+hAYGnhH45d5J6j6LBXRCRmIs/G3YO8Fq7MHfxN2xCbFcz8rAehEeDyjEksmgZHNZ6Hqq1R0Z1TV3eEkMFyManxVUo3Iu8m3pHzAaFg+YLSsfMBoXIJD95gEAiON/7U8Aw5FEjI7F71A36feS5l9B+OFMROxZ+9BAqIOpSUVKK6pQXldrYks6o4Vo6a0BGW1ZThccxzFlQRGOSFSXoG6smou67hdHcpq6nCU2ltdi40ltVh+pA4L99Zh4pcr0fe+keisqqNoNa6nmN5R8Y5EmBTjmjLVSSAwwghPYISUkIwEQiUhfQDi0voj0sVr1XgSRg6hlngCwILwWBuiYniMuGzYE/ojKXEAktJT4Ex1IMHlQhyPG6vqLXseAdOT++Ux6shGN0s2gm3ZCFU0o/aMJrdj+IDR4vIBo2H5gNGy8gGjaVJEIanrrIxaAIlgCb5LZDyCabp9rrsFM9+bje0HDqFS0URNLaoqq1BcW4Oi6gqUlpWg5lgpKkpLUVhbigN1FSiqKENdCVVRg9pSqoj7lTEaUWTCdSXHSlBSzH0r6lBUVIUVBRswasxUAiEDV4XF8TqSYHGp/SKR15WMCAHBlUcTZ5SRkIbYBALFzgjBGY5gewiCrVxaYgk3O82f92BLQ7SVEYY1GXGMGKyMFqwuRlMJdkRYJIKR26k9xAwEpMLtuQhllBJqy0WEowevges10tsHjIbk3eRbUj5gNKz/G8D480DDBwy3PO0Vv31NU2VU4Rls5n5e7gbwTqHRiOJn14+4F2/O/hSb9uwzVVB1Ui2jCkYXx+uqcaxGpl+O2uJKlJdX4khtBXZzfSFf1xSVoZTLUrVzcFmrSKSa74uOYPPaFTi4ZwePVc311di3bz/e+Wg2ongPVwRHQkn/rAYYGrCXUg8Mjf6moSvDrCIMBwHgiOK1RyEiwUolISohmxFDT8Q4evIzjQpPR3SiCzEpFkQlEYAERXB8CiOINB4rjcdMp/jamYJQPoMwmT2hqWcTSyndR4RXOHjTKcAQEE4nHzAa1/9PwLAJGIJAMyQINEfNBwaNtImySoJAs8R9jVmfKf2S96kp8g6GhtR8YBgINEeCQHPkFQwNSTmgCIN6xTBScKcKIUjM8tevFUmoDUNSl1m1WegzRRXRNM3b7n0YH8/5HoeOFxlYVNTVoraO0UINAUDjP15bhaK6KlRUV6GmrBoVlTU4xm32UscIieqSCi7Lcay6HGU15aiqYfRxcDtWrlyABQu+xvYd63m8KnPso+Vl+HLePMSmZOLK7mE0fZeJMGLtBAYjgXBHFsKcOaaaKFwRBiGX4KBcqdwuA/HObMKF12/vw3378vp7E3h5psE7MpkGnmpHeIqmY02jshDiykIon0VoYgpCnE5GKQkIUbsGFe208TlIfC40/t8NDG+mfKq8mXxLygeMxuTduFtSyj7bdAkYigYIAy8RwqnyAKA58g6FhiQI0NSbKg8EaNSnl7aloVPxZ0oCgCdi0PJ0+g0QTqfmAcMNAXd1TlPVfAg0XSZhoOrlBQpVK2lgG5dWRg1axtMg9VqfxQsehEP3OBcinZn8n/Xi9WWhc3gsohlhPP/KaCxauhyFhEV1TTUjC4KC0YAigorSYpQcLzTQqKIqaPYVpQRCJSFhwFKHSlVbVdWgmtFIRVUlSkpLUFhYiPc/eA///vfTWLduDSory3lcQajOKH/FCiRlZOOa4HAaf7KBRYzMl5FDaLwLoZYkmjfvjc9Q6VI8WXTdUgO4qtU0Alzia4ekhnyaOSMIRQ5qEA/nMdQ2EaHogc8rgudwj7nQ8ZWdVnN5u9X06iipmcA409GF5ANGY/Ju8i0pgcBbOnJvOl0iwVP1+yKG5ojGThB4q07ypqbDwi1FAF6NvqVUD4ym54Zqrn4nMGjEp4LBm9yle8m74f+nMinJaYBx9XAwrwkFC68zykwGlGJeJ/AZWk20w4gkMdsAI5jg6BQSg+y+gzF64jQsyV+BIzT42toaQoKwIBhqKstQW0UwlJegoqyYryu5npDgslpdaquqjSoJjopKgkXAqOb+hMGePXvwyiuv4JFHHsGsWW/i8OHD7uotStVbWm7dug3Db74dcTTbOLWlEFxRlK7b9JSiZMwGFLzmKN5zJF//OmusW1G/kjv9uElB7jH204BAUUXTIwuPfMBocfmA0bB8wDiNTo4wzojObIThBoZ3s28JmQiDpel4QiKBkYTgIAkaGkMhKbpwpvO3wPWaTc6W3tOUurtGWmHndz7p1TdxsLAEx0srGBWUoby8HLWMMGqqKgwoBA29rhFAKH0mqNQykqgiHMoqGE2UVXBZZdovDh85gu3bt+PDDz9EbGws7r//fgOPKrVnEBLar7paEUwd9h84iJdGjUVun0GItiUiPE6N004DiwR+9xZ+P4JBCKMNRQix/M40X4cbEL9AoSEZmPzG5FtSPmC0uHzAaFg+YJxGPmA0KjO3BYEhQCiKsOn74z1pnaqnJJXW7fwdaBkcnYDwhGRTpTNg+K34bt4C7D9aiKJyRgc1NHKaea1K/wJCTZWJMuoIiMqKMpSVFNPoCQ2ul/lXKrLgtlUCB/etIQCOFRdj/vz5uPPOOw0sBg0ahE8//fQELDwSNLQ0VVazP8XQm25HsHpoUSExvEaCToCLT8xEREIKukXZEGpN9gGjKfIBozF5N/mWlA8YDcsHjMZ1poFhGr0ZQbjbKDLqS+Vcr3WEhsDhkeARaU2Ci/+Zex55Ep998z0KS8pMW0J5dS0qlBOq3siNqRMUVZXlqCAsKspLCY1yfs7IgzCpYoRQpmoo7qM2DGn7nn00/48x/IYbcNWVV6JTp054/fXXsW/fvhPH9MhTJVVcUor5i/Nx+90P4NrgCITGWBEe70QYpXYMVUkJcN1j7AYY0a4sA4xTq50akg8Yp5EPGC0vHzAalg8YjeuPAIbg4IGCu1TOczPiUJuFGrz1WrDQ656DhuOBx5/BD/MXoZKGXVZNVdXQ+KtRTgCoikmlfxm62inUuF1SWowKgqNWA/Zk9rV1Jqoo5z5FFZU4WFiEdVu3Y8Zb7yKv7wCc07EjLrzwQlx//fWmakpg8EQUnteKOLSsqKzEpm278MBjz+DqbmGIsjoRr9HntmSExjkQprETNOZwwsKM5nZk0Jh/C4aG5APGaeQDRsvLB4yG5QNG4/ojgCEgeIAhWJwABgHhadfQukE33oHx099AwZoNOHqs2ICikuZfUl6B48UlqCQAFGHIzEtLSxlZVBhwVFUTJIwqFEUIFEo4WMptKvh635FCfD13Pu5++DH+HtJx8eVXITAoCEOGDMGKFStQVFT0K1gYEPE8nnU1NbUoLC7Hc6+MMT2lNGmSMz0Hdv4OBblwRkTqDaV7VQ8o9XbyAeM08gGjMXk3+ZaUDxgNyweMxvWHRBiEg6IMDyQECL1WQ7iqpVRN1WvwDRg1+VUUrNuCsgoaNs1aaclNdZSyzBYziuBSVU0Chl57GqZNt1kavUBRToNXF9qDx47jh4WLMGriFFx/+wi4snJwVXAoLuvUGVnZ2abBW8fRMTzVT57IopJRhV7rs0q+L6+p43GmoktoNEKirbAkpsPB360AKEM2wEj0AIPrvIChIfmAcRr5gNHy8gGjYfmA0bj+qCopwcFEFHxeWuq9ehqpWkcN3o8++wrmLl2BUpqzIGFK/B7TpoGrZ5Sk1zJ4RRq1jD60rQbZlXK7wtISRhRHsXHHDnzxw48Y8dAjjFxScHVwGCJsLlwbEcNrSca0GTOxfds29zlOko6r43siF70u4znV2D591tuId6aie0QcwuLsbtjxvtQ4b8yfS/WS8gGjCfIBozF5N/mWlA8YDcsHjMZ1poHh7iX1S4O3YGGiDJbI1SuqS3gcnBl5eHv2l9hx8KiJDtzVQYJFFY4fK0RpSYlZd7Kq1euJS7VZlNVq7osq7Dp0EF98/wPuf+JJ/lezCAkHol3JvM80dI2Jx5UhEfz9Z2H6zJnYtnWrgYTneB5oeAClSMOI79WO8vk3P2L4bXfB4kpDcJQFIbF291gMQkPGHGZRksH6dgwvYGhIPmCcRj5gtLz+/wNG06HhA0bjcgPjzEHj5G61Fp3TLDMJD3dj99XBUaZ6Z17+ChyvqkVxpdoQKhldVLGUX4Wy0mLT+8kNkGojY/Ieg+f6zbt24ssfvseoiRNwwx0jeOxUdAoNR7foWAOM+NRMBMfb0CXWCgtf3zFiBL779lsDJA8wTNRCafyG57Vn4J+qudZu2YEZb76PAdfdbMZhXBsaaxq+43kvyg2lcRjB8YkIS5BBe3pIaenWL+v+y8CQWZ9O3ky+JSUINEduYNB8myhvJt+S+l8Ghk0SBJqhhHoQNFVnEhgmN5RgQBB4A8SpMsCgUQsETZVXo29UNOqm6g8AhhsCzRGNmSA4FQ7e9PsiDA9kTi8PMEw3WhqrgQfPaeUzEzg07iK332Aa8lbTK+p4GU1a6TlqKggEd/oPqaZGeaEqoDYFNX4Xl5bh4JGjWLVuPWa9/wFuu+deHi8ZncMj0DUqBhF2F41c3VxpmFxGKGGgK5XvUxGfYMfo0WNw8OAhN4DqIwvJQIOA+FW0QaAUlVdi9cZtGDdlJqFxk0kPopHqap9RUsZQS6IBRmhC/WhsVVWZ8Rjupef1CUDUg8TA5FcG39I6BRjeDPyPVT0Ispoup8ekuWxUMmguvZl8S+rPBgxFDE1XPQhOiQwakmAhADRH3oy+MVlTm6cEmnRTdcZzQxECluboDANDKUe8GX2jSiQ0mqjfk0zQkyiwKVLiQUFC1VIGHjTXaB4nivAQRHL6DMJzL4/C9p27TOm+uqoCtdUERu0vwFDeqEpGA5X8XFA5UlSKJSvWYPTk6Rh8463I4jHs6blmRLl6LSkNunI1KZGh5M7dpNfutODh0VaMuOsB/PDTAhwvKjZwMO0h6o5bUYXyUl4DoSHVMMJQvipFI2WlpTh46DC+mPMN7rrvIZMmRMCLdma42y/sGQijQqyEhoORR1IOIjTFamK2GdAnYITx+lR9FW7SmPMa64HR/JQfTdWfEBhOL1BoSB4QNFUyc28m35L6MwLDW3WSNzUHFtKZjhgkNwTOjHTsPwIY7kjm9PrTAUORhYEB92uCYqXfQKExERhewNCgBAxFFwYyPBfvSQYayRK3Un8PvuE2vP7Wu9i3/4AZvV1Xq+oopfhQ4sAylvCVUbYaJeVl2LR9B7756WdMnPkG7n3saWQzMom00XwNJFha5zFN6nBJr09VPTDCaPLJBMyTz7yIPfsOuaOJGkUUtTwn4VTBqILgqOHr2mpdkzvBoarFtO1+RiZfffsj7n/0aZPS5JrQWJP3KkJjMJxZBhphNt4fYRGbkocYgkPjM9y5oFJOyACDIFO08f8VMJoTYfiAcXr5gNGw/qgIwxscvOnPG2H8Fg7e9LsiDG9gaEgCBYGhun5VD8bxWcUm5zDCyEBwrB3Db78Ln3z5NY4eLXQbcm0VS/Y0bMKivKwYZWUlNPMaHDx61MxNcdvd98GemoHuUZpIKYHHUbdWd2bYpshUAcU70S0kClk5vTF3wVIUl1UaYFRWqp3EHVkIGFUVylelKiqCo0ZdcN1dbpVmpJBRzvylBXiU0FFjfpgl0Z251s5z1EccUnxKroGFqqsENM/zFjBk6Ip8fmvyLSkfMFpcPmC0rHzAaDn9XwCGGX/B56TfqoARJ2DQRDuHx2HEA49iScFKlJSWuquGCIuK8mIIGKoKMo3PXL9+8xbced8DsKekIyzehq5RcQizOnmODBM5mOjiNHJvw2iH0AgnrOx8Vg89/iwWLMk37RiSRolLgkY1YaGIo4agUOqR0pJiAwzls1Kq9GMlpdiyay/e/3QOsvsOQfdoG7pF23ldyeY3od+qIo8uEVbCzWHe2/n/1mdq8wglRDzgOHPyAaPF5QNGy8oHjJbT/5UIww2MHojhPbnr8909pB55+gVs37MfShRo5qEgMCoJi+rqCtOmoW6tRWVlmLdkCXL79EdwdBxN0EWjTYRmoFOnA6VQN20UpwDCu7idTFRJDxOSkJSRi8eefh7zFi1BeZU7AaGAUFxShtIyDQ50RxjVanBXrir1oBJU6gFTwdc79h3Gex9/jlvvfsC013QOizVdbhOzeppqt1BGNFoKDmrH0Xeq61U6EbVnnFlo+IDR4vIBo2XlA0bL6X8dGDJ1mahFg/b4+1NyPrVhaLyCgPHcyLEsqStpYB1MGwaBUasutWporqlCOY16/+HD+GTOHCRmZKOrBt+5Us2x43jMOD5/NTo3FRiqkgqLd5nkgZJGbiem5+Deh5/Az4TGocJCFJeV49DRYzhOaBg4qEpK16YIRBGPog+uV++pkooqFJUrDUkdvvlpHm69634kJKYhyuKElUuNCrcwCtIzUAQSHKspXNPNb0aN4IpAwtUV9zdG31LyAaPF5QNGy8oHjJbT/wVgaLxCHPfTs4pyaoKhDDNeoWukBaMnTaPx1o+2pjHXmchCsKg2jd0y5e279+D1d96DLTUTnUIiERLvIHDUVTYNEaYXlHc4/EbOdFOa72aqjmymsdwMJtQzc6bAmZaNUeMnY+uufThaVIayalU91aCMEU5VpXuEuV4rIaGiEM2zoYSIGgleWlmNI8eKUbB6HcZOnIqMnJ644pquiElwIs7BayVAFHVEJCS707fzWSrvlNo2fMBoRD5gnF4+YDQsHzCaoD8hMNStVr2kBIxwe7oBhnpPTXv9Lah6xwOM2qoKk3m2okpTq7pHci9ftRrPvjyK0ElF54hYaPrSWEYXEa50hNB8VVL3CghvIjRULaRuvZJ5vowAwiwOXNUtFK6MHDz6zAv47JsfsOvAYfcYDYKisqLCpCZR0kPltjI5p3SNqqLiNsp7pXsoJzjWrNuAydNmoO/AIegeGoGuoZEEh4vQcJlpXdW1VjPzhSakoXucDxiNygeM08sHjIblA0YT9CcDhkrWGiOhqiNVSYXVz1+d3nMA3vnoY5wARi3Nl8AoLaMpqxQvI2b08eV3P+D620bwOEkIjrMjhvdoycgjMDLR3aL5rptYHWWglQllkNB/M4bPNpTAiU3K5P8ox0Djn9d2xzWMYm656z6898nn2LhjN44VFRlQSGr0Vq4p6ZeUIu6R4prYSevUHrNn3358/OlnyOvZBzEWG+J07VEWBCuyESAYZYUkpKJ7vCIOHzAalA8Yp5cPGA3LB4wm6E8EDE+jtxm4R2DEpeSYCEMD+IbcfCc+Z0leYPAAQ+0XVSrRU8pAW1RegZlvvYOUnJ4ETgpCWUoPVhoOazK6U1o2PcLgdowqovlMY/idRfEaghOSTDuIM7uXMdSQePVycsCSnI7U3F647Z778PV33+PAwUNwJzz8dUZbXbfaOH5JYaJxGzVmm8LCY1i7fgOeef5FRBNGwVHx7omX1HYRn2iAobEaem+M3avh/6fyAaPF9b8NDMoLGBqSDxin0/9vwKC8gqEhNR0YMfVLpQDRfjHcPyG9JyJpkhZ+lyMeehLfzVtsogh3SV3VOtVQxKEMtOUExtHiErw0dgK6R8ezJJ7IyCSFEQrBQTMMI4DCNcOdIOAVEL+V2jvCqAjedxSfb6jaFQQ1fo+xyZm8ZkY/tkR04/m6RMQg3pWMW26/A9Omz0D+8gIDCjckGA0pF5Wq0dTttqwEJqWJBviZqWOr+NoNlBWr1+CVMePQa8AwRDKi6RqVQGAk8R54LXb3gD6vZq8xI5K3z5qsPwQYNPbmyAOCpsoYb9PlzeRbSko9Igg0R25g0KibKi9QaEie3FD2Jur/QoQhCDRHZxIYgoUg0BydeWAIAF7A4E3czkQNBgZaNqaTIwzu11SdBIXG5AGGBu2598vk75vAoGGroPPki6OwcPkqlFe7u6i6S+cEBo1W0CivrsGew0fx6LMv4J+dg81AP7U/xCo64DUrSohNyTVVXU3uJUWFcdsIXksU9w9n9BOirq9KJMjvPjaJn1ud6B5rNdFGOBUcHo3UzGw8/vSzWLJsuYkcKjT7X1UlaiTCoUYz/lVX8PoJi6pyVJWXmtkA1S1Y0FDeq0kzXkefITeaxvYQSxKCLYxorAQWoSAQmoZ8Y/A0ekqN49J/3u32JGB4SzZ4qrxDoSG5IWAiAi1PoxOwoLE3VWc6P5Q36DSsehDwh9xUafCNiQK4PJ1MBNAsCQS53LdpsnFbb2BoSH82YJwAQUrT9HuSCZ6ciPD0olELAM2RF6NvKbkbZSVB4/Q6AYMTEUFT9FuzbylFuzRHhHo0pdKMMxCfkonQeBuc6dmYOOM1rN+yzVRJuYGhkd5qC1DVTx2KSiuwYu1m3PvIs+gUHIvgGBdinZqAiUbPEnoUjTeehu8Bwalw8CaBxVQBcal9tJRhy6DdAwD1uVJ30GDrjTosIRXdYjQdayJ6DLwe0954F9v3HDA9pMwgPsFDYzTUw0sjwgkP5cQy+afUw4rQUDXbgSNH8OlX3+L2ex5CSHQCrgmJNueJcvEcjkQEWx2MeFyMwHhedcONsTOyspsR5Bq3EiXVz+h3IvpoVPXbGWjoXlLORHpzgqC++qgpajYsKG8m35LSObyd25t+Dyy8VQ21nAgML2BoSG5gNB0af0pg0KibKpm6Nyg0Ju3j7VjeZIBhjPq35v3f0C/AaJrOZBXT75GS/4WyBB9OE3YDI4PGHw9nWibeePd97NizF4omBAzNye1u+Hb3ODpaWITPvvoRN9x2H7pF2hESl0xgZMOamI2IuERExbsQz+OqbaI5wHCnFvdki/W895hw/XtzTFVPuRumr41yoHOU3bzP6j0YDz7xLL789gfsP3TYXKuiDc0xbiIkJVA0SRQ1CNHdiK+JmDyRxtc/zMVDTzwDF6GpBvZgqw0hNgcjDi4TtCQo4tSWkoSIBMFLOaf4Pbn4e6B0H7rWk6+9IbnbRzzQSD1DwGgGNHzAaGn9HmB4h4M3+YDRuM50FVNz1XxgeINCYzrDwDARBk2PJeaYpHRoPoruUXFwcPn+x59irxqTTwKGBshVVrqrcZTkb9T4acjpMwyhhEW4VSnSs2EhMKKsKYihocb9bmA0Qdw2nIbdmbAItgh47u/jyq5huLJzMG4ZcQ9mf/YFdu3eg+NFRaZ9Qw3gGnxYo9HqFaUGIGUExvHjx09UTxUz6tB4jaeffxkJSal8Pg5CyYpusVbC1YGuMRZ0jow31W86nyKfWJe+32yz1HX9EkU0QQSFqrUkHzC8yAeMhuUDRuPyAaNlpfTmgoUUrZHPBIVGaztSM/AFS+hHjxedqJISMMy8FxXuhuVtO3fhpjvuQZwzk2afiQi7JiuqL2XT0GNsjDioMwYMSiX0UFuayT4bSngoV1RonNNML6sR3Vm5PfHQo49j5eo1OFZUjOKSUtQwsqgoK0bJ8UJ3NZUGIlYreaF7PnKN4ygpLcPW7Tvw3kez0XPIMMIiHteER/F8iYh0JCHU4mCE4TLVYIoyFPEqlUjXKA04VHuEGwRNkYGFIhXKBwwv8gGjYfmA0bh8wGhZCRhRVKSTBsxow5qaZXofudKzMHfRUpSo/r+2PjcTowulA1GDst6vWrsRmT36oWtkgindRzqyKEEj09TlG2DYzzwwNG5Ec1yEWNy5n2JY4tec3mGxCQjmvdgTU3H3/Q/hrXc/wJp16wkGAa/GQKO8tAjlZSX1eagEDjc8TN6s2lrsO3AA7zLSuvnu+/h9pxIUNho7geRSRJCIEKUvUVdcGT8Nv7m5p06GhQ8YDcgHjIblA0bj8gGjZaWeUjG8JjcwUg0wukXGIiU7D/mr1pjus5X1vaJqBAyaaVV1DUrLqzB3wTIkJGfh6pCYE8AIVzdUmrjML1rAcJzBKilKJXnN1R2q3kyCFJ+ZgKHZ9pTuIzzOhmDez786ByO3d38zwnvVqpUoLDxiQFFadMxEGmUlxSbycEcbikBKTUJDRVXFBOScn37GPQ8/hvS8XojR7IAaGV6fZDHMqtTpLnPt+j3ougwImio+K0+PKx8wvMgHjIblA0bj8gGjBeXpfSWTM1FGSn2jtwXZvfthzabNpurJE2Eo4aDm8Va32v2HjuCDj7+ALTUbnSMs9SPEM9zVQwkqidNUbUmIbe58GL8DGCqpG1BQIZooiQas52YSGMY5DDgUbYTGJCCBkcGw667DrFlvYOfOHaZrrSInwUI9qZQmvfj4MRzYtxfHj7nnAFGV3LHSUqzeuAkzZr2FHv0H4fJru+Ha0CjCKQX2zFx3Tyreb5g6EKirLa+hqTKwIPQkHzC8yAeMhuUDRuPyAaMFZYDB4zNKEDAiGA3EJimttx39hl6Pjdu2G2DIMD0RhoEGX69avwEjx0+Gk7/x4DiW5DUJUYLGTMg4BYzEemC4Z607UxGGEfcxz0qREgGixmh9NzpvmPJD8fqU/iQ4xoZrQ6IQHh2HXn364fkXX8bcefNx+MhR931WVxMY5WZejWOFhWZp2jQ0apyfa3T7+s1b8cS/n0dEvJUgsvPcSYhyMsJhxBFCCRrNAcbJsPABowH5gNGwfMBoXD5gtKB+AwxlaSU0aIDDbxuBzTt2/goYKonXag5vlro1Fevt9z7I/2ee6WWlyKK7NRXBijBo4qFWd4ShEvgfEWHotUCh37aes46j34mqfLrHMMow1T+EGa8rLNaGzsERiIy3496HHsXHX8zB1p17cKyoxLTPCBxqv9DS3QDOyEPtNoy0Siuq8Pb7HyGv7wAkJCv9uRWdI2MRYnUgjPAI4zM0vc68wMGbPMAw10X5gOFFPmA0LB8wGpcPGC2ok4ARzfcCRqQ9yaQpH3H/w9i8c/evgaGGYDUW00g1RiM9rzfvP8P0sAqhGQczugix8zhOrZOZJ9PIWQI/U8DgtgKB5rDQ7HjaX7+RkHgXrgmLhxIIxpi5PdLMwL7usS7TvmLR74ffQxSjjhheY0ZeXzz85L+xePlKFBaXmvvVNK/KcKv2Gk3SVFOtHmLu9Z999TUGXjcc3SNj8K/gUIRYbLBlMqIhQLrH20y1lDc4eJOAYWBhccsHDC/yAaNh+YDRuHzAOANKonnWRxjhNhd9IxcPPP40NhEYAoUHGKbnEFVaWYnREycjOCrOpOcIpWmH0IgVXYTSpCN5n8o0G+VULyDNla1qKe+AOFXNjjAUNVjUbqHeWO4Bc4KHICJQRLmyEOnMMuM0gq00aDuvT724uD6c+3fV3BtRCaYtZsR9j+Cdjz7Bpm07CUX34EQzcRRhYVTfljN/8VIzHe3l/7oG55z/N1z8r064Mjgc10bHIDjeahrBTeTQFCm6ICjMlLAChjH300gQaJa8gKEheYAhk26qvJl8S8pAoBmye0DQVHk1+pZS84EhCDRHzQcGjbSJsko06WbJGHXT5Q0KjUkQaI5OGPWfRR4QNFVewdCQziAwfhVhKCqQibmQxsjhyedewtZdeyCDdEcXbmBU1VThUOExPPXCy7i8czCuDY+lEbN07ExHKKOLcJkxvx/lk9KgwAibIoxUqh4GTdEpUGhcqo5yz92hAXQhceriqnERBIJgQmgIGMo6KwkYBh7xyqSrRInuBvpuUTZcExqDXoOGY/Krb2Hl+o04WlSM8qpqVFM1jCz0HKrKK/D9dz9g+I234K8XXAg/v0D4te2AgA7n4K9XdcM1Vvd4EM9ETN4Acao81VGmSsqr4Z8i5X9vqsw+XsDQkASMM50bqnmqB8EpkUFDEixMwr/myKvRt5SaDwwPALRsin4LhMZEQ0/LbrpYkvJAoKk609ln42lY8cmZTdQvJt1UqRfQGVWzIdAcnTlgaAyGSQfC35B7KlWaLyOCnv2GYMy4Sdi776ApZbsH7QkcNThWXIT8NZtw96PP4OqQaHQOj0cIS8duIDBK4PWqm67H/GXiJh8UpWWT5BUM3mXaMAgMj8ITlNcpmeemads8yQLdUgJB5YDSd6aEiGE0a0UiWiq1u9pazCx//F3edNeDePfTr7HzYCGKqqpQzPs/VlmOwq2b8cz99+Ov55+P1kGB8PcPotqjdUAgWl9mRUfrCHS35ZpGdl2bu+3kJNVXQzUkP2+m/5/qfx0YgoA3OHiTIgZBwFvm2Ib0ZwXGmRFNnSBIaKIMMGgO3sDgTb8nYmieBIxMQsAbHH4rd2ZYyTscTpVyN6l65MzJ3Z3Tu9m3hM4cMCSNw4gkOJRLKszC0jk1dPgteOONd7F3zwFTDaNEg5XVylJbg8OFhfj4658w7Pb7GF1Y3FOp0ug8iQG1VOOzzNL9nq+5NNO1NlHNB4bA4JYn6+vJr002WM97s12KuU49W127SvY6jr5HjRS/KjgaIfGJ6DPsNrw8aQbmrsjHwtUr8N7sj/HkA/chPiQYQX5+CPALgH8QgdE6CK0C2qB912z8Le85hCT2NmNQzLUxgvHoZGicDA7Pe8kHjN+IIGhWhOEDRuOisXsBQ0NyA+O3YGhIfxQwlGL7VDh4kxsY3uHgTX8EMP5XIwxJ1UZhhEVwvBPBMQmIiHfg5tvvxuzZn2MPgVFVWQPNLVFeP4ht/6FDGDd9FrL7X4cukVbTXiAwnIAETVxmbFRfDfVHAKOpUgQSHGPnaw1SzDHXrXtQ5lmBQ20Jmg/jquAoXNE1ArHJGXhk5L/x71dewaAB1+O8iy5G28AA/CWQkPBvC782gfA7pzX8/3IlLnBcj243voCI1N6IVKRzKixOAoMHFqZa6iRo+IDxGxEEPmC0oGjsXsDQkHzAaGnR1P9XgVFfJRXH78C0YSQkIsaehFuVtO/jL3D4UCGqq2pN7ijNja3qqa07d+DuR57id5FN43UY49X9q3TuMUZBwr1OEPEOhcZ0JoFhIhEatJldkN+frlewEPw06M9j4lrXOcKKbjFWxKbYkZKZDZslHWedezGC/FvhHP9ABAZ0gF9gIPzP/Staxw7D5f0eR/SwexCVnGsmYmoSLHzAOJ0IAh8wWlA0di9gaEg+YLS0aOr/y8AgKAQMNXyHWxPRJSwaI+55CIsWL0dJcZnpTlpeXunuLURgbNiyGQOG34ZgmqtK5MZ49YzrIwyZnpYyY63T2Ad3ckPvcPCmMwkMyUQ93E9G7enO6jFuT5ShqEPr1AOre3gYQqNjERLlwCX/DME5HS5Am8BWaH12RwS0bgX/8y5B297P4ophzyI6pz8iVQ1HSDQJFj5gnE4EgQ8YLSgauxcwNCQfMFpaNPX/4SoptWFE6x4IDEUYV3QONhHGYgLj+HHlV3KnM1c6kCOFR/Dl13OQ3qOfGQxn2itojgKDJCMWIE4Ag58ZwxRITgLC6XRmgeGOgAQGjVAXHDwRkY7l6ZJrRqrzfQxhF6eZ/SxKb25Dl26JOP/8TvBv3Q5tzzsHQR0JjctC0P76V3D5kEd4/YoqeM8eGUicBIp6WOj8kg8YpxVB4ANGC4rG7gUMDckHjJYWzfZ/OMKIYYQRk5IFq36n/C7U6J2V2xvP/vslrF69HuVlSv9dh9Lycrz/4fvo3b8foo3xugfAeUrrnnYLj4kLIGrD+FNGGNxHZi6zdht6sgHEyaCQVC3VLTIBNn4P1sRkhMRacNXVFnQ871r4B3VEq9ZBCLq0O9rar8NfBj+KTr1vRjSfqQFGPQA8xz8RTZwECxPdCBo+YDQmgsAHjBYUjd0LGBqSDxgtLZr6/3CE4Wn0DjNGquyyyYi3JSIzMw8PP/w4pk2dgTfffAuvjBqF7OxsXHbFFaZxXG0YajT2lKIFB9M1VdCg6RvVG7o3KDSmMwYM03PJkz2X+xJmMmzTXhFugZIo6r1AqPFQOr7pdmtLg92ZDKfVjquDLTj7oq7wCzoPAX5+aB2chHOHvIB/9bgFwem9EM7fgsZ/qJ3kdLDQ+A8fME4rgsAHjBYUjd0LGBqSDxgtLZr6/zIwnDTFhER0jbHROBNMqozg8FhceeW1uOKKqxEeFom4OAsu/ec/0bZ9W7Q76yyWui3md6FBlKpuMcCojzA80PBUych0vUGhMf0REYb2k1ErjYh6RV0bHg81csvU9buX9xgg8nquoanbbEnIsrlwbWQszv7HNfBv+ze0PusvODtxAP4+YiwiUnohgtt1c2SYwYAnBu41AAs3MBLN0geMRkUQ+IDRgqKxewFDQ/IBo6VFU/8fBYZn4J6Fv1H1klIJPCE5A1dd0x1t2pyN1q3b46yzOqJjx3PRpl1b+Af6o8M5Z6MLgaIqJ12fjFeldYFCrwULrZdBygBNSb4eBE3VmQSGRp4LEoocTBtGfeO2B3Aek3ebOg1dUQh/pzZ+x45oC/7V5WqcdcEFaPWXy3BBdDou6XcXrhx2PyK1LSOUrnGM1oz5Nw4LDzAkHzBOIx8wWlI0di9gaEhuYDQdGn9OYDQdGmceGDqHN6NvKf1OYAgGaqM4WVwvebZxAyPTACMmOQshcXZc1TkYHc+7CH7+bdxpLzQ4zT8Q/gEBXOdnIox/dQ831SkGEA6dx92FVoYoQOi5GyOkUQogfzZg6NoEDbdhu0v4OpZpd6mPjjxQCdHn/I6j+Hyi4q3ofvmF+GuHAAScfyn+0vsRXDnoIXTn71jZaqPiXIiJZ3ShnFUnAcNbZGFEWJnn5AOGRLP3iIAw8ryuB0FT9WcDhiDQFNnrl2cSGO7cUPUgaLLcIGiqvBt9YyIEmirlhuKfsVnAMCbddHkz+cZFA2yGfmvypxMh0BydZPKnkwcKbjBorIG6vUp8L0C4NHdEvRJlkqkItWrgms30kGrTviPB0BqBgW0MKPz8/Pne30QXAkZrRhr/6NQNnTVugWYXRYM1PaIITZmvekTJeD1G+Asw1JZxeil1h4lamqjmA6PenOsjCo+Ru69Vz5rfqXp3cRuPqStaCOVvL9hOgFx+Mf7esS3aXNEZHa8biSt7343Q6Bh0dyYh1pEBpzUdUcpRVQ+LXwHjJHB4oOE59/9XwPhtAkNGB/VqCADNkTcoNKYzCQybAYYyyxIGXrLN/lb1CQVN5tczIQFD0QBBQHNvXPWwOGHsZ0L1ADjF6BuWYNF0GVhQ3o2+JURDp8k2WTRj71BoSNr+F4NvaQkUETx+FO9D+aFsLFDY+Z3Y+aythES8Q/NsJ9IUExGXTBO1OXDFlV3wtwsvw7l/+RuC2nRgNNGKIiAC/eAXRLWm2rhft+rQBhdeeQ2uCIlBF0ImnAYfzecWze8xnGBQ5tpQmnIIpc+UdsRAwKE8Tk2T8kA1Ve48Ub8FQ0M6AYx6mUigXgKIe+wEVf+ZejwlmGq2DHSxJOOi7tG4IMKGv6f0wuX9RuDyzMG4Mj4Z3e3piOY+cQRMpEBxyrEb08nX8/8NMBpKSW4g8SvD9W7yLakzDgyvYPAuk4GWxn6m5IZF0/X7IobmSMAgCGhYTZdgwP2aoDjqjwCGKZk3QW5gSKeCoSFpn98afYuI5ixgRPK6JM1xEcd1CbwnBw3dSYAkaL0tEV2j43BlSDj+/q9OOP/sc3BOYCu08Q9AAKMJv4Ag+LVlpHHeP+H3z1D4d3MhKDoPbRIG4VznYHRzCg4pBgrBSrVRr1D1tiIcwp1pv6geFt7MviX0nwLjZJ1q4jL9KALDRtDG8V66EhgXhDtwkT0b/8oZimvzhuEKguMyi1K7pzOySEJUvMM0fp967KbKBwwa+K8N17vJt6R8wGhYfygwTkQRpxGN2hscvOmPijC8wcGbfleEcbLJt6TqgRGdkklgpCFCBkkjj2XJ35acDZd+v/yONCPc5cFR6Hh5JwRd8A90+Ovf0e68v6PVeZfw/aVoc8m1aHd1PDqE98DZrtvQMe8pnD9kHC68eRauvGU6XIPuQHJeH8TyuxYouii1RqzdvFZEofYQRTgRNFl12XUPljszaklgnCoBQx0B4hxJiHYyiuD9XRppxz+tGeic3h/dMgfhalcurmKEEaKqMYI40mLnvj5gNCofMBqWDxhNEI3aGxy8yQeMRkSzNsuUDJp2GqJc6rWUas6pZ2dJyUNsci5CHJn4V0wi/h4cg3PDGD1kPYCAPi+gTf/nCYYXcMV1L6L78BcQef2ziBn0CKJ7jkB42nXobutDKOTxP9+HPtTLfN8nMt0SQgKEelvpOUYnapIiRjpc583oW0pnEhhG2t7u5L25GEEloVOME52t6QhJ6oXQpN7ompCJa+P4meYScWjMhp2g8QGjUfmA0bB8wGiCaDCngqEh+YDRuGLUkJ2UahSbrAZpnS+T4NAMc9mEBaMCVx6Ck3shJK0PuuZch78PehQXDHsWFw19Gv8c+gQ6DX4E3Qc+gPA+dyEq92ZEpw1GlL0HImIzERalHkTqbkrD5r2oncR871zq+bln7qvv7eRMN++NuZ+hKONMA8Nkt7UlIMzpIDT42nTDJRj5LKNsfJ5xKege6yQsuN7lIFRsjOB8wGhUPmA0LB8wmiAajTc4eJMPGI0rxiWjTqRRJ/E+0sw1unM6pSPYko5uCQRGYi9EZA+Fpd9tsA68HWG5fdE9Mxfd0nLQmc/gWkc6ruX2na0Z6GZVtVMOjTCPEOiFsIRcdAq3ml5SYaquUbsI/xPqCahnF25PRYg1EaHqDaSoQ1U1Xoy+pXSmgRGmQY3WeII2wTzT6ATeszUVFkYZsYRFRDSjixg7n40LYQRGiJMRhg8YjcsHjIblA0YTRJPyBgdv8gGjcambbDjNK1zVKLZEiuZF4w5PSEeILQvBjlwDjO6p/dA9YxCC0/oh2ErTi7fRsJyIdSTBkpiCBMImgVGK1ZUMC0vPcTYnYix2RFGalU71++6uqfW9isw53F1IFYGYcQxxTrOUSXsz+5bQHwGMLgRGsJ3AYIQRx/2tVj6fuGTEx7gQHUVYxPLZ2QUM3i8jkfBmnuNk+YBBA/+14Xo3+ZaUDxgNyweM04mm7gUMDenPGWEQEqoisbuBoa6iUY5Mrs+mqREYzlx0tmfjSgLkKkuaSdsdFWVDdKwTcZZExNPw4mnG8YRHLOET43Ai2uGg7IxWXPwdZcPC78JMaWohIOJcCOG+ZtS0xhUouvCsJzT+t4GRhG6WBATbCEs+D3VLthKMlng+mxgnohRdxFEEapjaOQRrHzAalw8YDcsHjCaIRu0NDt7kA0bjMr2kGB1EJaYimhJAdN64xGx+nm2gEWLPRGdrKq6KS8K/Ymnw8ZmMHggASxYjiAxEWNIRFp/K6CAJwRaafgJLz4RQZFIKYlPSYddvmr+jWFV1aWCaGn0pwSKSphclQHGp8QjqYipT92b2LaEz34aRjBCLg5GTk/sLoCmMMlL4vJLMyO6IOEYU/Dycz8hEdNymuec4WT5g0MB/bbjeTb4l5QNGw/IB43SiqXsBQ0P6UwFDXVq5jEriMiUDFn4XtjSKEYGV9xanRmh7qulWG0bjCyVMwvhMI5IHIzLlOmooopIHITKxL8IdeSxda/S2RjzTDBMYZdhVZZWIaO4vKEQrnYakTLUenbROQInVOc/gWIwzDQyN8jbgIyAEPzXe6zhqp1B1VZiVoKQ00ZK2i1b1HPczVXa/Qz5g0MB/bbjeTb4l9f8XMKhToNCYfMA4nWjqXsDQkNzAkE4FQ0PSPqcYfQvKpCt30rT0PiWLv5Fs2AkMG69T1UwxNLoom8vUx8cwYohJVtfXbES51OW2J38fvalefNZ5NH2uT1AUQcMnOKKtboWr6onRh6IJQSPWAweHxNf17+N4v5IBxhmKMn4fMJoGDZm+7jHWyucaT8jG8b65v7rQBjsYfVEhjChUbaXPohmVxXFb7eMZ/NdctTgwnJIXMDSk3wcMGn0zZABxsjyg8OhXhuvd5FtSfwQwDAiaqlNM/vTKabL+dBEGzak5uaG0nSCgEdzu5enVfGD8OvdTY1IyPgOB5uhXQDidtI/b3JuqXyUQbESKMASMEBqjRl2rS6uer5XX6E4LQvMjMGJsiYRBIo/N165ERFkSEG2xId6eCJsrFXbuY+P3YXFl0/xp+LZMlp6z6pWBcAtL2Kp+YolaI6GjGbXEOBRV/Dra+EMjDBr5qXDwpuZEGDL9yIRUxBOagoGgEMp1wQSGckd1d7lfa11YXBKi4wgMy38IDJl7S8sbGBpS84FBs/dECKeCwIu8JhL0YrQe/V8Axu+DQFMlEPw6w2xjMskET4FCY/o9wNA+TZeAoWhA0Di9ToAgsWlqfjJBmrQigaaqWRBo6nYnS8f/NRAa0wkg0HxPKx7bk+xPUmJAvY+plxqp3VKWWQ3qc7+OoolK0TRfvfcYvzLR/pIZlsc1UoZYT6mepu2RFzMXKNzy9lnLyFwLodVUmZ5dXozam8Lrl6p+MxAgILXOVOnxeYUJFJLWq+eYAenvA4VbKfh/5wHmlUGA2LoAAAAASUVORK5CYII=;" parent="1" vertex="1">
          <mxGeometry x="130" y="420" width="171.43" height="100" as="geometry" />
        </mxCell>
        <mxCell id="MyQ0sjZ2pPT9WS6P9HhL-37" value="公用机器" style="text;html=1;align=center;verticalAlign=middle;whiteSpace=wrap;rounded=0;" parent="1" vertex="1">
          <mxGeometry x="140" y="140" width="60" height="30" as="geometry" />
        </mxCell>
        <mxCell id="MyQ0sjZ2pPT9WS6P9HhL-41" value="启动微调Job" style="text;html=1;align=center;verticalAlign=middle;whiteSpace=wrap;rounded=0;" parent="1" vertex="1">
          <mxGeometry x="650" y="365" width="60" height="30" as="geometry" />
        </mxCell>
        <mxCell id="MyQ0sjZ2pPT9WS6P9HhL-42" value="青云云服务器业务" style="text;html=1;align=center;verticalAlign=middle;whiteSpace=wrap;rounded=0;" parent="1" vertex="1">
          <mxGeometry x="90" y="80" width="120" height="30" as="geometry" />
        </mxCell>
        <mxCell id="MyQ0sjZ2pPT9WS6P9HhL-43" value="&lt;font style=&quot;font-size: 18px;&quot;&gt;&lt;b&gt;Solution1：&amp;nbsp;&lt;/b&gt;&lt;/font&gt;" style="text;html=1;align=center;verticalAlign=middle;whiteSpace=wrap;rounded=0;" parent="1" vertex="1">
          <mxGeometry x="62" y="10" width="60" height="30" as="geometry" />
        </mxCell>
        <mxCell id="MyQ0sjZ2pPT9WS6P9HhL-45" value="" style="rounded=1;whiteSpace=wrap;html=1;" parent="1" vertex="1">
          <mxGeometry x="82" y="692.5" width="340" height="250" as="geometry" />
        </mxCell>
        <mxCell id="MyQ0sjZ2pPT9WS6P9HhL-46" value="&lt;div&gt;&lt;br&gt;&lt;/div&gt;1. image/baseLLM/Dataset准备（最好能个AMP联动）&lt;div&gt;&lt;div&gt;2. 脚本启动Lora微调&amp;nbsp;&lt;/div&gt;&lt;div&gt;&lt;span style=&quot;background-color: initial;&quot;&gt;3. Lora后的模型合并&lt;/span&gt;&lt;/div&gt;&lt;/div&gt;&lt;div&gt;3. 推理服务启动&lt;/div&gt;&lt;div&gt;4. 服务注册到NoVA&lt;/div&gt;" style="text;html=1;align=left;verticalAlign=middle;whiteSpace=wrap;rounded=0;" parent="1" vertex="1">
          <mxGeometry x="132" y="752.5" width="280" height="150" as="geometry" />
        </mxCell>
        <mxCell id="MyQ0sjZ2pPT9WS6P9HhL-49" value="" style="sketch=0;html=1;aspect=fixed;strokeColor=none;shadow=0;fillColor=#3B8DF1;verticalAlign=top;labelPosition=center;verticalLabelPosition=bottom;shape=mxgraph.gcp2.play_start" parent="1" vertex="1">
          <mxGeometry x="610" y="852.5" width="100" height="100" as="geometry" />
        </mxCell>
        <mxCell id="MyQ0sjZ2pPT9WS6P9HhL-50" value="" style="endArrow=classic;html=1;rounded=0;exitX=-0.012;exitY=0.49;exitDx=0;exitDy=0;exitPerimeter=0;entryX=1.009;entryY=0.635;entryDx=0;entryDy=0;entryPerimeter=0;" parent="1" source="MyQ0sjZ2pPT9WS6P9HhL-49" target="MyQ0sjZ2pPT9WS6P9HhL-45" edge="1">
          <mxGeometry width="50" height="50" relative="1" as="geometry">
            <mxPoint x="472" y="832.5" as="sourcePoint" />
            <mxPoint x="522" y="782.5" as="targetPoint" />
          </mxGeometry>
        </mxCell>
        <mxCell id="MyQ0sjZ2pPT9WS6P9HhL-57" value="&lt;span style=&quot;font-size: 12px; background-color: rgb(251, 251, 251);&quot;&gt;1. 页面跳转&lt;/span&gt;" style="edgeLabel;html=1;align=center;verticalAlign=middle;resizable=0;points=[];" parent="MyQ0sjZ2pPT9WS6P9HhL-50" vertex="1" connectable="0">
          <mxGeometry x="0.2171" y="2" relative="1" as="geometry">
            <mxPoint x="1" as="offset" />
          </mxGeometry>
        </mxCell>
        <mxCell id="MyQ0sjZ2pPT9WS6P9HhL-51" value="青云:云服务器：" style="text;html=1;align=center;verticalAlign=middle;whiteSpace=wrap;rounded=0;" parent="1" vertex="1">
          <mxGeometry x="102" y="702.5" width="150" height="30" as="geometry" />
        </mxCell>
        <mxCell id="MyQ0sjZ2pPT9WS6P9HhL-52" value="Nova&lt;div&gt;&lt;br&gt;&lt;/div&gt;&lt;div&gt;&lt;br&gt;&lt;/div&gt;&lt;div&gt;&lt;br&gt;&lt;/div&gt;&lt;div&gt;&lt;br&gt;&lt;/div&gt;&lt;div&gt;&lt;br&gt;&lt;/div&gt;&lt;div&gt;&lt;br&gt;&lt;/div&gt;" style="rounded=1;whiteSpace=wrap;html=1;" parent="1" vertex="1">
          <mxGeometry x="613.83" y="620" width="80" height="151.5" as="geometry" />
        </mxCell>
        <mxCell id="MyQ0sjZ2pPT9WS6P9HhL-53" value="" style="sketch=0;pointerEvents=1;shadow=0;dashed=0;html=1;strokeColor=none;fillColor=#505050;labelPosition=center;verticalLabelPosition=bottom;verticalAlign=top;outlineConnect=0;align=center;shape=mxgraph.office.services.registrar_service;" parent="1" vertex="1">
          <mxGeometry x="623.83" y="670" width="56" height="52" as="geometry" />
        </mxCell>
        <mxCell id="MyQ0sjZ2pPT9WS6P9HhL-55" value="" style="endArrow=classic;html=1;rounded=0;" parent="1" source="MyQ0sjZ2pPT9WS6P9HhL-45" edge="1">
          <mxGeometry width="50" height="50" relative="1" as="geometry">
            <mxPoint x="362" y="842.5" as="sourcePoint" />
            <mxPoint x="612" y="672.5" as="targetPoint" />
          </mxGeometry>
        </mxCell>
        <mxCell id="MyQ0sjZ2pPT9WS6P9HhL-56" value="注册推理URL到Nova" style="text;html=1;align=center;verticalAlign=middle;resizable=0;points=[];autosize=1;strokeColor=none;fillColor=none;" parent="1" vertex="1">
          <mxGeometry x="432" y="680.5" width="140" height="30" as="geometry" />
        </mxCell>
        <mxCell id="MyQ0sjZ2pPT9WS6P9HhL-58" value="用户VM：" style="text;html=1;align=center;verticalAlign=middle;whiteSpace=wrap;rounded=0;" parent="1" vertex="1">
          <mxGeometry x="130" y="380" width="60" height="30" as="geometry" />
        </mxCell>
        <mxCell id="MyQ0sjZ2pPT9WS6P9HhL-60" value="&lt;font style=&quot;font-size: 18px;&quot;&gt;&lt;b&gt;Solution2：简化版(使用一台青云VM)&lt;/b&gt;&lt;/font&gt;" style="text;html=1;align=center;verticalAlign=middle;whiteSpace=wrap;rounded=0;" parent="1" vertex="1">
          <mxGeometry x="10" y="620" width="350" height="40" as="geometry" />
        </mxCell>
        <mxCell id="gYw-95D_TBKNZHbZKxUt-1" value="启动微调Job" style="text;html=1;align=center;verticalAlign=middle;whiteSpace=wrap;rounded=0;" vertex="1" parent="1">
          <mxGeometry x="632" y="812.5" width="60" height="30" as="geometry" />
        </mxCell>
      </root>
    </mxGraphModel>
  </diagram>
</mxfile>
